<svg width="156" height="102" viewBox="0 0 156 102" fill="none" xmlns="http://www.w3.org/2000/svg">
<path d="M28.7825 88.5358H28.7413C28.226 88.4951 27.7108 88.4342 27.1955 88.358C27.1278 88.3483 27.0628 88.3256 27.004 88.2911C26.9452 88.2566 26.8939 88.2111 26.853 88.1571C26.8121 88.103 26.7824 88.0416 26.7656 87.9762C26.7487 87.9109 26.7451 87.8429 26.7549 87.7762C26.7648 87.7095 26.7878 87.6453 26.8228 87.5874C26.8577 87.5294 26.9039 87.4788 26.9587 87.4385C27.0135 87.3982 27.0758 87.3689 27.1421 87.3523C27.2083 87.3357 27.2773 87.3321 27.3449 87.3418C27.843 87.4129 28.3428 87.4688 28.8443 87.5095C28.981 87.5148 29.1099 87.5735 29.2026 87.6726C29.2954 87.7717 29.3444 87.9031 29.339 88.0379C29.3335 88.1726 29.274 88.2997 29.1735 88.3912C29.073 88.4827 28.9398 88.531 28.8031 88.5256L28.7825 88.5358ZM33.9351 88.3427C33.8675 88.3477 33.7994 88.3395 33.735 88.3186C33.6705 88.2977 33.6109 88.2645 33.5594 88.2208C33.508 88.1772 33.4658 88.124 33.4352 88.0643C33.4046 88.0045 33.3863 87.9395 33.3812 87.8727C33.3761 87.806 33.3844 87.739 33.4056 87.6754C33.4268 87.6118 33.4605 87.553 33.5048 87.5023C33.5491 87.4516 33.603 87.41 33.6636 87.3798C33.7242 87.3496 33.7902 87.3315 33.8578 87.3265C34.3473 87.2503 34.8471 87.1538 35.3366 87.0369C35.4026 87.0219 35.4709 87.0198 35.5377 87.0308C35.6045 87.0418 35.6685 87.0657 35.7259 87.1011C35.7833 87.1365 35.8331 87.1827 35.8724 87.2371C35.9117 87.2914 35.9398 87.3529 35.9549 87.418C35.9859 87.5487 35.9632 87.6861 35.8918 87.8004C35.8204 87.9146 35.706 87.9963 35.5736 88.0277C35.0584 88.1496 34.5431 88.2513 34.0279 88.3326L33.9351 88.3427ZM22.2902 87.103C22.2305 87.1029 22.1712 87.0926 22.115 87.0725C21.5998 86.8947 21.136 86.7016 20.6517 86.4984C20.5894 86.472 20.533 86.4338 20.4858 86.386C20.4385 86.3381 20.4012 86.2816 20.3761 86.2195C20.351 86.1575 20.3385 86.0912 20.3394 86.0244C20.3402 85.9576 20.3544 85.8916 20.3812 85.8302C20.4079 85.7688 20.4466 85.7133 20.4951 85.6666C20.5437 85.62 20.601 85.5833 20.6639 85.5585C20.7268 85.5337 20.7941 85.5214 20.8618 85.5223C20.9296 85.5231 20.9965 85.5371 21.0587 85.5635C21.5225 85.7616 22.0017 85.9445 22.4705 86.1173C22.5848 86.1582 22.6808 86.2376 22.7414 86.3415C22.8021 86.4454 22.8235 86.5671 22.8019 86.6851C22.7803 86.8031 22.7171 86.9098 22.6235 86.9862C22.5298 87.0627 22.4118 87.1041 22.2902 87.103ZM40.2883 86.3205C40.1917 86.3207 40.097 86.2942 40.015 86.2438C39.9331 86.1935 39.867 86.1215 39.8246 86.036C39.7638 85.9154 39.7541 85.7759 39.7976 85.6483C39.8411 85.5206 39.9342 85.4152 40.0564 85.3552C40.5047 85.1418 40.953 84.903 41.3909 84.654C41.4498 84.6204 41.5147 84.5986 41.5821 84.5899C41.6495 84.5812 41.718 84.5857 41.7836 84.6031C41.8492 84.6206 41.9107 84.6507 41.9644 84.6917C42.0182 84.7327 42.0632 84.7838 42.0969 84.842C42.164 84.9587 42.1817 85.0968 42.146 85.2262C42.1103 85.3557 42.0241 85.466 41.9062 85.533C41.4476 85.7921 40.9787 86.0411 40.515 86.2697C40.4381 86.3066 40.3531 86.3241 40.2677 86.3205H40.2883ZM16.308 84.1561C16.2098 84.1574 16.1133 84.1309 16.0298 84.0799C15.5918 83.8055 15.1538 83.5159 14.7262 83.2212C14.6143 83.1443 14.5379 83.0267 14.5137 82.8943C14.4896 82.762 14.5196 82.6255 14.5974 82.515C14.6754 82.4046 14.7946 82.3293 14.9288 82.3055C15.0631 82.2817 15.2015 82.3113 15.3136 82.3879C15.7309 82.6776 16.1534 82.9519 16.5811 83.2212C16.6741 83.2804 16.7453 83.3676 16.7841 83.4698C16.8229 83.572 16.8274 83.6838 16.7967 83.7887C16.7661 83.8936 16.702 83.9859 16.614 84.0521C16.526 84.1183 16.4187 84.1547 16.308 84.1561ZM45.8325 82.6979C45.7577 82.6973 45.6839 82.6806 45.6163 82.649C45.5486 82.6174 45.4888 82.5717 45.4409 82.515C45.3969 82.4643 45.3635 82.4055 45.3425 82.3421C45.3216 82.2786 45.3135 82.2117 45.3188 82.1452C45.324 82.0787 45.3425 82.0138 45.3732 81.9543C45.4039 81.8949 45.4462 81.8419 45.4976 81.7986L45.6109 81.6817C45.951 81.3921 46.2962 81.0923 46.6415 80.7773C46.7419 80.6857 46.8751 80.6372 47.0119 80.6424C47.1486 80.6476 47.2776 80.7062 47.3706 80.8053C47.4635 80.9043 47.5127 81.0357 47.5074 81.1705C47.5021 81.3054 47.4427 81.4326 47.3422 81.5242C46.9815 81.8494 46.6312 82.1593 46.2808 82.454L46.1623 82.5505C46.074 82.6374 45.9569 82.6897 45.8325 82.6979ZM10.9802 80.1575C10.8525 80.1571 10.7295 80.1101 10.635 80.0254C10.2486 79.6748 9.86726 79.3191 9.50142 78.9634C9.40371 78.8691 9.34801 78.7404 9.34656 78.6056C9.34511 78.4707 9.39803 78.3409 9.49369 78.2445C9.58935 78.1482 9.7199 78.0932 9.85664 78.0918C9.99337 78.0904 10.1251 78.1426 10.2228 78.2369C10.5835 78.5875 10.9545 78.933 11.3306 79.2531C11.381 79.2982 11.4218 79.3528 11.4506 79.4137C11.4795 79.4745 11.4958 79.5404 11.4987 79.6074C11.5015 79.6745 11.4909 79.7415 11.4674 79.8045C11.4438 79.8675 11.4078 79.9253 11.3615 79.9745C11.3148 80.03 11.2566 80.0749 11.1908 80.1065C11.1251 80.138 11.0533 80.1554 10.9802 80.1575ZM50.609 78.0692C50.4813 78.0689 50.3582 78.0218 50.2638 77.9371C50.1628 77.8467 50.1024 77.7206 50.0956 77.5863C50.0889 77.452 50.1364 77.3205 50.2277 77.2207C50.5678 76.8498 50.913 76.4738 51.2582 76.0877C51.3018 76.0343 51.356 75.9901 51.4174 75.9579C51.4788 75.9257 51.5462 75.906 51.6155 75.9002C51.6848 75.8943 51.7546 75.9024 51.8206 75.9238C51.8867 75.9452 51.9477 75.9797 51.9999 76.025C52.0521 76.0703 52.0945 76.1255 52.1245 76.1874C52.1544 76.2493 52.1714 76.3166 52.1743 76.3851C52.1772 76.4536 52.166 76.522 52.1414 76.5862C52.1168 76.6503 52.0793 76.7089 52.0311 76.7584C51.6807 77.1496 51.3355 77.5307 51.0006 77.9016C50.949 77.9509 50.8875 77.989 50.82 78.0135C50.7526 78.038 50.6807 78.0483 50.609 78.0438V78.0692ZM6.45107 75.2951C6.37281 75.2955 6.29548 75.2783 6.22495 75.2449C6.15442 75.2114 6.09254 75.1626 6.04402 75.102C5.71425 74.6905 5.39994 74.2789 5.09593 73.8674C5.05614 73.813 5.02762 73.7515 5.01204 73.6863C4.99645 73.6211 4.99409 73.5535 5.00511 73.4874C5.01612 73.4213 5.04029 73.358 5.07622 73.3011C5.11214 73.2442 5.15912 73.1949 5.21445 73.156C5.32531 73.0784 5.4628 73.0471 5.59697 73.069C5.73113 73.0909 5.85108 73.1642 5.93066 73.2729C6.22951 73.6743 6.53351 74.0757 6.85298 74.472C6.91287 74.5467 6.95025 74.6365 6.96085 74.7312C6.97146 74.8259 6.95486 74.9216 6.91296 75.0074C6.87105 75.0932 6.80553 75.1657 6.72386 75.2166C6.64219 75.2674 6.54767 75.2946 6.45107 75.2951ZM54.9784 73.0443C54.858 73.0445 54.7413 73.0031 54.6486 72.9274C54.544 72.8421 54.4777 72.7196 54.4642 72.5864C54.4507 72.4532 54.4911 72.3201 54.5765 72.2161C54.9011 71.8248 55.2257 71.4336 55.5503 71.0322C55.5929 70.98 55.6454 70.9367 55.705 70.9046C55.7646 70.8725 55.83 70.8523 55.8975 70.8452C55.965 70.8381 56.0333 70.8443 56.0984 70.8633C56.1635 70.8823 56.2241 70.9138 56.2769 70.956C56.3822 71.0406 56.4495 71.1628 56.464 71.296C56.4785 71.4292 56.439 71.5627 56.3541 71.6673L55.3751 72.8563C55.3272 72.9146 55.2668 72.9616 55.1982 72.9941C55.1296 73.0266 55.0545 73.0438 54.9784 73.0443ZM2.78241 69.7823C2.6865 69.7797 2.59324 69.7508 2.51313 69.6987C2.43302 69.6466 2.36924 69.5735 2.32898 69.4877C2.08166 69.0151 1.84979 68.5426 1.64368 68.0853C1.61624 68.0243 1.60126 67.9585 1.59962 67.8918C1.59797 67.825 1.60968 67.7586 1.63409 67.6963C1.6585 67.634 1.69511 67.5771 1.74185 67.5287C1.78859 67.4804 1.84453 67.4417 1.90647 67.4147C1.96837 67.3876 2.03509 67.3728 2.10278 67.3712C2.17048 67.3696 2.23784 67.3811 2.30101 67.4052C2.36418 67.4293 2.42192 67.4654 2.47093 67.5115C2.51993 67.5576 2.55924 67.6127 2.58661 67.6738C2.78756 68.1107 3.00913 68.568 3.24615 69.0202C3.27721 69.0799 3.29599 69.145 3.3014 69.2119C3.30682 69.2787 3.29875 69.346 3.27767 69.4097C3.2566 69.4735 3.22293 69.5325 3.17861 69.5834C3.13428 69.6343 3.08018 69.676 3.01943 69.7061C2.94609 69.7432 2.86481 69.7623 2.78241 69.762V69.7823ZM59.152 67.8669C59.0559 67.8666 58.9617 67.8399 58.8802 67.7897C58.7987 67.7394 58.733 67.6677 58.6907 67.5826C58.6483 67.4975 58.631 67.4024 58.6406 67.3081C58.6501 67.2138 58.6863 67.124 58.745 67.0488L59.693 65.8447C59.7325 65.7873 59.7835 65.7384 59.8428 65.7012C59.9022 65.664 59.9686 65.6391 60.0381 65.6281C60.1075 65.6172 60.1785 65.6203 60.2467 65.6375C60.3149 65.6546 60.3787 65.6853 60.4344 65.7277C60.4901 65.7701 60.5364 65.8232 60.5704 65.8839C60.6045 65.9446 60.6255 66.0116 60.6323 66.0806C60.6392 66.1496 60.6316 66.2193 60.61 66.2854C60.5885 66.3514 60.5535 66.4124 60.5072 66.4646L59.5591 67.6687C59.509 67.7265 59.4465 67.7724 59.376 67.8032C59.3056 67.834 59.229 67.8488 59.152 67.8465V67.8669ZM0.654382 63.5481C0.529352 63.5494 0.408141 63.5057 0.313341 63.4253C0.21854 63.3449 0.15662 63.2333 0.139121 63.1112C0.0669842 62.6031 0.0206105 62.0594 0 61.5412C0 61.4064 0.0542859 61.2772 0.150916 61.1819C0.247546 61.0866 0.378606 61.0331 0.515261 61.0331C0.651917 61.0331 0.782976 61.0866 0.879607 61.1819C0.976237 61.2772 1.03052 61.4064 1.03052 61.5412C1.04764 62.0308 1.09064 62.5193 1.15934 63.0045C1.16876 63.0709 1.16475 63.1385 1.14754 63.2034C1.13033 63.2683 1.10026 63.3292 1.05907 63.3826C1.01787 63.436 0.966365 63.4808 0.90752 63.5144C0.848675 63.5481 0.783655 63.5699 0.716213 63.5786L0.654382 63.5481ZM63.2483 62.6285C63.1518 62.6292 63.0569 62.6032 62.9747 62.5533C62.8924 62.5035 62.826 62.4318 62.783 62.3465C62.74 62.2612 62.7222 62.1658 62.7316 62.071C62.741 61.9762 62.7772 61.8859 62.8361 61.8105L63.7791 60.6012C63.864 60.5007 63.985 60.4364 64.1169 60.4216C64.2488 60.4069 64.3813 60.4429 64.487 60.5222C64.5926 60.6014 64.6631 60.7178 64.6838 60.8471C64.7046 60.9763 64.674 61.1085 64.5983 61.216L63.6451 62.41C63.5982 62.4702 63.5382 62.5192 63.4695 62.5535C63.4009 62.5878 63.3253 62.6065 63.2483 62.6082V62.6285ZM148.148 59.834C148.1 59.839 148.052 59.839 148.004 59.834C147.939 59.8153 147.878 59.7842 147.825 59.7425C147.773 59.7007 147.729 59.6491 147.696 59.5906C147.664 59.5321 147.643 59.4678 147.636 59.4015C147.628 59.3352 147.634 59.2681 147.653 59.204C147.782 58.7569 147.921 58.2691 148.06 57.7458C148.077 57.681 148.107 57.6202 148.148 57.5667C148.188 57.5132 148.239 57.4682 148.298 57.4342C148.356 57.4002 148.421 57.3779 148.488 57.3686C148.555 57.3593 148.623 57.3632 148.689 57.38C148.755 57.3971 148.816 57.4268 148.871 57.4676C148.925 57.5083 148.97 57.5592 149.004 57.6173C149.038 57.6754 149.06 57.7396 149.069 57.8061C149.077 57.8726 149.073 57.9402 149.055 58.0049C148.916 58.513 148.777 59.0211 148.643 59.4835C148.609 59.5861 148.542 59.6755 148.453 59.7385C148.365 59.8016 148.257 59.835 148.148 59.834ZM67.3189 57.3851C67.2051 57.3847 67.0945 57.3472 67.0046 57.2784C66.8969 57.196 66.8266 57.0749 66.8092 56.9416C66.7918 56.8083 66.8287 56.6736 66.9118 56.567L67.8548 55.3578C67.9388 55.2507 68.0626 55.1809 68.1988 55.1637C68.3351 55.1465 68.4727 55.1835 68.5813 55.2663C68.6899 55.3492 68.7607 55.4713 68.7781 55.6056C68.7955 55.74 68.7581 55.8756 68.674 55.9827L67.726 57.1869C67.6765 57.2424 67.6154 57.2866 67.5469 57.3165C67.4784 57.3463 67.4041 57.361 67.3292 57.3597L67.3189 57.3851ZM1.19025 57.0243C1.14071 57.0315 1.09037 57.0315 1.04083 57.0243C0.91036 56.9845 0.801255 56.8953 0.737488 56.7762C0.673722 56.6571 0.66051 56.5179 0.700756 56.3892C0.850182 55.8811 1.03052 55.3984 1.21602 54.9107C1.2384 54.8449 1.27419 54.7844 1.32118 54.7328C1.36818 54.6812 1.42538 54.6397 1.48928 54.6107C1.55318 54.5818 1.62241 54.566 1.69271 54.5644C1.76301 54.5628 1.8329 54.5755 1.89807 54.6015C1.96325 54.6276 2.02232 54.6665 2.07166 54.7159C2.12099 54.7653 2.15955 54.8242 2.18495 54.8888C2.21036 54.9535 2.22207 55.0226 2.21937 55.0919C2.21667 55.1612 2.19961 55.2292 2.16925 55.2917C1.98376 55.7541 1.81372 56.2215 1.65399 56.6839C1.61674 56.7736 1.55427 56.8509 1.47393 56.9067C1.39359 56.9625 1.29874 56.9945 1.20056 56.9989L1.19025 57.0243ZM149.694 53.3763C149.661 53.3816 149.628 53.3816 149.596 53.3763C149.462 53.3516 149.344 53.2757 149.267 53.1653C149.189 53.0549 149.16 52.9189 149.184 52.7869C149.276 52.2788 149.364 51.8012 149.452 51.2931C149.463 51.2264 149.487 51.1625 149.523 51.1051C149.56 51.0476 149.607 50.9978 149.663 50.9584C149.718 50.919 149.781 50.8908 149.848 50.8755C149.915 50.8601 149.984 50.8579 150.052 50.8689C150.12 50.8799 150.184 50.9039 150.243 50.9396C150.301 50.9753 150.351 51.022 150.391 51.077C150.431 51.1319 150.46 51.1941 150.475 51.26C150.491 51.3258 150.493 51.3941 150.482 51.4608C150.395 51.9689 150.307 52.477 150.214 52.985C150.187 53.0996 150.12 53.2012 150.025 53.2726C149.93 53.3439 149.813 53.3806 149.694 53.3763ZM71.441 52.1416C71.344 52.1421 71.2488 52.1156 71.1663 52.0651C71.0839 52.0147 71.0176 51.9422 70.9751 51.8562C70.9325 51.7702 70.9155 51.6741 70.9259 51.579C70.9363 51.4839 70.9738 51.3936 71.0339 51.3185L71.9975 50.1194C72.0389 50.065 72.091 50.0194 72.1507 49.9852C72.2104 49.951 72.2765 49.929 72.345 49.9205C72.4134 49.912 72.4829 49.9171 72.5494 49.9356C72.6158 49.9541 72.6778 49.9856 72.7316 50.0281C72.7855 50.0707 72.8301 50.1235 72.8629 50.1834C72.8957 50.2433 72.9159 50.309 72.9224 50.3768C72.9289 50.4445 72.9215 50.5129 72.9007 50.5778C72.8799 50.6427 72.8461 50.7028 72.8013 50.7545L71.8429 51.9485C71.796 52.0071 71.7366 52.0548 71.6689 52.0881C71.6013 52.1215 71.5269 52.1398 71.4513 52.1416H71.441ZM4.25606 51.1559C4.14634 51.1548 4.03983 51.1192 3.95206 51.0543C3.84341 50.9743 3.77112 50.8553 3.75087 50.7231C3.73061 50.5909 3.76402 50.4562 3.84385 50.3481C4.15301 49.9365 4.48277 49.525 4.82285 49.1236C4.91099 49.0205 5.03705 48.9562 5.1733 48.9447C5.30955 48.9333 5.44482 48.9757 5.54937 49.0626C5.65391 49.1495 5.71915 49.2738 5.73075 49.4082C5.74234 49.5425 5.69934 49.6759 5.6112 49.779C5.28143 50.1601 4.96712 50.5564 4.67342 50.9476C4.62545 51.0123 4.56263 51.065 4.4901 51.1012C4.41756 51.1374 4.33736 51.1561 4.25606 51.1559ZM75.6455 46.9846C75.5269 46.9836 75.4123 46.9423 75.3209 46.8677C75.2163 46.7824 75.15 46.6599 75.1365 46.5267C75.123 46.3935 75.1634 46.2604 75.2488 46.1564L76.2329 44.9776C76.2749 44.9252 76.3269 44.8815 76.386 44.849C76.4451 44.8164 76.5101 44.7956 76.5773 44.7879C76.6445 44.7801 76.7126 44.7854 76.7778 44.8036C76.8429 44.8218 76.9038 44.8524 76.9569 44.8938C77.01 44.9351 77.0543 44.9864 77.0873 45.0447C77.1204 45.1029 77.1414 45.1671 77.1493 45.2333C77.1572 45.2996 77.1518 45.3668 77.1333 45.431C77.1149 45.4953 77.0838 45.5553 77.0419 45.6076L76.0629 46.7813C76.0144 46.8451 75.9513 46.8967 75.8788 46.9321C75.8063 46.9674 75.7264 46.9853 75.6455 46.9846ZM150.601 46.8321H150.559C150.424 46.8217 150.297 46.7587 150.209 46.6568C150.12 46.5549 150.075 46.4225 150.085 46.2885C150.127 45.7804 150.157 45.2723 150.188 44.7642C150.188 44.6953 150.202 44.6271 150.23 44.5637C150.257 44.5004 150.298 44.4432 150.348 44.3957C150.399 44.3481 150.459 44.3113 150.524 44.2873C150.59 44.2633 150.66 44.2527 150.729 44.2561C150.865 44.264 150.992 44.3245 151.083 44.4244C151.174 44.5244 151.221 44.6557 151.214 44.7896C151.188 45.2977 151.152 45.8058 151.111 46.3139C151.112 46.381 151.1 46.4478 151.075 46.5103C151.05 46.5728 151.013 46.6297 150.965 46.6779C150.918 46.7261 150.861 46.7646 150.799 46.791C150.736 46.8175 150.669 46.8315 150.601 46.8321ZM8.90372 46.4002C8.79682 46.4007 8.69243 46.3684 8.60501 46.3077C8.51759 46.247 8.45147 46.1611 8.4158 46.0617C8.38014 45.9623 8.3767 45.8545 8.40595 45.7531C8.43521 45.6517 8.49572 45.5618 8.5791 45.4959C9.34684 44.8862 9.84149 44.561 9.86211 44.5457C9.97621 44.4743 10.1142 44.4499 10.2464 44.4778C10.3786 44.5058 10.4943 44.5838 10.5687 44.6951C10.643 44.8065 10.67 44.9421 10.6439 45.0729C10.6177 45.2037 10.5405 45.3191 10.4289 45.3942C10.4289 45.3942 9.9497 45.7093 9.22833 46.2834C9.13427 46.3603 9.01557 46.4017 8.89341 46.4002H8.90372ZM79.9737 41.924C79.8757 41.9231 79.7799 41.8945 79.6977 41.8418C79.6155 41.789 79.5503 41.7142 79.5097 41.6262C79.4692 41.5382 79.4549 41.4405 79.4686 41.3448C79.4824 41.2491 79.5235 41.1592 79.5873 41.0857C79.9222 40.6995 80.2623 40.3134 80.6178 39.9323C80.6614 39.8789 80.7156 39.8348 80.777 39.8025C80.8384 39.7703 80.9058 39.7507 80.9751 39.7448C81.0444 39.7389 81.1142 39.747 81.1802 39.7684C81.2463 39.7899 81.3073 39.8243 81.3595 39.8696C81.4117 39.9149 81.4541 39.9702 81.484 40.0321C81.514 40.094 81.531 40.1612 81.5339 40.2297C81.5368 40.2983 81.5256 40.3667 81.501 40.4308C81.4764 40.495 81.4389 40.5535 81.3907 40.603C81.0506 40.9841 80.7105 41.3651 80.3602 41.7513C80.3108 41.8068 80.2496 41.851 80.1811 41.8808C80.1126 41.9106 80.0383 41.9254 79.9634 41.924H79.9737ZM150.724 40.227C150.593 40.2272 150.466 40.1779 150.37 40.0891C150.275 40.0003 150.217 39.8788 150.209 39.7494C150.178 39.2413 150.142 38.7332 150.096 38.2252C150.083 38.0904 150.126 37.9564 150.214 37.8525C150.302 37.7486 150.428 37.6835 150.565 37.6713C150.701 37.6592 150.837 37.7011 150.942 37.7878C151.048 37.8745 151.114 37.9989 151.126 38.1337C151.173 38.6418 151.214 39.1499 151.24 39.658C151.24 39.7876 151.19 39.9124 151.1 40.0069C151.01 40.1013 150.886 40.1583 150.755 40.166L150.724 40.227ZM84.4616 37.0007C84.3315 37.0002 84.2063 36.9512 84.1113 36.8635C84.0118 36.7717 83.9533 36.6448 83.9484 36.5105C83.9436 36.3763 83.9929 36.2456 84.0855 36.1471C84.4359 35.7711 84.7914 35.4002 85.1469 35.0344C85.243 34.9476 85.3688 34.8999 85.499 34.9008C85.6293 34.9018 85.7543 34.9514 85.849 35.0396C85.9437 35.1278 86.001 35.2481 86.0093 35.3763C86.0177 35.5045 85.9765 35.631 85.8941 35.7305L84.8636 36.8381C84.8104 36.8952 84.7447 36.9395 84.6714 36.9677C84.5982 36.9959 84.5194 37.0071 84.441 37.0007H84.4616ZM149.792 33.693C149.674 33.6964 149.559 33.6599 149.465 33.5897C149.371 33.5194 149.305 33.4196 149.276 33.3069C149.158 32.7988 149.029 32.3263 148.885 31.8588C148.866 31.7948 148.86 31.7277 148.867 31.6614C148.875 31.595 148.895 31.5308 148.928 31.4723C148.96 31.4138 149.004 31.3622 149.057 31.3204C149.11 31.2786 149.17 31.2475 149.235 31.2288C149.366 31.1909 149.506 31.2054 149.626 31.2692C149.745 31.3329 149.835 31.4408 149.874 31.5692C150.018 32.0773 150.157 32.56 150.281 33.0681C150.297 33.1331 150.3 33.2007 150.29 33.2669C150.279 33.3331 150.256 33.3965 150.22 33.4537C150.185 33.5108 150.138 33.5605 150.083 33.5998C150.028 33.6391 149.966 33.6674 149.9 33.6829L149.792 33.693ZM89.1351 32.2653C89.0332 32.2649 88.9337 32.2347 88.8492 32.1785C88.7647 32.1223 88.699 32.0427 88.6604 31.9497C88.6218 31.8567 88.612 31.7545 88.6323 31.6561C88.6526 31.5576 88.702 31.4672 88.7744 31.3965L89.8925 30.3295C89.9404 30.2819 89.9974 30.2441 90.0602 30.2183C90.123 30.1925 90.1903 30.1792 90.2583 30.1792C90.3264 30.1792 90.3937 30.1925 90.4565 30.2183C90.5193 30.2441 90.5763 30.2819 90.6242 30.3295C90.7201 30.4247 90.774 30.5535 90.774 30.6877C90.774 30.8219 90.7201 30.9507 90.6242 31.0459C90.2532 31.3914 89.8874 31.7471 89.5164 32.1027C89.4654 32.157 89.4031 32.1997 89.3336 32.2278C89.2642 32.2559 89.1894 32.2687 89.1145 32.2653H89.1351ZM94.0661 27.784C93.9615 27.7838 93.8595 27.7523 93.7735 27.6936C93.6875 27.6349 93.6217 27.5517 93.5848 27.4552C93.5478 27.3587 93.5416 27.2534 93.5668 27.1533C93.5921 27.0532 93.6476 26.9631 93.7261 26.8948L94.9111 25.8787C95.0164 25.7918 95.1523 25.7496 95.289 25.7615C95.4258 25.7734 95.5521 25.8384 95.6403 25.9422C95.7284 26.0459 95.7711 26.18 95.759 26.3148C95.747 26.4496 95.6811 26.5742 95.5758 26.6611C95.1842 26.9812 94.7926 27.3115 94.401 27.6417C94.3055 27.7325 94.1782 27.7835 94.0455 27.784H94.0661ZM147.478 27.5147C147.384 27.514 147.293 27.488 147.213 27.4397C147.133 27.3913 147.068 27.3224 147.025 27.2403C146.788 26.7983 146.54 26.3614 146.278 25.9396C146.207 25.8244 146.187 25.6864 146.219 25.5559C146.252 25.4255 146.336 25.3131 146.453 25.2436C146.57 25.1744 146.71 25.1538 146.842 25.1862C146.974 25.2185 147.088 25.3013 147.159 25.4163C147.432 25.8533 147.674 26.3105 147.937 26.7678C147.979 26.8455 147.999 26.9326 147.997 27.0206C147.995 27.1086 147.969 27.1945 147.923 27.2698C147.876 27.3451 147.811 27.4073 147.733 27.4502C147.655 27.4931 147.567 27.5154 147.478 27.5147ZM99.3012 23.6634C99.2199 23.6636 99.1397 23.6449 99.0671 23.6087C98.9946 23.5725 98.9318 23.5198 98.8838 23.4551C98.8435 23.4014 98.8143 23.3404 98.7979 23.2756C98.7815 23.2108 98.7783 23.1434 98.7883 23.0773C98.7984 23.0112 98.8215 22.9478 98.8565 22.8905C98.8914 22.8333 98.9375 22.7834 98.992 22.7438C99.4145 22.4389 99.8371 22.1442 100.26 21.8496C100.315 21.8112 100.378 21.784 100.444 21.7695C100.51 21.755 100.578 21.7534 100.645 21.765C100.712 21.7766 100.776 21.801 100.833 21.8368C100.89 21.8727 100.939 21.9193 100.978 21.974C101.017 22.0288 101.045 22.0905 101.06 22.1557C101.074 22.2209 101.076 22.2884 101.064 22.3542C101.052 22.42 101.028 22.4829 100.991 22.5393C100.955 22.5957 100.908 22.6445 100.852 22.6828L99.6052 23.5618C99.5118 23.631 99.3973 23.6668 99.2806 23.6634H99.3012ZM143.562 22.19C143.494 22.1897 143.427 22.1761 143.364 22.1499C143.301 22.1237 143.244 22.0856 143.196 22.0375C142.853 21.6988 142.487 21.3601 142.099 21.0214C141.996 20.9324 141.934 20.8069 141.925 20.6726C141.917 20.5383 141.962 20.4061 142.052 20.305C142.143 20.204 142.27 20.1425 142.406 20.1339C142.542 20.1254 142.676 20.1704 142.779 20.2593C143.171 20.5997 143.557 20.9604 143.928 21.3313C144.024 21.4265 144.078 21.5553 144.078 21.6895C144.078 21.8237 144.024 21.9525 143.928 22.0477C143.877 22.0964 143.816 22.1342 143.75 22.1586C143.683 22.1831 143.612 22.1938 143.542 22.19H143.562ZM104.918 20.0357C104.827 20.036 104.737 20.0127 104.659 19.9681C104.58 19.9235 104.515 19.8592 104.469 19.7816C104.402 19.6656 104.383 19.5279 104.418 19.3985C104.453 19.2692 104.538 19.1585 104.655 19.0907C105.108 18.8315 105.562 18.5826 106.015 18.3387C106.074 18.3053 106.14 18.2838 106.207 18.2753C106.275 18.2668 106.344 18.2716 106.409 18.2893C106.475 18.307 106.537 18.3373 106.591 18.3784C106.645 18.4196 106.69 18.4708 106.724 18.5292C106.757 18.5876 106.779 18.652 106.788 18.7187C106.796 18.7854 106.792 18.8531 106.774 18.918C106.756 18.9829 106.725 19.0436 106.683 19.0968C106.641 19.1499 106.59 19.1945 106.53 19.2278C106.082 19.4666 105.639 19.7359 105.196 19.9696C105.096 20.0274 104.98 20.0507 104.866 20.0357H104.918ZM138.245 18.2472C138.158 18.2475 138.072 18.2247 137.997 18.1812C137.564 17.9475 137.111 17.7188 136.647 17.5054C136.586 17.4767 136.531 17.4364 136.486 17.3868C136.44 17.3372 136.405 17.2792 136.382 17.2163C136.36 17.1533 136.35 17.0865 136.353 17.0197C136.357 16.953 136.373 16.8875 136.403 16.8271C136.432 16.7667 136.473 16.7126 136.523 16.6678C136.573 16.623 136.632 16.5884 136.696 16.566C136.76 16.5436 136.827 16.5338 136.895 16.5372C136.963 16.5406 137.029 16.5571 137.09 16.5858C137.57 16.8093 138.039 17.0481 138.492 17.292C138.593 17.3458 138.673 17.4315 138.719 17.5352C138.765 17.639 138.775 17.755 138.746 17.8648C138.718 17.9746 138.653 18.0719 138.562 18.1412C138.471 18.2105 138.36 18.2478 138.245 18.2472ZM110.91 17.1193C110.79 17.1196 110.674 17.0785 110.581 17.0032C110.488 16.9279 110.425 16.8231 110.403 16.7069C110.38 16.5906 110.399 16.4702 110.457 16.3665C110.515 16.2628 110.608 16.1822 110.719 16.1387C111.204 15.9456 111.688 15.7627 112.178 15.5899C112.305 15.5485 112.444 15.5577 112.564 15.6155C112.685 15.6733 112.778 15.7752 112.824 15.8996C112.869 16.024 112.864 16.161 112.809 16.2816C112.753 16.4021 112.653 16.4967 112.528 16.5451C112.054 16.7128 111.58 16.8906 111.106 17.0837C111.031 17.1138 110.95 17.126 110.869 17.1193H110.91ZM132.061 15.7475C132.012 15.7524 131.962 15.7524 131.912 15.7475C131.428 15.6052 130.933 15.4731 130.444 15.3613C130.307 15.3296 130.189 15.2457 130.115 15.1281C130.041 15.0104 130.017 14.8686 130.049 14.7338C130.082 14.5991 130.167 14.4824 130.286 14.4095C130.405 14.3366 130.549 14.3135 130.686 14.3451C131.201 14.4671 131.716 14.5992 132.232 14.7465C132.368 14.7654 132.492 14.837 132.575 14.9456C132.658 15.0543 132.694 15.191 132.675 15.3257C132.656 15.4605 132.583 15.5822 132.473 15.6642C132.363 15.7461 132.224 15.7816 132.087 15.7627L132.061 15.7475ZM117.232 15.1835C117.112 15.1861 116.995 15.1475 116.901 15.0742C116.807 15.0009 116.742 14.8976 116.717 14.7821C116.703 14.7163 116.702 14.6484 116.714 14.5823C116.727 14.5162 116.753 14.4532 116.79 14.397C116.827 14.3407 116.876 14.2924 116.932 14.2547C116.989 14.217 117.052 14.1908 117.119 14.1775C117.634 14.0758 118.149 13.9793 118.665 13.9031C118.801 13.8822 118.941 13.9157 119.052 13.9962C119.164 14.0767 119.239 14.1977 119.26 14.3324C119.281 14.4672 119.247 14.6047 119.165 14.7148C119.084 14.8248 118.961 14.8984 118.824 14.9193C118.309 14.9955 117.83 15.0869 117.33 15.1886C117.297 15.1914 117.265 15.1897 117.232 15.1835ZM125.44 14.6144H125.404C124.889 14.5839 124.374 14.5636 123.889 14.5585C123.753 14.5585 123.622 14.505 123.525 14.4097C123.428 14.3144 123.374 14.1852 123.374 14.0504C123.374 13.9157 123.428 13.7865 123.525 13.6912C123.622 13.5959 123.753 13.5424 123.889 13.5424C124.405 13.5424 124.92 13.5678 125.461 13.5982C125.598 13.6023 125.727 13.6597 125.821 13.7578C125.915 13.856 125.965 13.9868 125.961 14.1216C125.957 14.2563 125.898 14.384 125.799 14.4764C125.699 14.5688 125.567 14.6185 125.43 14.6144H125.44Z" fill="#58595B"/>
<path d="M114.986 94.6531H55.7874L67.4786 0.748779H120.272L125.786 7.92803L114.986 94.6531Z" fill="#58595B"/>
<path d="M108.581 94.6531H49.3774L61.0687 0.748779H120.272L108.581 94.6531Z" fill="#EEEEEE"/>
<path d="M105.665 76.8345H56.1997L64.6345 9.12195H114.1L105.665 76.8345Z" fill="white"/>
<path d="M88.9805 47.2742L103.274 47.4418L102.996 49.6215L88.9805 49.3827V47.2742Z" fill="white"/>
<path d="M49.3774 94.6531L56.4984 101.136L114.099 102L114.986 94.6531H49.3774Z" fill="#58595B"/>
<path d="M95.0764 27.4436C95.0764 27.4436 97.5445 27.6164 98.8069 32.1942C100.069 36.7721 99.6364 49.5504 99.6364 49.5504L88.9911 49.3827C88.9911 49.3827 83.6788 30.3651 95.0764 27.4436Z" fill="#F58220"/>
<path d="M43.9205 -7.06937e-06L5.19995 31.0181L25.522 55.6849L64.2426 24.6668L43.9205 -7.06937e-06Z" fill="#F58220"/>
<path d="M43.7107 6.82492L26.374 20.7129L29.7302 24.7866L47.0668 10.8986L43.7107 6.82492Z" fill="white"/>
<path opacity="0.46" d="M29.9074 38.1307L23.7086 43.0964C22.8649 43.7723 22.7366 44.9946 23.422 45.8266L24.296 46.8874C24.9814 47.7194 26.221 47.8459 27.0648 47.1701L33.2636 42.2043C34.1073 41.5285 34.2356 40.3061 33.5502 39.4741L32.6762 38.4133C31.9908 37.5813 30.7512 37.4548 29.9074 38.1307Z" fill="white"/>
<path opacity="0.46" d="M52.5584 19.989L35.2777 33.8321C34.434 34.508 34.3057 35.7304 34.9911 36.5623L35.8651 37.6232C36.5505 38.4551 37.7901 38.5817 38.6339 37.9058L55.9146 24.0627C56.7583 23.3868 56.8866 22.1644 56.2012 21.3324L55.3272 20.2716C54.6418 19.4396 53.4021 19.3131 52.5584 19.989Z" fill="white"/>
<path opacity="0.3" d="M17.2097 35.2427C19.1562 35.2427 20.7341 33.6868 20.7341 31.7674C20.7341 29.8481 19.1562 28.2921 17.2097 28.2921C15.2632 28.2921 13.6853 29.8481 13.6853 31.7674C13.6853 33.6868 15.2632 35.2427 17.2097 35.2427Z" fill="white"/>
<path opacity="0.3" d="M20.7854 32.0773C22.7318 32.0773 24.3098 30.5214 24.3098 28.602C24.3098 26.6827 22.7318 25.1267 20.7854 25.1267C18.8389 25.1267 17.261 26.6827 17.261 28.602C17.261 30.5214 18.8389 32.0773 20.7854 32.0773Z" fill="white"/>
<path d="M95.0761 27.4435C95.0761 27.4435 89.4752 29.4302 91.4281 44.9928C92.8605 56.3943 88.0222 71.4895 80.8703 71.6724C73.7185 71.8553 60.5278 71.2354 60.5278 71.2354C60.5278 71.2354 67.3963 53.7065 65.9741 38.9872C65.7556 36.9265 66.0055 34.8437 66.7058 32.8902C67.5405 30.6496 69.0915 28.3175 71.9769 27.9364C77.7376 27.1641 95.0761 27.4435 95.0761 27.4435Z" fill="#58595B"/>
<path d="M56.5652 72.3736L81.8388 71.8655C81.8388 71.8655 77.9846 68.0955 77.7425 58.4978L42.9778 59.0059C43.5737 61.4823 44.4897 63.8729 45.7035 66.1191C46.7535 68.0475 48.3236 69.6522 50.2404 70.7559C52.1572 71.8597 54.346 72.4195 56.5652 72.3736Z" fill="#58595B"/>
<path opacity="0.44" d="M56.5652 72.3736L81.8388 71.8655C81.8388 71.8655 77.9846 68.0955 77.7425 58.4978L42.9778 59.0059C43.5737 61.4823 44.4897 63.8729 45.7035 66.1191C46.7535 68.0475 48.3236 69.6522 50.2404 70.7559C52.1572 71.8597 54.346 72.4195 56.5652 72.3736Z" fill="white"/>
<path d="M75.0376 14.0098L74.1565 19.7156H99.698L100.471 14.0098H75.0376Z" fill="#F58220"/>
<path opacity="0.48" d="M82.0709 81.4023C79.3143 79.0244 74.9552 79.4919 73.0075 82.5556C72.5159 83.3 72.2496 84.1671 72.2397 85.0554C72.2397 88.8152 74.8727 91.2794 80.1336 90.243C84.1474 89.4503 85.6778 84.5067 82.0709 81.4023Z" fill="#58595B"/>
<path d="M141.217 91.0254C149.066 91.0254 155.428 84.7516 155.428 77.0124C155.428 69.2732 149.066 62.9994 141.217 62.9994C133.369 62.9994 127.007 69.2732 127.007 77.0124C127.007 84.7516 133.369 91.0254 141.217 91.0254Z" fill="#F58220"/>
<path d="M70.7399 33.7642C70.6722 33.7665 70.6048 33.7557 70.5414 33.7323C70.4779 33.709 70.4198 33.6735 70.3703 33.628C70.3208 33.5824 70.2808 33.5277 70.2527 33.467C70.2247 33.4062 70.209 33.3406 70.2066 33.2739C70.2042 33.2072 70.2152 33.1406 70.2389 33.0781C70.2626 33.0156 70.2986 32.9582 70.3448 32.9094C70.3909 32.8606 70.4464 32.8212 70.508 32.7935C70.5696 32.7658 70.6362 32.7504 70.7038 32.748C70.812 32.748 81.5862 31.9656 87.3622 32.4737C87.4989 32.4858 87.6251 32.5509 87.713 32.6548C87.8009 32.7587 87.8434 32.8927 87.8311 33.0275C87.8188 33.1622 87.7528 33.2866 87.6474 33.3734C87.5421 33.4601 87.4062 33.502 87.2695 33.4898C81.6016 32.9817 70.8842 33.749 70.7811 33.7591L70.7399 33.7642Z" fill="white"/>
<path d="M69.8847 40.6386C69.817 40.6409 69.7496 40.6301 69.6861 40.6067C69.6227 40.5833 69.5646 40.5479 69.5151 40.5023C69.415 40.4104 69.3562 40.283 69.3514 40.1483C69.3466 40.0135 69.3963 39.8824 69.4896 39.7838C69.5828 39.6852 69.712 39.6271 69.8486 39.6224C69.9568 39.6224 80.7309 38.84 86.507 39.348C86.6437 39.3602 86.7699 39.4253 86.8578 39.5292C86.9457 39.6331 86.9882 39.7671 86.9759 39.9019C86.9636 40.0366 86.8975 40.161 86.7922 40.2477C86.6869 40.3344 86.5509 40.3763 86.4143 40.3642C80.7464 39.8561 70.0341 40.6284 69.9259 40.6335L69.8847 40.6386Z" fill="white"/>
<path d="M69.7868 47.7823C69.6501 47.7876 69.5169 47.7393 69.4164 47.6478C69.3159 47.5563 69.2564 47.4293 69.2509 47.2945C69.2454 47.1597 69.2945 47.0284 69.3872 46.9293C69.48 46.8302 69.6089 46.7715 69.7455 46.7661C69.8538 46.7661 80.633 45.9836 86.4039 46.4917C86.4716 46.4977 86.5374 46.5168 86.5976 46.5479C86.6578 46.579 86.7112 46.6214 86.7547 46.6729C86.7983 46.7243 86.8311 46.7837 86.8514 46.8476C86.8716 46.9116 86.8789 46.9788 86.8728 47.0455C86.8667 47.1123 86.8474 47.1771 86.8159 47.2365C86.7843 47.2958 86.7413 47.3485 86.6891 47.3914C86.637 47.4343 86.5768 47.4667 86.5119 47.4867C86.4471 47.5067 86.3789 47.5139 86.3112 47.5079C80.6433 46.9998 69.931 47.7721 69.8228 47.7772L69.7868 47.7823Z" fill="white"/>
<path d="M69.1015 54.9258C69.0338 54.9282 68.9664 54.9173 68.9029 54.894C68.8395 54.8706 68.7814 54.8351 68.7319 54.7896C68.6823 54.7441 68.6424 54.6894 68.6143 54.6286C68.5862 54.5679 68.5706 54.5023 68.5682 54.4355C68.5658 54.3688 68.5768 54.3023 68.6005 54.2397C68.6242 54.1772 68.6602 54.1199 68.7064 54.0711C68.7525 54.0222 68.808 53.9828 68.8696 53.9552C68.9312 53.9275 68.9978 53.912 69.0654 53.9097C69.1736 53.9097 79.9477 53.1272 85.7238 53.6404C85.7915 53.6464 85.8573 53.6655 85.9175 53.6966C85.9776 53.7276 86.031 53.7701 86.0746 53.8215C86.1181 53.873 86.151 53.9323 86.1712 53.9963C86.1915 54.0602 86.1988 54.1275 86.1927 54.1942C86.1866 54.2609 86.1673 54.3258 86.1357 54.3852C86.1042 54.4445 86.0611 54.4971 86.009 54.5401C85.9568 54.583 85.8966 54.6154 85.8318 54.6354C85.7669 54.6554 85.6987 54.6626 85.6311 54.6566C79.9632 54.1485 69.2509 54.9208 69.1427 54.9258H69.1015Z" fill="white"/>
<path d="M141 68.6666C138.708 68.6666 136.833 70.5416 136.833 72.8333V74.5H138.5V72.8333C138.5 71.4583 139.625 70.3333 141 70.3333C142.375 70.3333 143.5 71.4583 143.5 72.8333V74.5H145.167V72.8333C145.167 70.5416 143.292 68.6666 141 68.6666Z" fill="#424242"/>
<path d="M146 85.3333H136C135.083 85.3333 134.333 84.5833 134.333 83.6667V76.1667C134.333 75.25 135.083 74.5 136 74.5H146C146.917 74.5 147.667 75.25 147.667 76.1667V83.6667C147.667 84.5833 146.917 85.3333 146 85.3333Z" fill="#58595B"/>
<path d="M138.5 79.9166C138.5 80.5797 138.763 81.2156 139.232 81.6844C139.701 82.1532 140.337 82.4166 141 82.4166C141.663 82.4166 142.299 82.1532 142.768 81.6844C143.237 81.2156 143.5 80.5797 143.5 79.9166C143.5 79.2536 143.237 78.6177 142.768 78.1489C142.299 77.68 141.663 77.4166 141 77.4166C140.337 77.4166 139.701 77.68 139.232 78.1489C138.763 78.6177 138.5 79.2536 138.5 79.9166Z" fill="#EFEBE9"/>
<path d="M139.75 79.9166C139.75 80.2481 139.882 80.5661 140.116 80.8005C140.351 81.0349 140.668 81.1666 141 81.1666C141.332 81.1666 141.649 81.0349 141.884 80.8005C142.118 80.5661 142.25 80.2481 142.25 79.9166C142.25 79.5851 142.118 79.2672 141.884 79.0327C141.649 78.7983 141.332 78.6666 141 78.6666C140.668 78.6666 140.351 78.7983 140.116 79.0327C139.882 79.2672 139.75 79.5851 139.75 79.9166Z" fill="#F58220"/>
<path d="M141.417 79.0833C141.417 79.1938 141.461 79.2998 141.539 79.3779C141.617 79.4561 141.723 79.5 141.833 79.5C141.944 79.5 142.05 79.4561 142.128 79.3779C142.206 79.2998 142.25 79.1938 142.25 79.0833C142.25 78.9728 142.206 78.8668 142.128 78.7887C142.05 78.7105 141.944 78.6666 141.833 78.6666C141.723 78.6666 141.617 78.7105 141.539 78.7887C141.461 78.8668 141.417 78.9728 141.417 79.0833Z" fill="white"/>
</svg>
