<svg width="26" height="26" viewBox="0 0 26 26" fill="none" xmlns="http://www.w3.org/2000/svg">
<path d="M17.3453 21.1217L9.42825 13L17.3453 4.87822C17.487 4.73311 17.5663 4.53832 17.5663 4.33547C17.5663 4.13263 17.487 3.93783 17.3453 3.79272C17.2764 3.72246 17.1942 3.66664 17.1036 3.62853C17.0129 3.59043 16.9155 3.5708 16.8171 3.5708C16.7188 3.5708 16.6214 3.59043 16.5307 3.62853C16.44 3.66664 16.3578 3.72246 16.289 3.79272L7.865 12.4328C7.71711 12.5846 7.63433 12.7881 7.63433 13C7.63433 13.2119 7.71711 13.4154 7.865 13.5671L16.2874 22.2072C16.3563 22.278 16.4386 22.3342 16.5296 22.3726C16.6206 22.411 16.7184 22.4308 16.8171 22.4308C16.9159 22.4308 17.0136 22.411 17.1046 22.3726C17.1956 22.3342 17.278 22.278 17.3469 22.2072C17.4886 22.0621 17.568 21.8673 17.568 21.6645C17.568 21.4616 17.4886 21.2668 17.3469 21.1217H17.3453Z" fill="#58595B"/>
</svg>
