<svg width="20" height="20" viewBox="0 0 20 20" fill="none" xmlns="http://www.w3.org/2000/svg">
<path d="M2.74414 7.52231V6.28364C2.74414 5.40392 3.45703 4.69067 4.33672 4.69067H5.22148V6.10669H6.99141V4.69067H13.0086V6.10669H14.7786V4.69067H15.6633C16.543 4.69067 17.2559 5.40395 17.2559 6.28364V15.1325C17.2559 16.0122 16.543 16.725 15.6633 16.725H4.33672C3.45703 16.725 2.74414 16.0122 2.74414 15.1325V7.52231ZM15.8402 11.929C15.8402 11.45 15.452 11.0618 14.9723 11.0618C14.5391 11.0618 14.3223 11.2786 14.1055 11.7122C13.8887 11.2786 13.6719 11.0618 13.2387 11.0618C12.7602 11.0618 12.3719 11.45 12.3719 11.929C12.3719 12.7958 13.2387 13.2891 14.1055 14.1563C14.9723 13.2891 15.8402 12.7958 15.8402 11.929ZM12.3008 14.6017V13.8934H11.593V14.6017H12.3008ZM12.3008 10.354V9.64618H11.593V10.354H12.3008ZM10.8848 14.6017V13.8934H10.177V14.6017H10.8848ZM10.8848 11.77V11.0618H10.177V11.77H10.8848ZM10.8848 10.354V9.64618H10.177V10.354H10.8848ZM9.46914 14.6017V13.8934H8.76133V14.6017H9.46914ZM9.46914 13.1856V12.4778H8.76133V13.1856H9.46914ZM9.46914 11.77V11.0618H8.76133V11.77H9.46914ZM9.46914 10.354V9.64618H8.76133V10.354H9.46914ZM8.05313 14.6017V13.8934H7.34531V14.6017H8.05313ZM8.05313 13.1856V12.4778H7.34531V13.1856H8.05313ZM8.05313 11.77V11.0618H7.34531V11.77H8.05313ZM8.05313 10.354V9.64618H7.34531V10.354H8.05313ZM6.6375 14.6017V13.8934H5.92969V14.6017H6.6375ZM6.6375 13.1856V12.4778H5.92969V13.1856H6.6375ZM6.6375 11.77V11.0618H5.92969V11.77H6.6375ZM6.6375 10.354V9.64618H5.92969V10.354H6.6375ZM5.22148 14.6017V13.8934H4.51367V14.6017H5.22148ZM5.22148 13.1856V12.4778H4.51367V13.1856H5.22148ZM5.22148 11.77V11.0618H4.51367V11.77H5.22148ZM5.22148 10.354V9.64618H4.51367V10.354H5.22148Z" fill="#F58220"/>
<path d="M14.7785 4.69065V6.10667H13.0085V4.69065V3.27502H14.7785V4.69065Z" fill="#58595B"/>
<path d="M13.3601 5.10733V3.6917H14.7785V3.27502H13.0085V4.69065V6.10667H13.3601V5.10733Z" fill="#58595B"/>
<path d="M3.12176 15.4864V7.87626V6.63759C3.12176 5.75786 3.83465 5.04462 4.71434 5.04462H5.22148V4.69067H4.33672C3.45703 4.69067 2.74414 5.40395 2.74414 6.28364V7.52231V15.1325C2.74414 15.6846 3.025 16.1708 3.45164 16.4565C3.24492 16.1879 3.12176 15.8516 3.12176 15.4864Z" fill="#58595B"/>
<path d="M6.99136 4.69065V6.10667H5.22144V4.69065V3.27502H6.99136V4.69065Z" fill="#58595B"/>
<path d="M5.57534 5.10729V3.6917H6.99136V3.27502H5.22144V4.69065V6.10667H5.57534V5.10729Z" fill="#58595B"/>
<path d="M12.3008 13.8934H11.593V14.6017H12.3008V13.8934Z" fill="#58595B"/>
<path d="M12.3008 9.64612H11.593V10.3539H12.3008V9.64612Z" fill="#58595B"/>
<path d="M10.8848 13.8934H10.177V14.6017H10.8848V13.8934Z" fill="#58595B"/>
<path d="M10.8848 11.0618H10.177V11.77H10.8848V11.0618Z" fill="#58595B"/>
<path d="M10.8848 9.64612H10.177V10.3539H10.8848V9.64612Z" fill="#58595B"/>
<path d="M9.46917 13.8934H8.76135V14.6017H9.46917V13.8934Z" fill="#58595B"/>
<path d="M9.46917 12.4778H8.76135V13.1856H9.46917V12.4778Z" fill="#58595B"/>
<path d="M9.46917 11.0618H8.76135V11.77H9.46917V11.0618Z" fill="#58595B"/>
<path d="M9.46917 9.64612H8.76135V10.3539H9.46917V9.64612Z" fill="#58595B"/>
<path d="M8.05315 13.8934H7.34534V14.6017H8.05315V13.8934Z" fill="#58595B"/>
<path d="M8.05315 12.4778H7.34534V13.1856H8.05315V12.4778Z" fill="#58595B"/>
<path d="M8.05315 11.0618H7.34534V11.77H8.05315V11.0618Z" fill="#58595B"/>
<path d="M8.05315 9.64612H7.34534V10.3539H8.05315V9.64612Z" fill="#58595B"/>
<path d="M6.6375 13.8934H5.92969V14.6017H6.6375V13.8934Z" fill="#58595B"/>
<path d="M6.6375 12.4778H5.92969V13.1856H6.6375V12.4778Z" fill="#58595B"/>
<path d="M6.6375 11.0618H5.92969V11.77H6.6375V11.0618Z" fill="#58595B"/>
<path d="M6.6375 9.64612H5.92969V10.3539H6.6375V9.64612Z" fill="#58595B"/>
<path d="M5.22148 13.8934H4.51367V14.6017H5.22148V13.8934Z" fill="#58595B"/>
<path d="M5.22148 12.4778H4.51367V13.1856H5.22148V12.4778Z" fill="#58595B"/>
<path d="M5.22148 11.0618H4.51367V11.77H5.22148V11.0618Z" fill="#58595B"/>
<path d="M5.22148 9.64612H4.51367V10.3539H5.22148V9.64612Z" fill="#58595B"/>
<path d="M14.068 7.71765H3.0957C2.98785 7.71765 2.90039 7.63019 2.90039 7.52234C2.90039 7.41445 2.98785 7.32703 3.0957 7.32703H14.068C14.1759 7.32703 14.2633 7.41445 14.2633 7.52234C14.2633 7.63019 14.1758 7.71765 14.068 7.71765Z" fill="#58595B"/>
<path d="M15.8378 7.71765H15.4839C15.376 7.71765 15.2886 7.63019 15.2886 7.52234C15.2886 7.41445 15.376 7.32703 15.4839 7.32703H15.8378C15.9457 7.32703 16.0331 7.41445 16.0331 7.52234C16.0331 7.63019 15.9457 7.71765 15.8378 7.71765Z" fill="#58595B"/>
<ellipse cx="14.1666" cy="12.0833" rx="2.5" ry="2.08333" fill="#F58220"/>
<path d="M14.5424 12.3564L14.6889 11.8086L14.8342 12.3564H14.5424V12.8217H14.9573L15.051 13.1772C15.0515 13.1788 15.0519 13.1804 15.0524 13.182C15.0801 13.2754 15.1527 13.3334 15.2419 13.3334C15.3559 13.3334 15.4779 13.2393 15.4779 13.0993C15.4779 13.0829 15.4757 13.0692 15.4739 13.0603C15.473 13.0528 15.4715 13.0454 15.4695 13.0381L14.9196 11.0064C14.9193 11.0054 14.919 11.0043 14.9187 11.0033C14.8885 10.9001 14.7985 10.8334 14.6894 10.8334C14.6825 10.8334 14.6756 10.8337 14.6688 10.8342C14.6673 10.8343 14.6659 10.8346 14.6644 10.8347C14.6591 10.8353 14.6539 10.8358 14.6487 10.8367C14.6474 10.8369 14.6461 10.8372 14.6448 10.8374C14.6395 10.8384 14.6342 10.8394 14.6291 10.8407C14.6282 10.8409 14.6273 10.8412 14.6264 10.8414C14.6209 10.8429 14.6154 10.8445 14.6101 10.8463C14.6096 10.8465 14.6091 10.8467 14.6086 10.8469C14.6029 10.8489 14.5973 10.851 14.5918 10.8534C14.5917 10.8535 14.5915 10.8536 14.5913 10.8537C14.5737 10.8614 14.5573 10.8713 14.5424 10.8831V12.3565L14.5424 12.3564Z" fill="#58595B"/>
<path d="M14.5423 10.8831C14.5281 10.8943 14.5152 10.9072 14.5039 10.9217C14.5038 10.9218 14.5037 10.922 14.5036 10.9221C14.5 10.9268 14.4965 10.9316 14.4932 10.9365C14.4928 10.9372 14.4924 10.938 14.4919 10.9387C14.489 10.9432 14.4862 10.9477 14.4836 10.9524C14.4828 10.954 14.4821 10.9555 14.4813 10.957C14.4792 10.9611 14.4771 10.9651 14.4752 10.9694C14.4738 10.9723 14.4727 10.9753 14.4715 10.9782C14.4703 10.9813 14.469 10.9842 14.4679 10.9873C14.4656 10.9935 14.4636 10.9998 14.4618 11.0063L13.9107 13.0323C13.9009 13.0628 13.9009 13.0897 13.9009 13.1022C13.9009 13.2451 14.0206 13.3334 14.1315 13.3334C14.2268 13.3334 14.3027 13.2714 14.3257 13.175L14.4189 12.8218H14.5423V12.3565V10.8831H14.5423Z" fill="#58595B"/>
<path d="M13.1774 10.8514H12.7095C12.592 10.8514 12.5 10.9477 12.5 11.0706V13.1112C12.5 13.2358 12.592 13.3334 12.7095 13.3334H13.1774C13.6049 13.3334 13.8602 13.039 13.8602 12.5458V11.6362C13.8602 11.1448 13.6049 10.8514 13.1774 10.8514ZM13.4253 12.5458C13.4253 12.7634 13.3512 12.8562 13.1774 12.8562H12.9349V11.3287H13.1774C13.3512 11.3287 13.4253 11.4207 13.4253 11.6362V12.5458Z" fill="#58595B"/>
<path d="M16.4413 10.8513C16.3632 10.8513 16.2957 10.9028 16.2564 10.9919L15.8838 11.8239L15.5135 10.9926C15.4592 10.8697 15.3741 10.8513 15.3283 10.8513C15.2199 10.8513 15.1029 10.9397 15.1029 11.0825C15.1029 11.1071 15.1067 11.1554 15.1319 11.2066L15.6659 12.3659V13.1081C15.6659 13.2344 15.7615 13.3333 15.8834 13.3333C16.0074 13.3333 16.1009 13.2365 16.1009 13.1081V12.3719L16.6412 11.2048C16.6428 11.2013 16.6444 11.1977 16.6457 11.194C16.659 11.1586 16.6667 11.1179 16.6667 11.0825C16.6666 10.9397 16.5497 10.8513 16.4413 10.8513Z" fill="#58595B"/>
</svg>
