<svg width="24" height="24" viewBox="0 0 24 24" fill="none" xmlns="http://www.w3.org/2000/svg">
<path d="M3.29297 9.02688V7.54047C3.29297 6.4848 4.14844 5.62891 5.20406 5.62891H6.26578V7.32813H8.38969V5.62891H15.6103V7.32813H17.7343V5.62891H18.796C19.8516 5.62891 20.7071 6.48484 20.7071 7.54047V18.1591C20.7071 19.2147 19.8516 20.0702 18.796 20.0702H5.20406C4.14844 20.0702 3.29297 19.2147 3.29297 18.1591V9.02688ZM19.0083 14.3148C19.0083 13.7402 18.5424 13.2743 17.9667 13.2743C17.4469 13.2743 17.1867 13.5344 16.9266 14.0547C16.6664 13.5344 16.4063 13.2743 15.8865 13.2743C15.3122 13.2743 14.8463 13.7402 14.8463 14.3148C14.8463 15.355 15.8865 15.947 16.9266 16.9877C17.9667 15.947 19.0083 15.355 19.0083 14.3148ZM14.7609 17.5221V16.6722H13.9116V17.5221H14.7609ZM14.7609 12.4249V11.5755H13.9116V12.4249H14.7609ZM13.0617 17.5221V16.6722H12.2123V17.5221H13.0617ZM13.0617 14.1241V13.2743H12.2123V14.1241H13.0617ZM13.0617 12.4249V11.5755H12.2123V12.4249H13.0617ZM11.363 17.5221V16.6722H10.5136V17.5221H11.363ZM11.363 15.8229V14.9735H10.5136V15.8229H11.363ZM11.363 14.1241V13.2743H10.5136V14.1241H11.363ZM11.363 12.4249V11.5755H10.5136V12.4249H11.363ZM9.66375 17.5221V16.6722H8.81437V17.5221H9.66375ZM9.66375 15.8229V14.9735H8.81437V15.8229H9.66375ZM9.66375 14.1241V13.2743H8.81437V14.1241H9.66375ZM9.66375 12.4249V11.5755H8.81437V12.4249H9.66375ZM7.965 17.5221V16.6722H7.11563V17.5221H7.965ZM7.965 15.8229V14.9735H7.11563V15.8229H7.965ZM7.965 14.1241V13.2743H7.11563V14.1241H7.965ZM7.965 12.4249V11.5755H7.11563V12.4249H7.965ZM6.26578 17.5221V16.6722H5.41641V17.5221H6.26578ZM6.26578 15.8229V14.9735H5.41641V15.8229H6.26578ZM6.26578 14.1241V13.2743H5.41641V14.1241H6.26578ZM6.26578 12.4249V11.5755H5.41641V12.4249H6.26578Z" fill="white"/>
<path d="M17.7343 5.62893V7.32814H15.6104V5.62893V3.93018H17.7343V5.62893Z" fill="#58595B"/>
<path d="M16.0322 6.12894V4.43019H17.7343V3.93018H15.6104V5.62893V7.32814H16.0322V6.12894Z" fill="#58595B"/>
<path d="M3.74611 18.5838V9.45161V7.9652C3.74611 6.90953 4.60158 6.05364 5.6572 6.05364H6.26578V5.62891H5.20406C4.14844 5.62891 3.29297 6.48484 3.29297 7.54047V9.02688V18.1591C3.29297 18.8216 3.63 19.4051 4.14197 19.7479C3.89391 19.4256 3.74611 19.0221 3.74611 18.5838Z" fill="#58595B"/>
<path d="M8.38978 5.62893V7.32814H6.26587V5.62893V3.93018H8.38978V5.62893Z" fill="#58595B"/>
<path d="M6.69056 6.12889V4.43019H8.38978V3.93018H6.26587V5.62893V7.32814H6.69056V6.12889Z" fill="#58595B"/>
<path d="M14.761 16.6724H13.9116V17.5223H14.761V16.6724Z" fill="#58595B"/>
<path d="M14.761 11.5757H13.9116V12.4251H14.761V11.5757Z" fill="#58595B"/>
<path d="M13.0618 16.6724H12.2124V17.5223H13.0618V16.6724Z" fill="#58595B"/>
<path d="M13.0618 13.2744H12.2124V14.1243H13.0618V13.2744Z" fill="#58595B"/>
<path d="M13.0618 11.5757H12.2124V12.4251H13.0618V11.5757Z" fill="#58595B"/>
<path d="M11.363 16.6724H10.5137V17.5223H11.363V16.6724Z" fill="#58595B"/>
<path d="M11.363 14.9736H10.5137V15.823H11.363V14.9736Z" fill="#58595B"/>
<path d="M11.363 13.2744H10.5137V14.1243H11.363V13.2744Z" fill="#58595B"/>
<path d="M11.363 11.5757H10.5137V12.4251H11.363V11.5757Z" fill="#58595B"/>
<path d="M9.66383 16.6724H8.81445V17.5223H9.66383V16.6724Z" fill="#58595B"/>
<path d="M9.66383 14.9736H8.81445V15.823H9.66383V14.9736Z" fill="#58595B"/>
<path d="M9.66383 13.2744H8.81445V14.1243H9.66383V13.2744Z" fill="#58595B"/>
<path d="M9.66383 11.5757H8.81445V12.4251H9.66383V11.5757Z" fill="#58595B"/>
<path d="M7.9651 16.6724H7.11572V17.5223H7.9651V16.6724Z" fill="#58595B"/>
<path d="M7.9651 14.9736H7.11572V15.823H7.9651V14.9736Z" fill="#58595B"/>
<path d="M7.9651 13.2744H7.11572V14.1243H7.9651V13.2744Z" fill="#58595B"/>
<path d="M7.9651 11.5757H7.11572V12.4251H7.9651V11.5757Z" fill="#58595B"/>
<path d="M6.26588 16.6724H5.4165V17.5223H6.26588V16.6724Z" fill="#58595B"/>
<path d="M6.26588 14.9736H5.4165V15.823H6.26588V14.9736Z" fill="#58595B"/>
<path d="M6.26588 13.2744H5.4165V14.1243H6.26588V13.2744Z" fill="#58595B"/>
<path d="M6.26588 11.5757H5.4165V12.4251H6.26588V11.5757Z" fill="#58595B"/>
<path d="M16.8816 9.26123H3.71484C3.58542 9.26123 3.48047 9.15628 3.48047 9.02686C3.48047 8.89739 3.58542 8.79248 3.71484 8.79248H16.8816C17.011 8.79248 17.1159 8.89739 17.1159 9.02686C17.1159 9.15628 17.011 9.26123 16.8816 9.26123Z" fill="#58595B"/>
<path d="M19.0055 9.26123H18.5808C18.4513 9.26123 18.3464 9.15628 18.3464 9.02686C18.3464 8.89739 18.4513 8.79248 18.5808 8.79248H19.0055C19.135 8.79248 19.2399 8.89739 19.2399 9.02686C19.2399 9.15628 19.135 9.26123 19.0055 9.26123Z" fill="#58595B"/>
<ellipse cx="17" cy="14.5" rx="3" ry="2.5" fill="white"/>
<path d="M17.4507 14.8277L17.6266 14.1702L17.8009 14.8277H17.4507V15.386H17.9486L18.0611 15.8126C18.0616 15.8145 18.0621 15.8165 18.0627 15.8184C18.0959 15.9304 18.1831 16 18.2901 16C18.4269 16 18.5733 15.8871 18.5733 15.7191C18.5733 15.6994 18.5707 15.683 18.5686 15.6724C18.5674 15.6633 18.5657 15.6544 18.5633 15.6456L17.9034 13.2077C17.903 13.2064 17.9027 13.2051 17.9023 13.2039C17.8661 13.08 17.7581 13 17.6272 13C17.6188 13 17.6106 13.0004 17.6025 13.001C17.6007 13.0012 17.5989 13.0014 17.5972 13.0016C17.5908 13.0023 17.5845 13.0029 17.5783 13.0039C17.5767 13.0042 17.5752 13.0046 17.5736 13.0049C17.5672 13.006 17.5609 13.0072 17.5547 13.0088C17.5537 13.009 17.5526 13.0094 17.5516 13.0097C17.5449 13.0114 17.5384 13.0133 17.5319 13.0155C17.5313 13.0157 17.5308 13.016 17.5302 13.0162C17.5233 13.0186 17.5166 13.0211 17.51 13.024C17.5098 13.0241 17.5096 13.0242 17.5094 13.0243C17.4883 13.0336 17.4686 13.0455 17.4507 13.0596V14.8278L17.4507 14.8277Z" fill="#58595B"/>
<path d="M17.4509 13.0596C17.4338 13.073 17.4184 13.0885 17.4048 13.1059C17.4047 13.1061 17.4045 13.1063 17.4044 13.1064C17.4001 13.112 17.3959 13.1178 17.392 13.1237C17.3914 13.1246 17.3909 13.1255 17.3904 13.1263C17.3869 13.1317 17.3835 13.1372 17.3805 13.1428C17.3795 13.1446 17.3786 13.1465 17.3777 13.1483C17.3751 13.1532 17.3726 13.1581 17.3703 13.1632C17.3687 13.1666 17.3674 13.1703 17.3659 13.1738C17.3644 13.1774 17.3629 13.181 17.3615 13.1847C17.3589 13.1921 17.3564 13.1997 17.3543 13.2074L16.693 15.6387C16.6812 15.6752 16.6812 15.7075 16.6812 15.7226C16.6812 15.894 16.8248 16 16.9579 16C17.0723 16 17.1633 15.9256 17.1909 15.8099L17.3028 15.3861H17.4509V14.8277V13.0596H17.4509Z" fill="#58595B"/>
<path d="M15.8129 13.0215H15.2514C15.1104 13.0215 15 13.137 15 13.2844V15.7332C15 15.8827 15.1104 15.9998 15.2514 15.9998H15.8129C16.3259 15.9998 16.6322 15.6465 16.6322 15.0547V13.9632C16.6322 13.3735 16.3259 13.0215 15.8129 13.0215ZM16.1104 15.0547C16.1104 15.3158 16.0214 15.4272 15.8129 15.4272H15.5219V13.5942H15.8129C16.0214 13.5942 16.1104 13.7045 16.1104 13.9632V15.0547Z" fill="#58595B"/>
<path d="M19.7296 13.0215C19.6359 13.0215 19.5549 13.0833 19.5077 13.1902L19.0606 14.1886L18.6163 13.191C18.5511 13.0435 18.449 13.0215 18.394 13.0215C18.2639 13.0215 18.1235 13.1276 18.1235 13.2989C18.1235 13.3284 18.1281 13.3864 18.1583 13.4479L18.7992 14.839V15.7296C18.7992 15.8812 18.9138 15.9999 19.0602 15.9999C19.209 15.9999 19.3212 15.8837 19.3212 15.7296V14.8461L19.9695 13.4456C19.9714 13.4414 19.9733 13.4371 19.9749 13.4327C19.9909 13.3902 20 13.3414 20 13.2989C20 13.1276 19.8596 13.0215 19.7296 13.0215Z" fill="#58595B"/>
</svg>
