<svg width="16" height="16" viewBox="0 0 16 16" fill="none" xmlns="http://www.w3.org/2000/svg">
<g clip-path="url(#clip0_35_86)">
<path d="M8.00004 0C12.4185 0 16 3.58157 16 8C16 12.4184 12.4185 16 8.00004 16L5.91309 8L8.00004 0Z" fill="#F58220"/>
<path d="M8 16C3.58157 16 0 12.4184 0 8C0 3.58157 3.58157 0 8 0V16Z" fill="#F58220"/>
<path d="M7.99997 14.6087L7.30432 7.65216L14.6087 7.99999C14.6087 11.6442 11.6441 14.6087 7.99997 14.6087Z" fill="white"/>
<path d="M7.99997 1.3913C11.6441 1.3913 14.6087 4.35582 14.6087 7.99999H7.30432L7.99997 1.3913Z" fill="white"/>
<path d="M8.00005 8.00002V14.6087C4.35588 14.6087 1.39136 11.6442 1.39136 8.00002L4.69571 6.95654L8.00005 8.00002Z" fill="white"/>
<path d="M8.00005 1.3913V7.99999H1.39136C1.39136 4.35582 4.35588 1.3913 8.00005 1.3913Z" fill="white"/>
<path d="M5.2873 4.34478L6.19092 3.82306L5.6692 2.91944L4.76557 3.44116L5.2873 4.34478Z" fill="#58595B"/>
<path d="M3.82313 6.19104L4.34485 5.28741L3.44123 4.76569L2.91951 5.66932L3.82313 6.19104Z" fill="#58595B"/>
<path d="M4.34484 10.7126L3.82312 9.80896L2.9195 10.3307L3.44122 11.2343L4.34484 10.7126Z" fill="#58595B"/>
<path d="M6.1911 12.1769L5.28748 11.6552L4.76575 12.5588L5.66938 13.0805L6.1911 12.1769Z" fill="#58595B"/>
<path d="M10.7126 11.6553L9.80896 12.177L10.3307 13.0806L11.2343 12.5589L10.7126 11.6553Z" fill="#58595B"/>
<path d="M12.1768 9.8089L11.655 10.7125L12.5587 11.2342L13.0804 10.3306L12.1768 9.8089Z" fill="#58595B"/>
<path d="M11.591 3.69586L8.02478 7.26216V8.73784L12.3289 4.43374L11.591 3.69586Z" fill="#F58220"/>
<path d="M6.30303 5.54047L5.56519 6.27831L8.0247 8.73782V7.26214L6.30303 5.54047Z" fill="#F58220"/>
<path d="M8.52174 12.5217H8V13.5652H8.52174V12.5217Z" fill="#58595B"/>
<path d="M8.52174 2.43475H8V3.47823H8.52174V2.43475Z" fill="#58595B"/>
<path d="M8.00001 12.5217H7.47827V13.5652H8.00001V12.5217Z" fill="#58595B"/>
<path d="M8.00001 2.43475H7.47827V3.47823H8.00001V2.43475Z" fill="#58595B"/>
<path d="M13.5652 8H12.5217V8.52174H13.5652V8Z" fill="#58595B"/>
<path d="M13.5652 7.47827H12.5217V8.00001H13.5652V7.47827Z" fill="#58595B"/>
<path d="M3.47829 8H2.43481V8.52174H3.47829V8Z" fill="#58595B"/>
<path d="M3.47829 7.47827H2.43481V8.00001H3.47829V7.47827Z" fill="#58595B"/>
</g>
<defs>
<clipPath id="clip0_35_86">
<rect width="16" height="16" fill="white"/>
</clipPath>
</defs>
</svg>
