<svg width="32" height="32" viewBox="0 0 32 32" fill="none" xmlns="http://www.w3.org/2000/svg">
<path d="M2.6665 23.3333H9.33317" stroke="#58595B" stroke-width="1.75" stroke-miterlimit="10" stroke-linecap="round" stroke-linejoin="round"/>
<path d="M29.3332 8.66663H22.6665" stroke="#58595B" stroke-width="1.75" stroke-miterlimit="10" stroke-linecap="round" stroke-linejoin="round"/>
<path d="M17.333 23.3333H29.333" stroke="#58595B" stroke-width="1.75" stroke-miterlimit="10" stroke-linecap="round" stroke-linejoin="round"/>
<path d="M14.6665 8.66663H2.6665" stroke="#58595B" stroke-width="1.75" stroke-miterlimit="10" stroke-linecap="round" stroke-linejoin="round"/>
<path d="M9.33301 20.6666C9.33301 19.9302 9.92997 19.3333 10.6663 19.3333H15.9997C16.7361 19.3333 17.333 19.9302 17.333 20.6666V25.9999C17.333 26.7363 16.7361 27.3333 15.9997 27.3333H10.6663C9.92997 27.3333 9.33301 26.7363 9.33301 25.9999V20.6666Z" stroke="#58595B" stroke-width="1.75"/>
<path d="M22.6665 5.99996C22.6665 5.26359 22.0696 4.66663 21.3332 4.66663H15.9998C15.2634 4.66663 14.6665 5.26359 14.6665 5.99996V11.3333C14.6665 12.0697 15.2634 12.6666 15.9998 12.6666H21.3332C22.0696 12.6666 22.6665 12.0697 22.6665 11.3333V5.99996Z" stroke="#58595B" stroke-width="1.75"/>
</svg>
