<svg width="80" height="80" viewBox="0 0 80 80" fill="none" xmlns="http://www.w3.org/2000/svg">
<g clip-path="url(#clip0_460_29)">
<path d="M0 60C0 62.3575 0.936505 64.6184 2.6035 66.2854C4.27049 67.9524 6.53141 68.8889 8.88889 68.8889H71.1111C73.4686 68.8889 75.7295 67.9524 77.3965 66.2854C79.0635 64.6184 80 62.3575 80 60V51.1111H0V60Z" fill="#FFCD05"/>
<path d="M0 31.1111H80V51.1111H0V31.1111Z" fill="#ED1F24"/>
<path d="M71.1111 11.1111H8.88889C6.53141 11.1111 4.27049 12.0476 2.6035 13.7146C0.936505 15.3816 0 17.6425 0 20L0 31.1111H80V20C80 17.6425 79.0635 15.3816 77.3965 13.7146C75.7295 12.0476 73.4686 11.1111 71.1111 11.1111Z" fill="#141414"/>
</g>
<defs>
<clipPath id="clip0_460_29">
<rect width="80" height="80" fill="white"/>
</clipPath>
</defs>
</svg>
