<svg width="81" height="81" viewBox="0 0 81 81" fill="none" xmlns="http://www.w3.org/2000/svg">
<g clip-path="url(#clip0_480_2)">
<path d="M80.9048 60.3799C80.9048 62.7374 79.9683 64.9983 78.3013 66.6653C76.6343 68.3323 74.3734 69.2688 72.0159 69.2688H9.79367C7.43619 69.2688 5.17527 68.3323 3.50828 66.6653C1.84129 64.9983 0.904785 62.7374 0.904785 60.3799V20.3799C0.904785 18.0224 1.84129 15.7615 3.50828 14.0945C5.17527 12.4275 7.43619 11.491 9.79367 11.491H72.0159C74.3734 11.491 76.6343 12.4275 78.3013 14.0945C79.9683 15.7615 80.9048 18.0224 80.9048 20.3799V60.3799Z" fill="#006600"/>
<path d="M72.0161 11.491H34.2383V69.2688H72.0161C74.3735 69.2688 76.6345 68.3323 78.3015 66.6653C79.9684 64.9983 80.905 62.7374 80.905 60.3799V20.3799C80.905 18.0224 79.9684 15.7615 78.3015 14.0945C76.6345 12.4275 74.3735 11.491 72.0161 11.491Z" fill="#D52B1E"/>
<path d="M34.2382 22.6021C29.5233 22.6021 25.0014 24.4751 21.6674 27.8091C18.3335 31.1431 16.4604 35.6649 16.4604 40.3799C16.4604 45.0948 18.3335 49.6167 21.6674 52.9507C25.0014 56.2847 29.5233 58.1577 34.2382 58.1577C38.9532 58.1577 43.475 56.2847 46.809 52.9507C50.143 49.6167 52.016 45.0948 52.016 40.3799C52.016 35.6649 50.143 31.1431 46.809 27.8091C43.475 24.4751 38.9532 22.6021 34.2382 22.6021ZM20.6538 32.811L24.2138 36.371L18.7471 39.1043C18.9235 36.894 19.5738 34.7476 20.6538 32.811ZM18.7471 41.6532L28.5249 46.5577L22.5116 50.5666L22.5427 50.6132C20.3469 48.1124 19.0158 44.9703 18.7471 41.6532ZM32.016 55.7577C29.9789 55.467 28.0205 54.7719 26.256 53.7132H32.016V55.7577ZM32.016 51.491H25.1293L32.016 46.8999V51.491ZM32.016 44.2288L30.6671 45.1288L21.1671 40.3799L25.8693 38.0288L32.016 44.1732V44.2288ZM32.016 41.031L24.1427 33.1577L32.016 34.4688V41.031ZM32.016 32.1599L22.1671 30.5754C24.6315 27.5442 28.1485 25.5539 32.016 25.0021V32.1599ZM47.8227 32.811C48.9029 34.7483 49.5532 36.8955 49.7293 39.1066L44.2627 36.3732L47.8227 32.811ZM36.4604 25.0021C40.3276 25.5548 43.8444 27.5448 46.3093 30.5754L36.4604 32.1599V25.0021ZM36.4604 34.4688L44.3338 33.1554L36.4604 41.031V34.4688ZM36.4604 44.1732L42.6049 38.0288L47.3093 40.3799L37.8116 45.1288L36.4604 44.2288V44.1732ZM36.4604 55.7577V53.7132H42.2204C40.4559 54.7719 38.4975 55.467 36.4604 55.7577ZM36.4604 51.491V46.8999L43.3471 51.491H36.4604ZM45.936 50.6132L45.9671 50.5666L39.9538 46.5577L49.7316 41.6532C49.4608 44.9698 48.1301 48.1113 45.936 50.6132Z" fill="#FFCC4D"/>
<path d="M25.3491 29.2688V44.8243C25.3491 47.1818 26.2856 49.4427 27.9526 51.1097C29.6196 52.7767 31.8805 53.7132 34.238 53.7132C36.5955 53.7132 38.8564 52.7767 40.5234 51.1097C42.1904 49.4427 43.1269 47.1818 43.1269 44.8243V29.2688H25.3491Z" fill="#D52B1E"/>
<path d="M27.5713 31.491V44.8243C27.5713 46.5924 28.2737 48.2881 29.5239 49.5384C30.7742 50.7886 32.4698 51.491 34.238 51.491C36.0061 51.491 37.7018 50.7886 38.952 49.5384C40.2022 48.2881 40.9046 46.5924 40.9046 44.8243V31.491H27.5713Z" fill="white"/>
<path d="M29.7935 38.1577H38.6823V42.6021H29.7935V38.1577Z" fill="#829ACD"/>
<path d="M32.0161 35.9354H36.4606V44.8243H32.0161V35.9354Z" fill="#829ACD"/>
<path d="M27.5713 38.1577H29.7935V42.6021H27.5713V38.1577ZM32.0157 38.1577H36.4602V42.6021H32.0157V38.1577ZM38.6824 38.1577H40.9046V42.6021H38.6824V38.1577ZM32.0157 44.8243H36.4602V49.2688H32.0157V44.8243ZM32.0157 31.491H36.4602V35.9354H32.0157V31.491Z" fill="#003399"/>
</g>
<defs>
<clipPath id="clip0_480_2">
<rect width="80" height="80" fill="white" transform="translate(0.904785 0.379883)"/>
</clipPath>
</defs>
</svg>
