<svg width="80" height="80" viewBox="0 0 80 80" fill="none" xmlns="http://www.w3.org/2000/svg">
<g clip-path="url(#clip0_475_2)">
<path d="M80.0002 60C80.0002 62.3574 79.0637 64.6184 77.3967 66.2854C75.7297 67.9524 73.4688 68.8889 71.1113 68.8889H53.3335V11.1111H71.1113C73.4688 11.1111 75.7297 12.0476 77.3967 13.7146C79.0637 15.3816 80.0002 17.6425 80.0002 20V60Z" fill="#ED2939"/>
<path d="M8.88889 11.1111C6.53141 11.1111 4.27049 12.0476 2.6035 13.7146C0.936505 15.3816 0 17.6425 0 20L0 60C0 62.3574 0.936505 64.6184 2.6035 66.2854C4.27049 67.9524 6.53141 68.8889 8.88889 68.8889H26.6667V11.1111H8.88889Z" fill="#002495"/>
<path d="M26.6665 11.1111H53.3332V68.8889H26.6665V11.1111Z" fill="#EEEEEE"/>
</g>
<defs>
<clipPath id="clip0_475_2">
<rect width="80" height="80" fill="white"/>
</clipPath>
</defs>
</svg>
