<svg width="20" height="20" viewBox="0 0 20 20" fill="none" xmlns="http://www.w3.org/2000/svg">
<g clip-path="url(#clip0_16_520)">
<path fill-rule="evenodd" clip-rule="evenodd" d="M4.30305 9.99989C4.30305 9.36478 4.40853 8.75589 4.5968 8.18478L1.30145 5.66833C0.65921 6.97234 0.297363 8.44167 0.297363 9.99989C0.297363 11.5568 0.658765 13.0252 1.30012 14.3283L4.59368 11.807C4.40719 11.2386 4.30305 10.6319 4.30305 9.99989Z" fill="#FBBC05"/>
<path fill-rule="evenodd" clip-rule="evenodd" d="M10.089 4.22217C11.4688 4.22217 12.715 4.71106 13.6941 5.51106L16.5426 2.66661C14.8068 1.1555 12.5815 0.222168 10.089 0.222168C6.21954 0.222168 2.89393 2.43506 1.30145 5.66839L4.59679 8.18484C5.35609 5.87995 7.5205 4.22217 10.089 4.22217Z" fill="#EB4335"/>
<path fill-rule="evenodd" clip-rule="evenodd" d="M10.089 15.7777C7.5205 15.7777 5.35609 14.12 4.59679 11.8151L1.30145 14.3311C2.89393 17.5648 6.21954 19.7777 10.089 19.7777C12.4773 19.7777 14.7574 18.9297 16.4687 17.3408L13.3408 14.9226C12.4582 15.4786 11.3468 15.7777 10.089 15.7777Z" fill="#34A853"/>
<path fill-rule="evenodd" clip-rule="evenodd" d="M19.4356 9.99995C19.4356 9.42217 19.3466 8.79995 19.2131 8.22217H10.0891V11.9999H15.3409C15.0783 13.2879 14.3636 14.2782 13.3408 14.9226L16.4688 17.3408C18.2664 15.6724 19.4356 13.1871 19.4356 9.99995Z" fill="#4285F4"/>
</g>
<defs>
<clipPath id="clip0_16_520">
<rect width="20" height="20" fill="white"/>
</clipPath>
</defs>
</svg>
