<svg width="36" height="36" viewBox="0 0 36 36" fill="none" xmlns="http://www.w3.org/2000/svg">
<path d="M28.5 13.5V25.5C28.5 28.3284 28.5 29.7426 27.6213 30.6213C26.7426 31.5 25.3284 31.5 22.5 31.5H21H15H13.5C10.6716 31.5 9.25736 31.5 8.37869 30.6213C7.5 29.7426 7.5 28.3284 7.5 25.5V13.5" stroke="#F58220" stroke-width="2" stroke-linejoin="round"/>
<path d="M4.5 16.5L11.25 10.5L16.0069 6.27168C17.1435 5.26133 18.8565 5.26133 19.9931 6.27168L24.75 10.5L31.5 16.5" stroke="#F58220" stroke-width="2" stroke-linecap="round" stroke-linejoin="round"/>
<path d="M15 31.5V25.5C15 23.8431 16.3431 22.5 18 22.5C19.6569 22.5 21 23.8431 21 25.5V31.5" stroke="#F58220" stroke-width="2" stroke-linecap="round" stroke-linejoin="round"/>
</svg>
