<svg width="20" height="20" viewBox="0 0 20 20" fill="none" xmlns="http://www.w3.org/2000/svg">
<g clip-path="url(#clip0_306_232)">
<path d="M9.99967 19.1667C15.0623 19.1667 19.1663 15.0627 19.1663 10C19.1663 4.93743 15.0623 0.833374 9.99967 0.833374M9.99967 19.1667C4.93706 19.1667 0.833008 15.0627 0.833008 10C0.833008 4.93743 4.93706 0.833374 9.99967 0.833374M9.99967 19.1667C12.4997 19.1667 13.333 15 13.333 10C13.333 5.00004 12.4997 0.833374 9.99967 0.833374M9.99967 19.1667C7.49967 19.1667 6.66634 15 6.66634 10C6.66634 5.00004 7.49967 0.833374 9.99967 0.833374M1.66634 13.3334H18.333M1.66634 6.66671H18.333" stroke="#F58220" stroke-width="1.5"/>
</g>
<defs>
<clipPath id="clip0_306_232">
<rect width="20" height="20" fill="white"/>
</clipPath>
</defs>
</svg>
