<svg width="12" height="12" viewBox="0 0 12 12" fill="none" xmlns="http://www.w3.org/2000/svg">
<path d="M6 0C3.51469 0 1.5 2.01469 1.5 4.5C1.5 5.56462 1.96912 6.50081 2.48831 7.3125L5.694 11.8417C5.76431 11.9411 5.8785 12 6 12C6.1215 12 6.23569 11.9411 6.306 11.8417L9.51169 7.3125C10.0078 6.64463 10.5 5.56462 10.5 4.5C10.5 2.01469 8.48531 0 6 0ZM9.01631 7.3125H9.01444L6 11.4375L2.98556 7.3125H2.98369C2.52544 6.65044 1.875 5.58731 1.875 4.5C1.875 2.22188 3.72188 0.375 6 0.375C8.27812 0.375 10.125 2.22188 10.125 4.5C10.125 5.58731 9.42769 6.70894 9.01631 7.3125Z" fill="#58595B"/>
<path d="M6 2.625C4.96444 2.625 4.125 3.46463 4.125 4.5C4.125 5.53537 4.96444 6.375 6 6.375C7.03556 6.375 7.875 5.53537 7.875 4.5C7.875 3.46463 7.03556 2.625 6 2.625ZM6 6C5.17162 6 4.5 5.32838 4.5 4.5C4.5 3.67162 5.17162 3 6 3C6.82838 3 7.5 3.67162 7.5 4.5C7.5 5.32838 6.82838 6 6 6Z" fill="#58595B"/>
<path d="M6 1.875C4.55025 1.875 3.375 3.05025 3.375 4.5C3.375 5.94975 4.55025 7.125 6 7.125C7.44975 7.125 8.625 5.94975 8.625 4.5C8.625 3.05025 7.44975 1.875 6 1.875ZM6 6.75C4.75744 6.75 3.75 5.74256 3.75 4.5C3.75 3.25744 4.75744 2.25 6 2.25C7.24256 2.25 8.25 3.25744 8.25 4.5C8.25 5.74256 7.24256 6.75 6 6.75Z" fill="#58595B"/>
<path d="M6 2.25C4.75744 2.25 3.75 3.25744 3.75 4.5C3.75 5.74256 4.75744 6.75 6 6.75C7.24256 6.75 8.25 5.74256 8.25 4.5C8.25 3.25744 7.24256 2.25 6 2.25ZM6 6.375C4.96463 6.375 4.125 5.53556 4.125 4.5C4.125 3.46444 4.96463 2.625 6 2.625C7.03537 2.625 7.875 3.46444 7.875 4.5C7.875 5.53556 7.03537 6.375 6 6.375Z" fill="#58595B" fill-opacity="0.6"/>
<path d="M6 0.375C3.72188 0.375 1.875 2.22188 1.875 4.5C1.875 5.58731 2.52544 6.65044 2.98369 7.3125H2.98556L6 11.4375L9.01444 7.3125H9.01631C9.42769 6.70894 10.125 5.58731 10.125 4.5C10.125 2.22188 8.27812 0.375 6 0.375ZM6 7.125C4.55025 7.125 3.375 5.94975 3.375 4.5C3.375 3.05025 4.55025 1.875 6 1.875C7.44975 1.875 8.625 3.05025 8.625 4.5C8.625 5.94975 7.44975 7.125 6 7.125Z" fill="#58595B" fill-opacity="0.6"/>
<path opacity="0.2" d="M6 2.25C4.75744 2.25 3.75 3.25744 3.75 4.5C3.75 5.74256 4.75744 6.75 6 6.75C7.24256 6.75 8.25 5.74256 8.25 4.5C8.25 3.25744 7.24256 2.25 6 2.25ZM6 6.375C4.96463 6.375 4.125 5.53556 4.125 4.5C4.125 3.46444 4.96463 2.625 6 2.625C7.03537 2.625 7.875 3.46444 7.875 4.5C7.875 5.53556 7.03537 6.375 6 6.375Z" fill="#58595B"/>
</svg>
