<svg width="20" height="20" viewBox="0 0 20 20" fill="none" xmlns="http://www.w3.org/2000/svg">
<path d="M15.5068 19.8571H4.49251C3.76694 19.8556 3.07153 19.5667 2.55853 19.0536C2.04552 18.5405 1.75673 17.845 1.75537 17.1194V8.92228C1.75673 8.19671 2.04552 7.50124 2.55853 6.98813C3.07153 6.47502 3.76694 6.18608 4.49251 6.18457H15.5068C16.2325 6.18593 16.928 6.4748 17.4412 6.98793C17.9543 7.50106 18.2432 8.19662 18.2445 8.92228V17.1194C18.2432 17.8451 17.9543 18.5407 17.4412 19.0538C16.928 19.5669 16.2325 19.8558 15.5068 19.8571ZM4.49251 7.61314C4.14545 7.61344 3.8127 7.75149 3.56735 7.99695C3.32199 8.24241 3.18409 8.57522 3.18394 8.92228V17.1194C3.18409 17.4665 3.32199 17.7993 3.56735 18.0448C3.8127 18.2902 4.14545 18.4283 4.49251 18.4286H15.5068C15.8539 18.4283 16.1867 18.2902 16.4322 18.0448C16.6776 17.7993 16.8156 17.4665 16.8159 17.1194V8.92228C16.8156 8.57517 16.6776 8.24236 16.4322 7.99691C16.1867 7.75147 15.8539 7.61344 15.5068 7.61314H4.49251Z" fill="#F58220"/>
<path d="M14.5926 7.61319C14.4031 7.61319 14.2214 7.53793 14.0875 7.40398C13.9535 7.27002 13.8783 7.08834 13.8783 6.8989V4.9189C13.873 4.47338 13.7714 4.03427 13.5806 3.63166C13.3897 3.22905 13.1141 2.87246 12.7726 2.58633C12.0043 1.91917 11.0174 1.55794 9.99998 1.57147C7.86055 1.57147 6.11998 3.07319 6.11998 4.9189V6.8989C6.11998 7.08834 6.04472 7.27002 5.91077 7.40398C5.77681 7.53793 5.59513 7.61319 5.40569 7.61319C5.21625 7.61319 5.03457 7.53793 4.90062 7.40398C4.76666 7.27002 4.69141 7.08834 4.69141 6.8989V4.9189C4.68969 2.28576 7.07141 0.142901 9.99998 0.142901C11.3664 0.128202 12.6906 0.616296 13.7206 1.51433C14.2149 1.93357 14.6127 2.45471 14.8868 3.04205C15.1609 3.6294 15.3047 4.26905 15.3086 4.91719V6.89719C15.3088 6.99128 15.2904 7.08448 15.2545 7.17146C15.2186 7.25843 15.1659 7.33745 15.0993 7.40398C15.0328 7.47051 14.9538 7.52324 14.8668 7.55914C14.7798 7.59505 14.6866 7.61341 14.5926 7.61319Z" fill="#F58220"/>
<path d="M10.0001 14.7309C9.81061 14.7309 9.62893 14.6556 9.49498 14.5217C9.36102 14.3877 9.28577 14.206 9.28577 14.0166V12.1143C9.28577 11.9249 9.36102 11.7432 9.49498 11.6092C9.62893 11.4753 9.81061 11.4 10.0001 11.4C10.1895 11.4 10.3712 11.4753 10.5051 11.6092C10.6391 11.7432 10.7143 11.9249 10.7143 12.1143V14.0195C10.7136 14.2084 10.638 14.3893 10.5041 14.5227C10.3702 14.656 10.189 14.7309 10.0001 14.7309Z" fill="#F58220"/>
</svg>
