<svg width="20" height="20" viewBox="0 0 20 20" fill="none" xmlns="http://www.w3.org/2000/svg">
<path d="M18.0435 2.82605H1.95652C0.829531 2.82605 0 3.75417 0 4.78257V15.2173C0 16.2962 0.877695 17.1739 1.95652 17.1739H18.0435C19.1223 17.1739 20 16.2962 20 15.2173V4.78257C20 3.73753 19.1557 2.82605 18.0435 2.82605ZM1.95652 4.13039H18.0435C18.1902 4.13039 18.3396 4.18437 18.4548 4.27937L10.4606 12.2736C10.2066 12.5275 9.79332 12.5275 9.53941 12.2736L1.54523 4.27941C1.65949 4.18527 1.80852 4.13039 1.95652 4.13039ZM18.6957 15.2173C18.6957 15.5769 18.4031 15.8695 18.0435 15.8695H1.95652C1.59691 15.8695 1.30434 15.5769 1.30434 15.2173V5.88312L8.61707 13.1959C9.37961 13.9583 10.6203 13.9584 11.3829 13.1959L18.6956 5.88312V15.2173H18.6957Z" fill="#F58220"/>
</svg>
