<svg width="18" height="18" viewBox="0 0 18 18" fill="none" xmlns="http://www.w3.org/2000/svg">
<path d="M7.17598 3.436C6.09998 3.072 5.37598 1.142 5.37598 0.369995C5.37598 0.369995 6.16198 1.534 7.92398 0.693995L9.63598 0.923995L12.636 0.369995C12.636 1.142 11.91 3.072 10.836 3.436H7.17598Z" fill="#F58220"/>
<path d="M10.824 3.43396C13.478 4.97596 15.424 9.52996 15.424 12.258C15.416 15.582 12.544 17.64 8.99998 17.64C5.45598 17.64 2.58398 15.582 2.58398 12.258C2.58398 9.52996 4.52198 4.97596 7.18398 3.43396" fill="#F58220" fill-opacity="0.3"/>
<path d="M8.71647 13.0339C8.06402 12.9994 7.44666 12.7277 6.98047 12.2699L7.54647 11.4699C7.85903 11.8001 8.26902 12.0215 8.71647 12.1019V10.9439C7.95847 10.7439 7.13447 10.4739 7.13447 9.47194C7.13447 8.72794 7.72247 8.09594 8.71647 7.99194V7.30994H9.41647V7.99994C9.97172 8.05207 10.4955 8.28135 10.9105 8.65394L10.3285 9.41994C10.0697 9.18619 9.75594 9.02175 9.41647 8.94194V9.97994C10.1745 10.1799 11.0165 10.4659 11.0165 11.4659C11.0165 12.2819 10.4865 12.9079 9.41647 13.0179V13.6879H8.71647V13.0339ZM8.71647 9.80394V8.90594C8.38447 8.94994 8.20247 9.13394 8.20247 9.38394C8.20047 9.59994 8.40047 9.71594 8.71647 9.79994V9.80394ZM9.41647 11.1219V12.1079C9.77647 12.0339 9.96047 11.8219 9.96047 11.5939C9.96047 11.3659 9.73247 11.2239 9.41647 11.1219Z" fill="#58595B"/>
<path d="M8.99963 18C5.07363 18 2.22363 15.586 2.22363 12.26C2.22363 9.50401 4.05163 5.26001 6.48963 3.46001C5.52563 2.69401 5.01363 1.03801 5.01363 0.37201C5.01341 0.299804 5.03491 0.2292 5.07533 0.169368C5.11575 0.109537 5.17323 0.0632433 5.2403 0.0365009C5.30737 0.00975861 5.38094 0.00380342 5.45144 0.0194089C5.52194 0.0350144 5.58611 0.0714594 5.63563 0.12401C5.64763 0.13601 6.79163 1.32401 8.15763 1.32401C8.20491 1.32401 8.25172 1.33332 8.2954 1.35141C8.33908 1.3695 8.37876 1.39602 8.41219 1.42945C8.44562 1.46288 8.47214 1.50257 8.49023 1.54624C8.50832 1.58992 8.51763 1.63673 8.51763 1.68401C8.51763 1.73129 8.50832 1.7781 8.49023 1.82178C8.47214 1.86545 8.44562 1.90514 8.41219 1.93857C8.37876 1.972 8.33908 1.99851 8.2954 2.01661C8.25172 2.0347 8.20491 2.04401 8.15763 2.04401C7.35982 2.01873 6.58707 1.75929 5.93563 1.29801C6.19763 2.03801 6.68963 2.89801 7.28963 3.09801C7.35509 3.12015 7.41278 3.16066 7.45584 3.2147C7.49889 3.26874 7.52549 3.33403 7.53245 3.40277C7.53941 3.47151 7.52643 3.54081 7.49508 3.60238C7.46373 3.66395 7.41532 3.7152 7.35563 3.75001C4.91163 5.16801 2.94363 9.56601 2.94363 12.26C2.94363 15.216 5.43363 17.28 8.99963 17.28C12.5656 17.28 15.0556 15.216 15.0556 12.26C15.0556 9.56601 13.0876 5.16801 10.6436 3.74801C10.5839 3.7132 10.5355 3.66195 10.5042 3.60038C10.4728 3.53881 10.4599 3.46951 10.4668 3.40077C10.4738 3.33203 10.5004 3.26674 10.5434 3.2127C10.5865 3.15866 10.6442 3.11815 10.7096 3.09601C11.5996 2.80001 12.2656 1.02601 12.2656 0.37001C12.2656 0.274532 12.3036 0.182964 12.3711 0.115451C12.4386 0.0479382 12.5302 0.0100098 12.6256 0.0100098C12.7211 0.0100098 12.8127 0.0479382 12.8802 0.115451C12.9477 0.182964 12.9856 0.274532 12.9856 0.37001C12.9856 1.03601 12.4716 2.69201 11.5096 3.45801C13.9476 5.26801 15.7756 9.50401 15.7756 12.258C15.7756 15.586 12.9256 18 8.99963 18Z" fill="#58595B"/>
<path d="M9.85977 2.35597C9.78256 2.35583 9.70744 2.33087 9.6455 2.28477C9.58356 2.23868 9.53808 2.17389 9.51577 2.09997C9.36577 1.59997 9.08977 0.97997 8.63577 0.87397C8.12577 0.75597 7.48577 1.29797 7.30177 1.49597C7.26921 1.53077 7.2301 1.55881 7.1867 1.5785C7.14329 1.59819 7.09643 1.60914 7.04879 1.61072C7.00116 1.61229 6.95368 1.60447 6.90906 1.5877C6.86445 1.57093 6.82357 1.54554 6.78877 1.51297C6.75397 1.4804 6.72593 1.4413 6.70624 1.39789C6.68655 1.35449 6.67561 1.30763 6.67403 1.25999C6.67245 1.21235 6.68027 1.16487 6.69704 1.12026C6.71381 1.07564 6.73921 1.03477 6.77177 0.99997C6.81177 0.95597 7.77177 -0.0740305 8.79777 0.16597C9.43177 0.31197 9.90577 0.89197 10.1978 1.88597C10.2113 1.93128 10.2158 1.9788 10.2109 2.02584C10.2061 2.07287 10.192 2.1185 10.1696 2.1601C10.1471 2.2017 10.1167 2.23847 10.08 2.2683C10.0433 2.29813 10.0011 2.32045 9.95577 2.33397C9.9249 2.34557 9.89261 2.35297 9.85977 2.35597Z" fill="#58595B"/>
<path d="M9.81175 1.59994C9.76795 1.60007 9.72452 1.59193 9.68375 1.57594C9.59732 1.5439 9.5269 1.47924 9.48764 1.39584C9.44837 1.31245 9.44338 1.21698 9.47375 1.12994C9.51775 0.999944 9.98575 -0.118056 12.6417 0.00994363C12.7369 0.0146079 12.8263 0.0568014 12.8904 0.127279C12.9545 0.197757 12.9881 0.290772 12.9837 0.385944C12.9812 0.433769 12.9692 0.48062 12.9485 0.523811C12.9278 0.567003 12.8988 0.605686 12.8631 0.637643C12.8275 0.669599 12.7858 0.694202 12.7406 0.710041C12.6954 0.72588 12.6476 0.732643 12.5997 0.729944C10.4957 0.625944 10.1417 1.37794 10.1397 1.38594C10.1104 1.44859 10.0641 1.5018 10.0062 1.5396C9.94825 1.57741 9.88091 1.5983 9.81175 1.59994Z" fill="#58595B"/>
<path d="M11.2538 3.81998H7.32582C7.23034 3.81998 7.13877 3.78205 7.07126 3.71453C7.00375 3.64702 6.96582 3.55545 6.96582 3.45998C6.96582 3.3645 7.00375 3.27293 7.07126 3.20542C7.13877 3.1379 7.23034 3.09998 7.32582 3.09998H11.2538C11.3493 3.09998 11.4409 3.1379 11.5084 3.20542C11.5759 3.27293 11.6138 3.3645 11.6138 3.45998C11.6138 3.55545 11.5759 3.64702 11.5084 3.71453C11.4409 3.78205 11.3493 3.81998 11.2538 3.81998Z" fill="#58595B"/>
<path d="M13.9397 5.33597C13.8575 5.336 13.7776 5.30782 13.7136 5.25615C13.6495 5.20447 13.6051 5.13241 13.5877 5.05197C13.3497 3.96197 11.3017 4.09397 11.2817 4.09597C11.1865 4.10366 11.0922 4.07321 11.0194 4.01133C10.9466 3.94944 10.9014 3.86118 10.8937 3.76597C10.8861 3.67076 10.9165 3.57639 10.9784 3.50362C11.0403 3.43086 11.1285 3.38566 11.2237 3.37797C11.3317 3.37797 13.9157 3.17797 14.2917 4.89797C14.312 4.99105 14.2945 5.08835 14.2432 5.16857C14.1918 5.24879 14.1107 5.30539 14.0177 5.32597C13.9922 5.33209 13.966 5.33545 13.9397 5.33597Z" fill="#58595B"/>
<path d="M11.9873 3.88992C11.6779 3.887 11.3726 3.81885 11.0913 3.68992C11.0107 3.64477 10.9505 3.57034 10.9233 3.48206C10.896 3.39377 10.9037 3.29838 10.9448 3.21563C10.986 3.13289 11.0573 3.06912 11.1441 3.03752C11.231 3.00593 11.3266 3.00894 11.4113 3.04592C11.6905 3.17559 12.0069 3.20112 12.3033 3.11792C12.4309 3.0619 12.5452 2.97945 12.6386 2.87603C12.7321 2.77261 12.8025 2.65055 12.8453 2.51792C12.8638 2.47432 12.8907 2.43479 12.9245 2.4016C12.9583 2.36841 12.9983 2.34219 13.0423 2.32446C13.0862 2.30672 13.1332 2.29781 13.1805 2.29823C13.2279 2.29865 13.2747 2.3084 13.3183 2.32692C13.3619 2.34544 13.4014 2.37236 13.4346 2.40615C13.4678 2.43994 13.494 2.47994 13.5118 2.52386C13.5295 2.56778 13.5384 2.61477 13.538 2.66213C13.5376 2.7095 13.5278 2.75632 13.5093 2.79992C13.4295 3.02524 13.3027 3.23098 13.1371 3.40341C12.9716 3.57585 12.7712 3.71102 12.5493 3.79992C12.3687 3.86281 12.1785 3.89328 11.9873 3.88992Z" fill="#58595B"/>
</svg>
