<svg width="20" height="20" viewBox="0 0 20 20" fill="none" xmlns="http://www.w3.org/2000/svg">
<path d="M16.4896 15.6731C17.7189 15.6731 18.8993 15.4773 20 15.1173C18.0967 18.0473 14.6905 20 10.8035 20C4.837 20 0 15.3985 0 9.72237C0 5.21517 3.04979 1.38613 7.29315 0C6.27473 1.56827 5.68605 3.41593 5.68605 5.39492C5.68605 11.0711 10.523 15.6731 16.4896 15.6731Z" fill="#FFD55E"/>
<path d="M1.12955 9.94839C1.12955 6.05518 3.40529 2.66827 6.76 0.924306C6.92146 0.606831 7.09943 0.298311 7.29315 0C3.04979 1.38619 0 5.21523 0 9.72243C0 14.8612 3.96473 19.1192 9.14279 19.8792C4.52876 18.7088 1.12955 14.7065 1.12955 9.94839Z" fill="#E5BA4E"/>
<path d="M10.631 18.1494C5.78116 18.1494 1.83557 14.3958 1.83557 9.78213C1.83557 9.61725 1.97601 9.48364 2.14934 9.48364C2.3226 9.48364 2.4631 9.61725 2.4631 9.78213C2.4631 14.0667 6.12718 17.5524 10.631 17.5524C10.8043 17.5524 10.9447 17.686 10.9447 17.8509C10.9447 18.0158 10.8042 18.1494 10.631 18.1494Z" fill="#E5BA4E"/>
</svg>
