<svg width="12" height="12" viewBox="0 0 12 12" fill="none" xmlns="http://www.w3.org/2000/svg">
<g clip-path="url(#clip0_133_821)">
<path d="M9.66022 8.25851C9.36641 8.3464 9.07798 8.49905 8.78778 8.78782L8.78741 8.7882C8.40966 9.1688 8.26114 9.54692 8.19552 9.93722C8.13092 10.3274 8.16284 10.7268 8.16966 11.109C8.17037 11.1729 8.17074 11.2367 8.16931 11.3001L11.3 8.16903C11.2006 8.17137 11.1005 8.16992 10.9994 8.16741C10.5592 8.15428 10.0997 8.12738 9.66022 8.25851Z" fill="#58595B"/>
<path d="M6.00016 0.00012207C2.6862 0.00012207 0 2.68613 0 5.99975C0 9.31374 2.6862 11.9999 6.00016 11.9999C6.49629 11.9999 6.97664 11.9357 7.43798 11.822C7.49716 11.7565 7.53483 11.6757 7.55923 11.5451C7.58398 11.4082 7.58613 11.2258 7.58004 11.0152C7.57001 10.5937 7.52838 10.0595 7.69484 9.49348C7.8057 9.11646 8.01448 8.72902 8.37213 8.37263C8.83957 7.90233 9.3619 7.69264 9.84223 7.61569C10.3233 7.53767 10.7663 7.57784 11.1183 7.58215C11.3525 7.58682 11.5433 7.57245 11.6671 7.52815C11.7324 7.505 11.7794 7.47596 11.8221 7.43703C11.9358 6.97625 12 6.49571 12 5.99977C12 2.68613 9.3138 0.00012207 6.00016 0.00012207ZM4.73599 7.55719L4.34283 7.63468C4.3163 7.63969 4.29799 7.63306 4.28004 7.61262L3.20707 6.35883L3.19057 6.36207L3.46786 7.77225C3.4718 7.79218 3.46104 7.80797 3.44133 7.81189L3.06787 7.88527C3.04814 7.88921 3.03237 7.87843 3.02841 7.85853L2.60009 5.67905C2.5958 5.65897 2.60655 5.64336 2.62629 5.63942L3.02269 5.5614C3.04601 5.55673 3.06752 5.56301 3.0851 5.58364L4.15591 6.84118L4.17241 6.83794L3.8944 5.42436C3.89044 5.40443 3.9012 5.38885 3.9213 5.38472L4.29438 5.31136C4.31412 5.30743 4.32991 5.31781 4.33385 5.33789L4.76255 7.51756C4.76648 7.53767 4.75573 7.55342 4.73599 7.55719ZM6.67207 7.1764L5.23212 7.45979C5.21203 7.46356 5.19659 7.45297 5.19267 7.43307L4.76363 5.25359C4.76004 5.2335 4.77045 5.21771 4.79053 5.21377L6.23048 4.93055C6.25022 4.92678 6.26602 4.9374 6.26995 4.95727L6.33919 5.31064C6.3435 5.33037 6.33274 5.34614 6.31301 5.35008L5.34513 5.5404C5.33187 5.54288 5.3265 5.5508 5.32898 5.56407L5.4169 6.00997C5.41938 6.02307 5.42728 6.02843 5.44057 6.02593L6.24663 5.86735C6.26637 5.86357 6.28216 5.87436 6.2861 5.8939L6.35498 6.24401C6.35892 6.26391 6.34816 6.27954 6.32843 6.28348L5.52237 6.44201C5.50945 6.44454 5.50371 6.45242 5.50622 6.46568L5.59805 6.93132C5.60055 6.94461 5.6088 6.94979 5.62172 6.94709L6.58957 6.75678C6.6093 6.75284 6.6251 6.76379 6.62904 6.7835L6.69863 7.13684C6.70259 7.15686 6.69183 7.17265 6.67207 7.1764ZM9.08386 6.66772C9.08423 6.68853 9.07059 6.70503 9.04727 6.70934L8.7169 6.77426C8.69393 6.77893 8.6778 6.76817 8.66738 6.74968L8.00299 5.42937L7.99655 5.4308L7.87814 6.905C7.87566 6.926 7.86487 6.94196 7.84193 6.94643L7.51155 7.01154C7.4918 7.01532 7.47602 7.00456 7.46527 6.98607L6.45544 4.92066C6.44827 4.90147 6.4522 4.88693 6.4755 4.88246L6.90131 4.79869C6.92461 4.79422 6.94041 4.8046 6.94723 4.82398L7.54844 6.17047L7.55527 6.16904L7.66109 4.68371C7.66359 4.66236 7.67435 4.64675 7.69732 4.64208L7.98466 4.5856C8.0044 4.58183 8.0202 4.59223 8.03095 4.61107L8.70429 5.94305L8.71111 5.94181L8.74411 4.47082C8.74303 4.44697 8.75416 4.43424 8.77746 4.42976L9.20004 4.3467C9.22301 4.34204 9.23234 4.35387 9.23269 4.3745L9.08386 6.66772Z" fill="#58595B"/>
</g>
<defs>
<clipPath id="clip0_133_821">
<rect width="12" height="12" fill="white"/>
</clipPath>
</defs>
</svg>
