<svg width="30" height="28" viewBox="0 0 30 28" fill="none" xmlns="http://www.w3.org/2000/svg">
<path d="M15.025 3.3949C10.8875 3.3949 7.52496 6.53323 7.52496 10.3949V13.7666C7.52496 14.4782 7.19996 15.5632 6.81246 16.1699L5.37497 18.3982C4.48747 19.7749 5.09997 21.3032 6.72497 21.8165C12.1125 23.4965 17.925 23.4965 23.3125 21.8165C24.825 21.3499 25.4875 19.6816 24.6625 18.3982L23.225 16.1699C22.85 15.5632 22.525 14.4782 22.525 13.7666V10.3949C22.525 6.5449 19.15 3.3949 15.025 3.3949Z" stroke="#F58220" stroke-width="1.75" stroke-miterlimit="10" stroke-linecap="round"/>
<path d="M17.3375 3.73324C16.95 3.62824 16.55 3.54658 16.1375 3.49991C14.9375 3.35991 13.7875 3.44158 12.7125 3.73324C13.075 2.86991 13.975 2.26324 15.025 2.26324C16.075 2.26324 16.975 2.86991 17.3375 3.73324Z" stroke="#F58220" stroke-width="1.75" stroke-miterlimit="10" stroke-linecap="round" stroke-linejoin="round"/>
<path d="M18.775 22.2368C18.775 24.1618 17.0875 25.7368 15.025 25.7368C14 25.7368 13.05 25.3401 12.375 24.7101C11.7 24.0801 11.275 23.1935 11.275 22.2368" stroke="#F58220" stroke-width="1.75" stroke-miterlimit="10"/>
</svg>
