<svg width="24" height="24" viewBox="0 0 24 24" fill="none" xmlns="http://www.w3.org/2000/svg">
<path d="M0.75 22.875L3.975 21.75L1.5375 20.625L0.75 22.875Z" fill="#F7B600"/>
<path d="M10.0875 13.6502L5.55005 9.0752L4.80005 11.1752L10.0875 13.6502Z" fill="#FFDD7D"/>
<path d="M4.79985 11.1748L3.97485 13.5373L14.0249 18.2248L14.5124 18.0748L10.0874 13.6498L4.79985 11.1748Z" fill="#F7B600"/>
<path d="M3.1875 15.9001L10.6875 19.3876L14.025 18.2251L3.975 13.5376L3.1875 15.9001Z" fill="#FFDD7D"/>
<path d="M2.36255 18.2624L7.31255 20.5874L10.6875 19.3874L3.18755 15.8999L2.36255 18.2624Z" fill="#F7B600"/>
<path d="M2.36235 18.2627L1.53735 20.6252L3.97485 21.7502L7.31235 20.5877L2.36235 18.2627Z" fill="#FFDD7D"/>
<path d="M11.9625 11.6999C14.475 14.1749 15.7875 16.9499 14.8875 17.8499C13.95 18.7499 11.175 17.4749 8.62501 14.9624C6.11251 12.4874 4.80001 9.71244 5.70001 8.81244C6.63751 7.91244 9.41251 9.22494 11.9625 11.6999Z" fill="#493816"/>
<path d="M8.8124 5.4375C8.2124 4.575 8.8499 4.2 9.6749 4.35C8.8874 3.4125 9.3749 2.7375 10.6124 3C10.9874 3.075 10.4624 3.7125 10.1249 3.7125C11.1374 4.4625 10.5749 5.2875 9.4874 5.1C10.4624 6.4125 8.8124 6.075 8.0624 6.15C7.8749 7.125 8.9999 8.25 8.6249 8.25C7.7999 8.25 6.4499 5.1375 8.8124 5.4375Z" fill="#42ADE2"/>
<path d="M16.6874 7.23762C16.1249 7.50012 14.5499 5.02512 16.4999 4.98762C15.3749 3.97512 15.5249 3.48762 17.0249 3.45012C15.2999 1.72512 18.0374 1.12512 18.2999 2.02512C18.3749 2.28762 17.4749 1.80012 17.1749 2.28762C16.8374 2.85012 19.2749 4.31262 16.7624 4.20012C17.6999 5.13762 17.7374 5.58762 16.2749 5.73762C16.4624 6.03762 17.0624 7.08762 16.6874 7.23762Z" fill="#FF8736"/>
<path d="M17.325 13.0876L17.8875 12.6001C17.8875 12.6001 18.4125 13.3876 18.7875 13.6876C19.0875 12.3376 19.0125 11.5501 20.55 12.4501C19.6875 10.1251 21.1125 10.9876 22.5 11.6251C22.425 11.0251 22.5 11.1001 23.1 10.9126C23.625 12.9001 22.2 12.3001 21.075 11.6626C21.75 13.4626 21.0375 13.3501 19.6125 12.7501C19.575 13.5001 19.35 14.3626 18.9 14.4376C18.375 14.5876 17.325 13.0876 17.325 13.0876Z" fill="#ED4C5C"/>
<path d="M13.125 7.5375C12.45 8.4375 11.3625 8.925 10.575 9.7125C9.74995 10.5375 9.26245 12.7875 9.26245 12.7875C9.26245 12.7875 9.56245 10.425 10.35 9.525C11.0625 8.7 12.1125 8.1 12.675 7.1625C13.65 5.4375 12.75 3.1875 11.475 1.875C11.7375 1.65 12.1125 1.35 12.3 1.125C13.5375 2.6625 14.5875 5.625 13.125 7.5375Z" fill="#C28FEF"/>
<path d="M14.2874 9.45025C13.3124 10.1628 12.5999 11.2128 11.9249 12.1878C11.3249 13.0503 9.41235 14.1378 9.41235 14.1378C9.41235 14.1378 11.2124 12.9003 11.7749 12.0003C12.4499 10.8753 13.1249 9.71275 14.1749 8.88775C16.2749 7.27525 19.3124 7.42525 21.6749 8.28775C21.5249 8.62525 21.2624 9.33775 21.2624 9.33775C21.2624 9.33775 16.2749 7.98775 14.2874 9.45025Z" fill="#FF8736"/>
<path d="M18.45 9.2624C17.8125 10.0874 17.5125 11.0999 17.025 12.0374C16.575 12.8999 15.975 13.7249 15.1125 14.1749C14.1375 14.6624 12 14.5124 12 14.5124C12 14.5124 14.1375 14.4749 15.0375 13.8749C15.9375 13.2749 16.425 12.2249 16.7625 11.2499C17.4375 9.3749 18.2625 7.3499 20.2125 6.5249C20.325 6.8624 20.5875 7.5749 20.5875 7.5749C20.5875 7.5749 19.5 7.8749 18.45 9.2624Z" fill="#42ADE2"/>
<path d="M1.20386 5.37142L2.26436 4.31055L3.32523 5.37105L2.26473 6.4323L1.20386 5.37142Z" fill="#42ADE2"/>
<path d="M2.68994 8.69868L3.75007 7.63818L4.81057 8.69868L3.75007 9.75918L2.68994 8.69868Z" fill="#FF8736"/>
<path d="M5.38428 3.68306L6.44478 2.62256L7.50528 3.68306L6.44478 4.74356L5.38428 3.68306Z" fill="#ED4C5C"/>
<path d="M16.9519 16.3861L18.0124 15.3252L19.0729 16.3861L18.0124 17.4466L16.9519 16.3861Z" fill="#C28FEF"/>
<path d="M14.5886 20.0214L15.6491 18.9609L16.71 20.0218L15.6491 21.0823L14.5886 20.0214Z" fill="#ED4C5C"/>
<path d="M19.2297 20.8524L20.2902 19.7915L21.3507 20.8524L20.2902 21.9129L19.2297 20.8524Z" fill="#FF8736"/>
<path d="M20.2793 16.0239L21.3398 14.9634L22.4003 16.0239L21.3398 17.0848L20.2793 16.0239Z" fill="#42ADE2"/>
<path d="M18.5085 4.80843L19.569 3.74756L20.6299 4.80843L19.5694 5.86893L18.5085 4.80843Z" fill="#42ADE2"/>
<path d="M7.1416 11.1718L8.20248 10.1113L9.26298 11.1718L8.20248 12.2327L7.1416 11.1718Z" fill="#ED4C5C"/>
</svg>
