<svg width="24" height="24" viewBox="0 0 24 24" fill="none" xmlns="http://www.w3.org/2000/svg">
<path d="M20.78 15.3203L6.92 18.3403C6.4 18.4603 5.88 18.1203 5.78 17.6003L3.84 8.80035C3.72 8.28035 4.06 7.76035 4.58 7.66035L18.44 4.64035C18.96 4.52035 19.48 4.86035 19.58 5.38035L21.5 14.2003C21.62 14.7003 21.3 15.2203 20.78 15.3203Z" fill="#58595B"/>
<path d="M5.76003 17.6008L3.84003 8.80078L5.76003 17.6008Z" fill="#58595B"/>
<path d="M19.8203 6.36654L4.06946 9.79688L4.46101 11.5947L20.2119 8.1644L19.8203 6.36654Z" fill="#F58220" fill-opacity="0.7"/>
<path opacity="0.15" d="M21.16 14.8802L7.30002 17.9002C6.78002 18.0202 6.26002 17.6802 6.16002 17.1602L4.24002 8.34023C4.20002 8.14023 4.22002 7.92023 4.30002 7.74023C3.96002 7.94023 3.76002 8.36023 3.84002 8.76023L5.76002 17.6002C5.88002 18.1202 6.38002 18.4402 6.90002 18.3402L20.76 15.3202C21.08 15.2602 21.32 15.0402 21.44 14.7602C21.36 14.8202 21.26 14.8602 21.16 14.8802Z" fill="#58595B"/>
<path opacity="0.15" d="M19.14 10.0808V19.1008C19.14 19.3208 19.06 19.5408 18.92 19.7008C18.76 19.8408 18.54 19.9208 18.32 19.9208H4.11997C3.57997 19.9208 3.15997 19.4808 3.15997 18.9608V9.94077C3.15997 9.72077 3.23997 9.50077 3.37997 9.34077C3.53997 9.20077 3.75997 9.12077 3.97997 9.12077H18.16C18.7 9.10077 19.14 9.54077 19.14 10.0808Z" fill="#58595B"/>
<path opacity="0.15" d="M19.14 10.0808V19.1008C19.14 19.3208 19.06 19.5408 18.92 19.7008C18.74 19.9208 18.48 20.0608 18.18 20.0608H3.98002C3.44002 20.0608 3.02002 19.6208 3.02002 19.1008V10.0808C3.02002 9.78077 3.16002 9.52077 3.38002 9.34077C3.54002 9.20077 3.76002 9.12077 3.98002 9.12077H18.16C18.7 9.10077 19.14 9.54077 19.14 10.0808Z" fill="#58595B"/>
<path d="M18.16 20.0601H3.98002C3.44002 20.0601 3.02002 19.6201 3.02002 19.1001V10.0801C3.02002 9.54012 3.46002 9.12012 3.98002 9.12012H18.16C18.7 9.12012 19.12 9.56012 19.12 10.0801V19.1001C19.12 19.6201 18.7 20.0601 18.16 20.0601Z" fill="#58595B"/>
<path d="M7.64002 15.7404H4.82002C4.62002 15.7404 4.46002 15.5804 4.46002 15.3804V13.7604C4.46002 13.5604 4.62002 13.4004 4.82002 13.4004H7.64002C7.84002 13.4004 8.00002 13.5604 8.00002 13.7604V15.4004C8.00002 15.5804 7.84002 15.7404 7.64002 15.7404Z" fill="#F58220" fill-opacity="0.7"/>
<path opacity="0.15" d="M18.64 19.6806H4.44C3.9 19.6806 3.48 19.2406 3.48 18.7206V9.70062C3.48 9.48062 3.56 9.30062 3.66 9.14062C3.28 9.26062 3 9.62062 3 10.0406V19.0606C3 19.6006 3.44 20.0206 3.96 20.0206H18.14C18.46 20.0206 18.74 19.8606 18.92 19.6206C18.84 19.6606 18.74 19.6806 18.64 19.6806Z" fill="#58595B"/>
<path d="M17.18 18.3604H13.86C13.78 18.3604 13.7 18.4204 13.7 18.5204V18.7004C13.7 18.7804 13.76 18.8604 13.86 18.8604H17.18C17.26 18.8604 17.34 18.8004 17.34 18.7004V18.5204C17.34 18.4204 17.26 18.3604 17.18 18.3604Z" fill="#F58220" fill-opacity="0.7"/>
<path d="M13.06 18.3604H8.04C7.96 18.3604 7.88 18.4204 7.88 18.5204V18.7004C7.88 18.7804 7.94 18.8604 8.04 18.8604H13.06C13.14 18.8604 13.22 18.8004 13.22 18.7004V18.5204C13.22 18.4204 13.16 18.3604 13.06 18.3604Z" fill="#F58220" fill-opacity="0.7"/>
</svg>
