<svg width="20" height="20" viewBox="0 0 20 20" fill="none" xmlns="http://www.w3.org/2000/svg">
<path d="M6.84902 3.33337H4.16634C3.70611 3.33337 3.33301 3.70647 3.33301 4.16671V5.00004C3.33301 11.4434 8.55634 16.6667 14.9997 16.6667H15.833C16.2933 16.6667 16.6663 16.2936 16.6663 15.8334V13.1507C16.6663 12.7683 16.4061 12.435 16.0351 12.3422L13.7908 11.7811C13.5068 11.7101 13.2063 11.7934 12.9993 12.0004L12.5016 12.4981C12.5003 12.4994 12.4987 12.5 12.4969 12.5C9.73701 12.5 7.49967 10.2627 7.49967 7.50278C7.49967 7.50102 7.50037 7.49934 7.50161 7.49811L7.99937 7.00034C8.20636 6.79336 8.28957 6.49295 8.21857 6.20897L7.65748 3.96459C7.56473 3.59362 7.23142 3.33337 6.84902 3.33337Z" stroke="#F58220" stroke-width="1.75" stroke-linecap="round"/>
</svg>
