<svg width="50" height="50" viewBox="0 0 50 50" fill="none" xmlns="http://www.w3.org/2000/svg">
<path d="M14.5833 22.9168C16.8845 22.9168 18.75 21.0514 18.75 18.7502C18.75 16.449 16.8845 14.5835 14.5833 14.5835C12.2821 14.5835 10.4166 16.449 10.4166 18.7502C10.4166 21.0514 12.2821 22.9168 14.5833 22.9168Z" stroke="#58595B" stroke-width="1.75" stroke-linecap="round" stroke-linejoin="round"/>
<path d="M11.5845 43.75C23.1885 23.125 32.8344 19.4998 43.751 32.8956" stroke="#58595B" stroke-width="1.75" stroke-linecap="round" stroke-linejoin="round"/>
<path d="M25.5834 6.25H10.4167C8.20656 6.25 6.08696 7.12783 4.52415 8.69065C2.96133 10.2534 2.08337 12.3732 2.08337 14.5833V35.4167C2.08337 37.6269 2.96133 39.7462 4.52415 41.3092C6.08696 42.8719 8.20656 43.75 10.4167 43.75H35.4167C37.6269 43.75 39.7465 42.8719 41.3092 41.3092C42.8721 39.7462 43.75 37.6269 43.75 35.4167V25" stroke="#58595B" stroke-width="1.75" stroke-linecap="round" stroke-linejoin="round"/>
<path d="M39.0625 18.3957V1.729" stroke="#58595B" stroke-width="1.75" stroke-linecap="round" stroke-linejoin="round"/>
<path d="M32.3975 8.39568L39.0641 1.729L45.7308 8.39568" stroke="#58595B" stroke-width="1.75" stroke-linecap="round" stroke-linejoin="round"/>
</svg>
