<svg width="32" height="32" viewBox="0 0 32 32" fill="none" xmlns="http://www.w3.org/2000/svg">
<path d="M10.6667 14.6666C12.1394 14.6666 13.3333 13.4728 13.3333 12C13.3333 10.5272 12.1394 9.33331 10.6667 9.33331C9.19391 9.33331 8 10.5272 8 12C8 13.4728 9.19391 14.6666 10.6667 14.6666Z" stroke="#58595B" stroke-opacity="0.6" stroke-width="1.75" stroke-linecap="round" stroke-linejoin="round"/>
<path d="M8.74731 28C16.1739 11.8666 22.3472 9.03997 29.3339 19.5067" stroke="#58595B" stroke-opacity="0.6" stroke-width="1.75" stroke-linecap="round" stroke-linejoin="round"/>
<path d="M24 4H7.99996C5.05444 4 2.66663 6.38781 2.66663 9.33333V22.6667C2.66663 25.6121 5.05444 28 7.99996 28H24C26.9454 28 29.3333 25.6121 29.3333 22.6667V9.33333C29.3333 6.38781 26.9454 4 24 4Z" stroke="#58595B" stroke-opacity="0.6" stroke-width="1.75" stroke-linecap="round" stroke-linejoin="round"/>
</svg>
