<svg width="20" height="20" viewBox="0 0 20 20" fill="none" xmlns="http://www.w3.org/2000/svg">
<path fill-rule="evenodd" clip-rule="evenodd" d="M1.66699 4.16663C1.66699 2.78592 2.78628 1.66663 4.16699 1.66663H15.8337C17.2144 1.66663 18.3337 2.78592 18.3337 4.16663V15.8333C18.3337 17.214 17.2144 18.3333 15.8337 18.3333H4.16699C2.78628 18.3333 1.66699 17.214 1.66699 15.8333V4.16663ZM4.16699 3.33329C3.70676 3.33329 3.33366 3.70639 3.33366 4.16663V8.33329H16.667V4.16663C16.667 3.70639 16.2939 3.33329 15.8337 3.33329H4.16699ZM3.33366 9.99996V15.8333C3.33366 16.2935 3.70676 16.6666 4.16699 16.6666H15.8337C16.2939 16.6666 16.667 16.2935 16.667 15.8333V9.99996H3.33366ZM11.667 10.8333C11.888 10.8333 12.1 10.9211 12.2562 11.0774L15.5896 14.4107C15.915 14.7361 15.915 15.2638 15.5896 15.5892C15.2642 15.9146 14.7365 15.9146 14.4111 15.5892L11.667 12.8451L9.75624 14.7559L8.92291 15.5892C8.59749 15.9146 8.06984 15.9146 7.7444 15.5892C7.41897 15.2638 7.41897 14.7361 7.7444 14.4107L7.98848 14.1666L7.50033 13.6785L5.58958 15.5892C5.26414 15.9146 4.73651 15.9146 4.41107 15.5892C4.08563 15.2638 4.08563 14.7361 4.41107 14.4107L6.91107 11.9107C7.06735 11.7545 7.27931 11.6666 7.50033 11.6666C7.72134 11.6666 7.9333 11.7545 8.08958 11.9107L9.16699 12.9881L11.0777 11.0774C11.234 10.9211 11.446 10.8333 11.667 10.8333ZM9.16699 5.83329C9.16699 5.37306 9.54008 4.99996 10.0003 4.99996H14.167C14.6272 4.99996 15.0003 5.37306 15.0003 5.83329C15.0003 6.29353 14.6272 6.66663 14.167 6.66663H10.0003C9.54008 6.66663 9.16699 6.29353 9.16699 5.83329ZM5.83366 7.29163C6.63908 7.29163 7.29199 6.63871 7.29199 5.83329C7.29199 5.02788 6.63908 4.37496 5.83366 4.37496C5.02824 4.37496 4.37533 5.02788 4.37533 5.83329C4.37533 6.63871 5.02824 7.29163 5.83366 7.29163Z" fill="#F58220"/>
</svg>
