<svg width="20" height="20" viewBox="0 0 20 20" fill="none" xmlns="http://www.w3.org/2000/svg">
<path fill-rule="evenodd" clip-rule="evenodd" d="M13.7501 5.88585C13.7501 8.54835 12.1417 10.8334 10.0001 10.8334C7.85673 10.8334 6.25006 8.54835 6.25006 5.88502C6.25006 3.22335 7.63339 1.66669 10.0001 1.66669C12.3667 1.66669 13.7501 3.22252 13.7501 5.88585ZM3.41839 16.785C3.73923 17.1667 5.12089 18.3334 10.0001 18.3334C14.8792 18.3334 16.2601 17.1667 16.5817 16.7859C16.6116 16.7493 16.6336 16.7069 16.6465 16.6615C16.6594 16.6161 16.6629 16.5685 16.6567 16.5217C16.5834 15.7867 15.9217 12.5 10.0001 12.5C4.07839 12.5 3.41673 15.7867 3.34256 16.5217C3.33652 16.5686 3.34014 16.6162 3.35318 16.6616C3.36622 16.707 3.38841 16.7485 3.41839 16.785Z" fill="#F58220"/>
</svg>
