<svg width="12" height="12" viewBox="0 0 12 12" fill="none" xmlns="http://www.w3.org/2000/svg">
<path d="M8.50103 8.74154L8.50035 11.1227C8.50035 11.3973 8.21489 11.5788 7.96622 11.4622L6.00026 10.5409L4.03535 11.4622C3.78667 11.5788 3.50116 11.3973 3.50116 11.1227L3.5013 8.7431C4.21609 9.2212 5.07549 9.5 6 9.5C6.92552 9.5 7.78578 9.2206 8.50103 8.74154ZM6 1C8.20914 1 10 2.79086 10 5C10 7.20914 8.20914 9 6 9C3.79086 9 2 7.20914 2 5C2 2.79086 3.79086 1 6 1ZM5.90422 3.29305L5.88561 3.32117L5.42935 4.2475L4.40736 4.39518C4.3143 4.40863 4.27093 4.51179 4.31568 4.58637L4.33667 4.61277L5.07666 5.33295L4.9013 6.35054C4.88534 6.44321 4.97005 6.51634 5.05481 6.49683L5.0864 6.48502L6 6.00379L6.9136 6.48502C6.99676 6.52882 7.09246 6.47093 7.10015 6.38433L7.09871 6.35065L6.92421 5.33295L7.66339 4.61271C7.73071 4.54711 7.70514 4.43821 7.62512 4.40419L7.59264 4.39518L6.57065 4.2475L6.11439 3.32117C6.07804 3.24736 5.98811 3.23096 5.92794 3.27197L5.90422 3.29305Z" fill="#58595B"/>
</svg>
