<svg width="26" height="26" viewBox="0 0 26 26" fill="none" xmlns="http://www.w3.org/2000/svg">
<path fill-rule="evenodd" clip-rule="evenodd" d="M7.59745 16.8622C6.69802 15.9438 6.08797 14.7816 5.84297 13.5197C5.59595 12.2542 5.7228 10.9442 6.20801 9.74965C6.68909 8.5618 7.5104 7.54258 8.56881 6.81997C10.7163 5.35331 13.5433 5.35331 15.6907 6.81997C16.7492 7.54258 17.5705 8.5618 18.0515 9.74965C18.5368 10.9442 18.6636 12.2542 18.4165 13.5197C18.1716 14.7816 17.5615 15.9438 16.6621 16.8622C15.4709 18.0845 13.8366 18.7739 12.1297 18.7739C10.423 18.7739 8.78862 18.0845 7.59745 16.8622Z" stroke="#58595B" stroke-opacity="0.6" stroke-width="1.5" stroke-linecap="round" stroke-linejoin="round"/>
<path d="M12.137 9.31107C11.7086 9.35646 11.3982 9.74053 11.4435 10.1689C11.489 10.5973 11.8731 10.9078 12.3014 10.8624L12.137 9.31107ZM14.0625 11.8998C14.2304 12.2966 14.6881 12.482 15.0849 12.314C15.4815 12.1461 15.667 11.6884 15.499 11.2917L14.0625 11.8998ZM17.3078 17.5104C17.003 17.2061 16.5091 17.2065 16.2048 17.5115C15.9003 17.8163 15.9009 18.3102 16.2057 18.6145L17.3078 17.5104ZM19.7292 22.1318C20.0341 22.4362 20.5279 22.4357 20.8323 22.1308C21.1366 21.8259 21.1362 21.3321 20.8313 21.0277L19.7292 22.1318ZM12.3014 10.8624C13.0528 10.7828 13.7679 11.204 14.0625 11.8998L15.499 11.2917C14.9367 9.96329 13.5716 9.15906 12.137 9.31107L12.3014 10.8624ZM16.2057 18.6145L19.7292 22.1318L20.8313 21.0277L17.3078 17.5104L16.2057 18.6145Z" fill="#58595B" fill-opacity="0.6"/>
</svg>
