<svg width="20" height="21" viewBox="0 0 20 21" fill="none" xmlns="http://www.w3.org/2000/svg">
<path d="M10.6666 14.5804C10.7083 14.4109 10.7083 14.1989 10.7083 13.987C10.7083 13.7751 10.7083 13.6055 10.6666 13.3936L11.8333 12.5459C11.9583 12.4612 12 12.2916 11.9166 12.1645L10.7916 10.2147C10.7083 10.0876 10.5833 10.0452 10.4583 10.0876L9.16665 10.7234C8.87498 10.4691 8.54165 10.2995 8.16665 10.13L8.04165 8.68888C8.04165 8.56173 7.91665 8.43457 7.79165 8.43457H5.58331C5.45831 8.43457 5.33331 8.56173 5.33331 8.68888L5.16665 10.1724C4.79165 10.2995 4.49998 10.5114 4.16665 10.7657L2.87498 10.1724C2.74998 10.13 2.58331 10.1724 2.54165 10.2995L1.41665 12.2492C1.33331 12.3764 1.37498 12.5459 1.49998 12.6307L2.66665 13.4784C2.62498 13.6479 2.62498 13.8599 2.62498 14.0718C2.62498 14.2837 2.62498 14.4532 2.66665 14.6652L1.49998 15.5129C1.37498 15.5976 1.33331 15.7672 1.41665 15.8943L2.54165 17.8441C2.62498 17.9712 2.74998 18.0136 2.87498 17.9712L4.16665 17.3778C4.45831 17.6321 4.79165 17.8017 5.16665 17.9712L5.29165 19.4123C5.29165 19.5395 5.41665 19.6666 5.54165 19.6666H7.74998C7.87498 19.6666 7.99998 19.5395 7.99998 19.4123L8.12498 17.9712C8.49998 17.8441 8.79165 17.6321 9.12498 17.3778L10.4166 17.9712C10.5416 18.0136 10.7083 17.9712 10.75 17.8441L11.875 15.8943C11.9583 15.7672 11.9166 15.5976 11.7916 15.5129L10.6666 14.5804ZM6.66665 16.1063C5.49998 16.1063 4.58331 15.1738 4.58331 13.987C4.58331 12.8002 5.49998 11.8678 6.66665 11.8678C7.83331 11.8678 8.74998 12.8002 8.74998 13.987C8.74998 15.1738 7.83331 16.1063 6.66665 16.1063Z" fill="#58595B"/>
<path d="M17.4584 6.48487C17.5 6.27294 17.5 6.1034 17.5 5.93386C17.5 5.76432 17.5 5.59478 17.4584 5.38286L18.5 4.61993C18.625 4.53516 18.625 4.408 18.5834 4.28085L17.5417 2.45829C17.4584 2.33113 17.3334 2.28875 17.2084 2.37352L16 2.92452C15.7084 2.7126 15.4167 2.54306 15.0834 2.37352L14.9584 1.05958C15 0.932426 14.9167 0.847656 14.7917 0.847656H12.75C12.625 0.847656 12.5 0.932426 12.5 1.05958L12.375 2.37352C12.0417 2.50067 11.75 2.67021 11.4584 2.92452L10.25 2.37352C10.125 2.33113 10 2.37352 9.91669 2.45829L8.87502 4.28085C8.79169 4.408 8.83335 4.53516 8.95835 4.61993L10 5.38286V5.93386C10 6.1034 10 6.27294 10.0417 6.48487L9.00002 7.2478C8.87502 7.33257 8.87502 7.45973 8.91669 7.58688L9.95835 9.40944C10.0417 9.53659 10.1667 9.57898 10.2917 9.49421L11.5 8.9432C11.7917 9.15513 12.0834 9.32467 12.4167 9.49421L12.5417 10.8081C12.5417 10.9353 12.6667 11.0201 12.7917 11.0201H14.8334C14.9584 11.0201 15.0834 10.9353 15.0834 10.8081L15.2084 9.49421C15.5417 9.36705 15.8334 9.19751 16.125 8.9432L17.3334 9.49421C17.4584 9.53659 17.5834 9.49421 17.6667 9.40944L18.7084 7.58688C18.7917 7.45973 18.75 7.33257 18.625 7.2478L17.4584 6.48487ZM13.75 8.05312C12.5834 8.05312 11.6667 7.12064 11.6667 5.93386C11.6667 4.74708 12.5834 3.81461 13.75 3.81461C14.9167 3.81461 15.8334 4.74708 15.8334 5.93386C15.8334 7.12064 14.9167 8.05312 13.75 8.05312Z" fill="#F58220"/>
</svg>
