<svg width="24" height="26" viewBox="0 0 24 26" fill="none" xmlns="http://www.w3.org/2000/svg">
<path d="M19.3798 0H19.6188C20.4956 0.0335156 21.3658 0.313828 22.0825 0.832305C23.0163 1.49094 23.686 2.52434 23.9086 3.65676C24.0991 4.58961 23.9896 5.58238 23.601 6.44973C23.1463 7.47754 22.3031 8.31949 21.2828 8.76332C20.3315 9.1848 19.2337 9.25184 18.2394 8.94816C17.4042 8.69832 16.66 8.18188 16.0908 7.51715C13.6156 9.03043 11.1389 10.5407 8.6657 12.057C8.92377 12.7151 9.0448 13.4332 8.97879 14.14C8.94978 14.4447 8.86525 14.7393 8.79923 15.0368C11.1629 16.2678 13.5286 17.4957 15.8928 18.7256C16.4564 17.9725 17.2332 17.3768 18.1239 17.0879C19.0347 16.7822 20.043 16.7908 20.9502 17.1062C21.8685 17.4225 22.6812 18.0497 23.2229 18.8673C23.7195 19.6026 23.9916 20.4897 23.9996 21.3809C24.0106 22.2925 23.745 23.206 23.2429 23.9621C22.4551 25.1845 21.0607 25.9594 19.6248 26H19.3858C18.5695 25.9675 17.7583 25.7258 17.0726 25.2708C15.7267 24.4105 14.9055 22.7835 15.012 21.1712C15.028 20.802 15.1366 20.4471 15.2211 20.0901C12.8654 18.8622 10.5077 17.6384 8.15105 16.412C7.69742 17.0336 7.10625 17.5566 6.41455 17.8867C5.51979 18.3239 4.4785 18.4397 3.51072 18.2168C2.52244 17.9943 1.61718 17.417 0.986995 16.6136C0.532865 16.0377 0.216275 15.3491 0.0817362 14.6235C-0.141328 13.4738 0.0972406 12.2393 0.735424 11.2628C1.22806 10.4929 1.95727 9.88355 2.79351 9.53621C3.77279 9.12488 4.89862 9.08324 5.9029 9.42957C6.66362 9.68246 7.33431 10.1649 7.87047 10.7626C10.3497 9.2427 12.8339 7.73043 15.3136 6.21156C15.018 5.43563 14.9245 4.57945 15.0765 3.75984C15.2811 2.57461 15.9748 1.48738 16.9541 0.809453C17.6628 0.306211 18.518 0.0345313 19.3798 0Z" fill="black"/>
</svg>
