<svg width="60" height="60" viewBox="0 0 60 60" fill="none" xmlns="http://www.w3.org/2000/svg">
<path d="M0 45.1616C0 47.6433 2.01176 49.6552 4.49355 49.6552H55.5064C57.9881 49.6552 60 47.6434 60 45.1616V41.3793H0V45.1616Z" fill="#C8414B"/>
<path d="M55.5064 10.3448H4.49355C2.01176 10.3448 0 12.3566 0 14.8384V18.6207H60V14.8384C60 12.3566 57.9882 10.3448 55.5064 10.3448Z" fill="#C8414B"/>
<path d="M60 18.6211H0V41.3801H60V18.6211Z" fill="#FFD250"/>
<path d="M25.3448 30L26.222 26.053C26.3028 25.6895 26.0261 25.3447 25.6537 25.3447H25.0359C24.6636 25.3447 24.387 25.6896 24.4677 26.053L25.3448 30Z" fill="#C8414B"/>
<path d="M26.3795 27.9305H24.3105V36.7231H26.3795V27.9305Z" fill="#F5F5F5"/>
<path d="M26.896 26.8969H23.7925V27.9314H26.896V26.8969Z" fill="#FAB446"/>
<path d="M26.8968 30H21.7241V31.0345H26.8968V30Z" fill="#C8414B"/>
<path d="M26.8964 34.1379L23.793 33.1035V32.0689L26.8964 33.1035V34.1379Z" fill="#C8414B"/>
<path d="M9.82772 30L10.7049 26.053C10.7857 25.6895 10.5091 25.3447 10.1366 25.3447H9.51882C9.14651 25.3447 8.86995 25.6896 8.95057 26.053L9.82772 30Z" fill="#C8414B"/>
<path d="M13.4481 26.8965C12.8768 26.8965 12.4136 27.3598 12.4136 27.931V34.6551C12.4136 35.912 13.5866 38.2759 17.586 38.2759C21.5854 38.2759 22.7584 35.9121 22.7584 34.6551V27.931C22.7584 27.3598 22.2952 26.8965 21.7239 26.8965H13.4481Z" fill="#F5F5F5"/>
<path d="M17.586 32.0689H12.4136V27.931C12.4136 27.3598 12.8768 26.8965 13.4481 26.8965H17.586V32.0689Z" fill="#C8414B"/>
<path d="M17.5859 32.0689H22.7584V34.6552C22.7584 36.0835 21.6005 37.2414 20.1721 37.2414C18.7438 37.2414 17.5859 36.0835 17.5859 34.6552V32.0689Z" fill="#C8414B"/>
<path d="M12.4136 32.0689H17.586V34.6552C17.586 36.0835 16.4282 37.2414 14.9998 37.2414C13.5714 37.2414 12.4136 36.0835 12.4136 34.6552V32.0689Z" fill="#FAB446"/>
<path d="M16.5516 36.7125V32.0689H15.5171V37.1892C15.9019 37.1112 16.2496 36.9408 16.5516 36.7125Z" fill="#C8414B"/>
<path d="M14.4828 37.1892V32.0689H13.4482V36.7125C13.7504 36.9408 14.098 37.1112 14.4828 37.1892Z" fill="#C8414B"/>
<path d="M16.5517 30H13.4482V31.0345H16.5517V30Z" fill="#FFB441"/>
<path d="M16.5517 27.9305H13.4482V28.965H16.5517V27.9305Z" fill="#FAB446"/>
<path d="M16.0338 28.5457H13.9648V30.4198H16.0338V28.5457Z" fill="#FAB446"/>
<path d="M10.8614 27.9305H8.79248V36.7231H10.8614V27.9305Z" fill="#F5F5F5"/>
<path d="M11.3794 36.2074H8.27588V37.242H11.3794V36.2074Z" fill="#FAB446"/>
<path d="M11.3794 26.8969H8.27588V27.9314H11.3794V26.8969Z" fill="#FAB446"/>
<path d="M11.8967 37.241H7.75879V38.2756H11.8967V37.241Z" fill="#5064AA"/>
<path d="M27.414 36.2074H24.3105V37.242H27.414V36.2074Z" fill="#FAB446"/>
<path d="M27.4138 37.241H23.2759V38.2756H27.4138V37.241Z" fill="#5064AA"/>
<path d="M20.6904 25.8621H14.4834V26.8967H20.6904V25.8621Z" fill="#FAB446"/>
<path d="M18.1039 22.759H17.0693V25.8624H18.1039V22.759Z" fill="#FFB441"/>
<path d="M16.5517 24.3103C15.696 24.3103 15 23.6142 15 22.7586C15 21.9029 15.6961 21.2069 16.5517 21.2069C17.4074 21.2069 18.1034 21.903 18.1034 22.7586C18.1035 23.6142 17.4074 24.3103 16.5517 24.3103ZM16.5517 22.2414C16.2663 22.2414 16.0344 22.4732 16.0344 22.7586C16.0344 23.044 16.2662 23.2759 16.5517 23.2759C16.8371 23.2759 17.0689 23.0441 17.0689 22.7586C17.0689 22.4733 16.8371 22.2414 16.5517 22.2414Z" fill="#F5F5F5"/>
<path d="M18.621 24.3103C17.7653 24.3103 17.0693 23.6142 17.0693 22.7586C17.0693 21.9029 17.7654 21.2069 18.621 21.2069C19.4767 21.2069 20.1727 21.903 20.1727 22.7586C20.1727 23.6142 19.4766 24.3103 18.621 24.3103ZM18.621 22.2414C18.3357 22.2414 18.1037 22.4732 18.1037 22.7586C18.1037 23.044 18.3355 23.2759 18.621 23.2759C18.9064 23.2759 19.1383 23.0441 19.1383 22.7586C19.1382 22.4733 18.9064 22.2414 18.621 22.2414Z" fill="#F5F5F5"/>
<path d="M20.6899 25.3448C19.8342 25.3448 19.1382 24.6488 19.1382 23.7932C19.1382 22.9375 19.8343 22.2415 20.6899 22.2415C21.5456 22.2415 22.2415 22.9376 22.2415 23.7932C22.2415 24.6488 21.5454 25.3448 20.6899 25.3448ZM20.6899 23.2759C20.4045 23.2759 20.1726 23.5077 20.1726 23.7932C20.1726 24.0785 20.4044 24.3104 20.6899 24.3104C20.9752 24.3104 21.2071 24.0786 21.2071 23.7932C21.2071 23.5077 20.9752 23.2759 20.6899 23.2759Z" fill="#F5F5F5"/>
<path d="M14.4828 25.3448C13.6271 25.3448 12.9312 24.6488 12.9312 23.7932C12.9312 22.9375 13.6272 22.2415 14.4828 22.2415C15.3385 22.2415 16.0345 22.9376 16.0345 23.7932C16.0346 24.6488 15.3385 25.3448 14.4828 25.3448ZM14.4828 23.2759C14.1975 23.2759 13.9656 23.5077 13.9656 23.7932C13.9656 24.0785 14.1974 24.3104 14.4828 24.3104C14.7683 24.3104 15.0001 24.0785 15.0001 23.793C15.0001 23.5077 14.7683 23.2759 14.4828 23.2759Z" fill="#F5F5F5"/>
<path d="M20.6897 34.1379V34.6552C20.6897 34.9404 20.4576 35.1724 20.1724 35.1724C19.8872 35.1724 19.6551 34.9404 19.6551 34.6552V34.1379H20.6897ZM21.7241 33.1035H18.6206V34.6552C18.6206 35.5109 19.3167 36.2068 20.1723 36.2068C21.028 36.2068 21.724 35.5108 21.724 34.6552L21.7241 33.1035Z" fill="#FAB446"/>
<path d="M20.1722 31.0345C19.6009 31.0345 19.1377 30.5713 19.1377 30V28.9655C19.1377 28.3942 19.6009 27.9309 20.1722 27.9309C20.7435 27.9309 21.2068 28.3942 21.2068 28.9655V30C21.2068 30.5713 20.7435 31.0345 20.1722 31.0345Z" fill="#FFA0D2"/>
<path d="M17.5863 33.6201C18.4433 33.6201 19.138 32.9253 19.138 32.0684C19.138 31.2114 18.4433 30.5167 17.5863 30.5167C16.7294 30.5167 16.0347 31.2114 16.0347 32.0684C16.0347 32.9253 16.7294 33.6201 17.5863 33.6201Z" fill="#5064AA"/>
<path d="M18.1039 20.6895H17.0693V23.7929H18.1039V20.6895Z" fill="#FAB446"/>
<path d="M14.4828 25.8621L13.4482 24.8276L14.0542 24.2216C14.9909 23.2849 16.2614 22.7586 17.5862 22.7586C18.9111 22.7586 20.1815 23.2849 21.1183 24.2216L21.7243 24.8276L20.6897 25.8621H14.4828Z" fill="#C8414B"/>
<path d="M17.5861 25.3446C17.8718 25.3446 18.1034 25.113 18.1034 24.8274C18.1034 24.5417 17.8718 24.3101 17.5861 24.3101C17.3004 24.3101 17.0688 24.5417 17.0688 24.8274C17.0688 25.113 17.3004 25.3446 17.5861 25.3446Z" fill="#FFD250"/>
<path d="M15.5168 25.3446C15.8025 25.3446 16.034 25.113 16.034 24.8274C16.034 24.5417 15.8025 24.3101 15.5168 24.3101C15.2311 24.3101 14.9995 24.5417 14.9995 24.8274C14.9995 25.113 15.2311 25.3446 15.5168 25.3446Z" fill="#FFD250"/>
<path d="M19.6545 25.3446C19.9402 25.3446 20.1717 25.113 20.1717 24.8274C20.1717 24.5417 19.9402 24.3101 19.6545 24.3101C19.3688 24.3101 19.1372 24.5417 19.1372 24.8274C19.1372 25.113 19.3688 25.3446 19.6545 25.3446Z" fill="#FFD250"/>
<path d="M13.4485 30H8.27588V31.0345H13.4485V30Z" fill="#C8414B"/>
<path d="M8.27588 34.1379L11.3792 33.1035V32.0689L8.27588 33.1035V34.1379Z" fill="#C8414B"/>
</svg>
