<svg width="10" height="10" viewBox="0 0 10 10" fill="none" xmlns="http://www.w3.org/2000/svg">
<g clip-path="url(#clip0_101_285)">
<path d="M9.81235 3.70891C9.73891 3.49031 9.54969 3.33094 9.32188 3.29609L6.67048 2.89094L5.47954 0.353906C5.37797 0.137656 5.16094 0 4.92251 0C4.68391 0 4.46704 0.137656 4.36547 0.353906L3.17438 2.89109L0.522975 3.29625C0.295163 3.33109 0.105944 3.49031 0.0326626 3.70906C-0.0406186 3.92781 0.0146939 4.16875 0.175788 4.33406L2.11204 6.31953L1.65344 9.12844C1.61563 9.36094 1.71422 9.59469 1.90657 9.73063C2.09876 9.86656 2.35251 9.88031 2.55922 9.76625L4.92266 8.45922L7.2861 9.76625C7.37938 9.81781 7.48204 9.84312 7.58422 9.84312C7.7086 9.84312 7.83297 9.80531 7.93876 9.73063C8.1311 9.59484 8.22954 9.36109 8.19172 9.12844L7.73313 6.31953L9.66954 4.33406C9.83032 4.16875 9.88563 3.92781 9.81235 3.70891Z" fill="#58595B" fill-opacity="0.6"/>
</g>
<defs>
<clipPath id="clip0_101_285">
<rect width="10" height="10" fill="white"/>
</clipPath>
</defs>
</svg>
