<svg width="18" height="18" viewBox="0 0 18 18" fill="none" xmlns="http://www.w3.org/2000/svg">
<g clip-path="url(#clip0_275_6506)">
<path d="M11.5548 5.41615L11.6681 5.65765L11.9319 5.69795L16.7043 6.42722C16.7043 6.42722 16.7044 6.42723 16.7044 6.42723C16.9288 6.46158 17.1158 6.61863 17.1886 6.83475C17.261 7.05086 17.2066 7.28891 17.0473 7.45271L13.5622 11.0261L13.386 11.2067L13.4267 11.4557L14.2521 16.5114C14.2894 16.7411 14.1922 16.9723 14.0019 17.1067L14.0019 17.1067C13.8977 17.1802 13.775 17.2176 13.6521 17.2176C13.5508 17.2176 13.4496 17.1926 13.3574 17.1417L9.10329 14.789L8.86132 14.6552L8.61934 14.789L4.36557 17.1415C4.16041 17.2547 3.90971 17.2403 3.72108 17.1069L3.72093 17.1068C3.53011 16.972 3.43303 16.7405 3.47022 16.5116C3.47023 16.5115 3.47023 16.5115 3.47024 16.5115L4.29566 11.4557L4.33631 11.2067L4.16016 11.0261L0.675036 7.45236C0.515448 7.28859 0.461184 7.05077 0.533422 6.83514C0.605827 6.619 0.792604 6.46192 1.01741 6.42751C1.01743 6.42751 1.01745 6.42751 1.01748 6.4275L5.78994 5.69823L6.05365 5.65793L6.16702 5.41645L8.31095 0.849583C8.41138 0.635754 8.6254 0.5 8.86104 0.5C9.09643 0.5 9.31067 0.635783 9.41108 0.849497C9.41109 0.849526 9.41111 0.849555 9.41112 0.849583L11.5548 5.41615Z" fill="#F58220" fill-opacity="0.3" stroke="#58595B"/>
</g>
<defs>
<clipPath id="clip0_275_6506">
<rect width="18" height="18" fill="white"/>
</clipPath>
</defs>
</svg>
