<svg width="20" height="20" viewBox="0 0 20 20" fill="none" xmlns="http://www.w3.org/2000/svg">
<g clip-path="url(#clip0_35_110)">
<path d="M16.25 10C16.25 13.4375 13.4375 16.25 10 16.25C6.5625 16.25 3.75 13.4375 3.75 10C3.75 6.5625 6.5625 3.75 10 3.75C13.4375 3.75 16.25 6.5625 16.25 10Z" fill="white"/>
<path d="M10 0.625C9.625 0.625 9.375 0.875 9.375 1.25V2.5C9.375 2.875 9.625 3.125 10 3.125C10.375 3.125 10.625 2.875 10.625 2.5V1.25C10.625 0.875 10.375 0.625 10 0.625Z" fill="white"/>
<path d="M10 16.875C9.625 16.875 9.375 17.125 9.375 17.5V18.75C9.375 19.125 9.625 19.375 10 19.375C10.375 19.375 10.625 19.125 10.625 18.75V17.5C10.625 17.125 10.375 16.875 10 16.875Z" fill="white"/>
<path d="M18.75 9.375H17.5C17.125 9.375 16.875 9.625 16.875 10C16.875 10.375 17.125 10.625 17.5 10.625H18.75C19.125 10.625 19.375 10.375 19.375 10C19.375 9.625 19.125 9.375 18.75 9.375Z" fill="white"/>
<path d="M2.5 9.375H1.25C0.875 9.375 0.625 9.625 0.625 10C0.625 10.375 0.875 10.625 1.25 10.625H2.5C2.875 10.625 3.125 10.375 3.125 10C3.125 9.625 2.875 9.375 2.5 9.375Z" fill="white"/>
<path d="M15.75 3.375L14.875 4.25C14.625 4.5 14.625 4.875 14.875 5.125C15 5.25 15.1875 5.3125 15.3125 5.3125C15.4375 5.3125 15.625 5.25 15.75 5.125L16.625 4.25C16.875 4 16.875 3.625 16.625 3.375C16.375 3.125 16 3.125 15.75 3.375Z" fill="white"/>
<path d="M4.25 14.875L3.375 15.75C3.125 16 3.125 16.375 3.375 16.625C3.5 16.75 3.6875 16.8125 3.8125 16.8125C3.9375 16.8125 4.125 16.75 4.25 16.625L5.125 15.75C5.375 15.5 5.375 15.125 5.125 14.875C4.875 14.625 4.5 14.625 4.25 14.875Z" fill="white"/>
<path d="M4.25 3.375C4 3.125 3.625 3.125 3.375 3.375C3.125 3.625 3.125 4 3.375 4.25L4.25 5.125C4.375 5.25 4.5625 5.3125 4.6875 5.3125C4.8125 5.3125 5 5.25 5.125 5.125C5.375 4.875 5.375 4.5 5.125 4.25L4.25 3.375Z" fill="white"/>
<path d="M15.75 14.875C15.5 14.625 15.125 14.625 14.875 14.875C14.625 15.125 14.625 15.5 14.875 15.75L15.75 16.625C15.875 16.75 16.0625 16.8125 16.1875 16.8125C16.3125 16.8125 16.5 16.75 16.625 16.625C16.875 16.375 16.875 16 16.625 15.75L15.75 14.875Z" fill="white"/>
</g>
<defs>
<clipPath id="clip0_35_110">
<rect width="20" height="20" fill="white"/>
</clipPath>
</defs>
</svg>
