<svg width="20" height="20" viewBox="0 0 20 20" fill="none" xmlns="http://www.w3.org/2000/svg">
<path d="M8.12499 15.515C8.75459 15.515 9.26499 15.0046 9.26499 14.375C9.26499 13.7454 8.75459 13.235 8.12499 13.235C7.49538 13.235 6.98499 13.7454 6.98499 14.375C6.98499 15.0046 7.49538 15.515 8.12499 15.515Z" fill="#F58220"/>
<path d="M2.1875 18.4375H14.0625V1.5625H2.1875V18.4375ZM11.5262 14.8728C11.517 14.9357 11.4888 14.9943 11.4455 15.0407C11.4021 15.0872 11.3455 15.1193 11.2834 15.1328L10.8809 15.2203C10.8272 15.3951 10.7571 15.5644 10.6716 15.7259L10.8944 16.0725C10.9287 16.126 10.9459 16.1887 10.9437 16.2523C10.9415 16.3158 10.9199 16.3772 10.8819 16.4281C10.6828 16.6957 10.4457 16.9328 10.1781 17.1319C10.1272 17.1699 10.0658 17.1915 10.0023 17.1937C9.93872 17.1959 9.87601 17.1787 9.8225 17.1444L9.47625 16.9212C9.31461 17.007 9.14521 17.0772 8.97031 17.1309L8.88281 17.5334C8.86931 17.5955 8.83719 17.6521 8.79074 17.6955C8.74428 17.7388 8.6857 17.767 8.62281 17.7762C8.29271 17.8247 7.95729 17.8247 7.62719 17.7762C7.5643 17.767 7.50572 17.7388 7.45926 17.6955C7.41281 17.6521 7.38069 17.5955 7.36719 17.5334L7.27969 17.1309C7.10493 17.0772 6.93563 17.0071 6.77406 16.9216L6.4275 17.1444C6.37399 17.1787 6.31128 17.1959 6.24773 17.1937C6.18419 17.1915 6.12284 17.1699 6.07188 17.1319C5.80432 16.9328 5.56724 16.6957 5.36812 16.4281C5.33011 16.3772 5.30855 16.3158 5.30631 16.2523C5.30408 16.1887 5.32128 16.126 5.35563 16.0725L5.57875 15.7263C5.49301 15.5646 5.4228 15.3952 5.36906 15.2203L4.96656 15.1328C4.90445 15.1193 4.84793 15.0872 4.80455 15.0407C4.76116 14.9943 4.73298 14.9357 4.72375 14.8728C4.6753 14.5427 4.6753 14.2073 4.72375 13.8772C4.73298 13.8143 4.76116 13.7557 4.80455 13.7093C4.84793 13.6628 4.90445 13.6307 4.96656 13.6172L5.36906 13.5297C5.42277 13.3549 5.49288 13.1856 5.57844 13.0241L5.35563 12.6775C5.32128 12.624 5.30408 12.5613 5.30631 12.4977C5.30855 12.4342 5.33011 12.3728 5.36812 12.3219C5.56724 12.0543 5.80432 11.8172 6.07188 11.6181C6.12284 11.5801 6.18419 11.5585 6.24773 11.5563C6.31128 11.5541 6.37399 11.5713 6.4275 11.6056L6.77375 11.8288C6.93538 11.743 7.10479 11.6728 7.27969 11.6191L7.36719 11.2166C7.38069 11.1545 7.41281 11.0979 7.45926 11.0545C7.50572 11.0112 7.5643 10.983 7.62719 10.9738C7.9573 10.9253 8.2927 10.9253 8.62281 10.9738C8.6857 10.983 8.74428 11.0112 8.79074 11.0545C8.83719 11.0979 8.86931 11.1545 8.88281 11.2166L8.97031 11.6191C9.14508 11.6728 9.31437 11.7429 9.47594 11.8284L9.8225 11.6056C9.87601 11.5713 9.93872 11.5541 10.0023 11.5563C10.0658 11.5585 10.1272 11.5801 10.1781 11.6181C10.4457 11.8172 10.6828 12.0543 10.8819 12.3219C10.9199 12.3728 10.9415 12.4342 10.9437 12.4977C10.9459 12.5613 10.9287 12.624 10.8944 12.6775L10.6712 13.0237C10.757 13.1854 10.8272 13.3548 10.8809 13.5297L11.2834 13.6172C11.3455 13.6307 11.4021 13.6628 11.4455 13.7093C11.4888 13.7557 11.517 13.8143 11.5262 13.8772C11.5747 14.2073 11.5747 14.5427 11.5262 14.8728ZM3.4375 2.5C3.4375 2.41712 3.47042 2.33763 3.52903 2.27903C3.58763 2.22042 3.66712 2.1875 3.75 2.1875H12.5C12.5829 2.1875 12.6624 2.22042 12.721 2.27903C12.7796 2.33763 12.8125 2.41712 12.8125 2.5V6.25C12.8125 6.33288 12.7796 6.41237 12.721 6.47097C12.6624 6.52958 12.5829 6.5625 12.5 6.5625H3.75C3.66712 6.5625 3.58763 6.52958 3.52903 6.47097C3.47042 6.41237 3.4375 6.33288 3.4375 6.25V2.5ZM3.75 7.1875H12.5C12.5829 7.1875 12.6624 7.22042 12.721 7.27903C12.7796 7.33763 12.8125 7.41712 12.8125 7.5C12.8125 7.58288 12.7796 7.66237 12.721 7.72097C12.6624 7.77958 12.5829 7.8125 12.5 7.8125H3.75C3.66712 7.8125 3.58763 7.77958 3.52903 7.72097C3.47042 7.66237 3.4375 7.58288 3.4375 7.5C3.4375 7.41712 3.47042 7.33763 3.52903 7.27903C3.58763 7.22042 3.66712 7.1875 3.75 7.1875ZM3.75 8.4375H12.5C12.5829 8.4375 12.6624 8.47042 12.721 8.52903C12.7796 8.58763 12.8125 8.66712 12.8125 8.75C12.8125 8.83288 12.7796 8.91237 12.721 8.97097C12.6624 9.02958 12.5829 9.0625 12.5 9.0625H3.75C3.66712 9.0625 3.58763 9.02958 3.52903 8.97097C3.47042 8.91237 3.4375 8.83288 3.4375 8.75C3.4375 8.66712 3.47042 8.58763 3.52903 8.52903C3.58763 8.47042 3.66712 8.4375 3.75 8.4375ZM3.75 9.6875H12.5C12.5829 9.6875 12.6624 9.72042 12.721 9.77903C12.7796 9.83763 12.8125 9.91712 12.8125 10C12.8125 10.0829 12.7796 10.1624 12.721 10.221C12.6624 10.2796 12.5829 10.3125 12.5 10.3125H3.75C3.66712 10.3125 3.58763 10.2796 3.52903 10.221C3.47042 10.1624 3.4375 10.0829 3.4375 10C3.4375 9.91712 3.47042 9.83763 3.52903 9.77903C3.58763 9.72042 3.66712 9.6875 3.75 9.6875Z" fill="#F58220"/>
<path d="M14.375 0.9375H1.875C1.79212 0.9375 1.71263 0.970424 1.65403 1.02903C1.59542 1.08763 1.5625 1.16712 1.5625 1.25V18.75C1.5625 18.8329 1.59542 18.9124 1.65403 18.971C1.71263 19.0296 1.79212 19.0625 1.875 19.0625H14.375C14.4579 19.0625 14.5374 19.0296 14.596 18.971C14.6546 18.9124 14.6875 18.8329 14.6875 18.75V1.25C14.6875 1.16712 14.6546 1.08763 14.596 1.02903C14.5374 0.970424 14.4579 0.9375 14.375 0.9375ZM14.0625 18.4375H2.1875V1.5625H14.0625V18.4375Z" fill="#58595B"/>
<path d="M17.8125 5.3125H15.9375V15.9375H17.8125V5.3125Z" fill="#F58220"/>
<path d="M15.9375 17.5C15.9375 17.7486 16.0363 17.9871 16.2121 18.1629C16.3879 18.3387 16.6264 18.4375 16.875 18.4375C17.1236 18.4375 17.3621 18.3387 17.5379 18.1629C17.7137 17.9871 17.8125 17.7486 17.8125 17.5V16.5625H15.9375V17.5Z" fill="#58595B"/>
<path d="M16.0585 4.68741H17.6916L16.875 2.23804L16.0585 4.68741Z" fill="#58595B" fill-opacity="0.6"/>
<path d="M18.4194 4.89433L17.1716 1.1512C17.151 1.08868 17.1112 1.03424 17.0579 0.995649C17.0046 0.957057 16.9405 0.936279 16.8747 0.936279C16.8089 0.936279 16.7447 0.957057 16.6914 0.995649C16.6381 1.03424 16.5984 1.08868 16.5778 1.1512L15.3306 4.89433C15.3187 4.92827 15.3126 4.96397 15.3125 4.99995V17.5C15.3125 17.9144 15.4771 18.3118 15.7701 18.6048C16.0632 18.8978 16.4606 19.0625 16.875 19.0625C17.2894 19.0625 17.6868 18.8978 17.9799 18.6048C18.2729 18.3118 18.4375 17.9144 18.4375 17.5V4.99995C18.4374 4.96398 18.4313 4.92827 18.4194 4.89433ZM17.8125 17.5C17.8125 17.7486 17.7137 17.987 17.5379 18.1629C17.3621 18.3387 17.1236 18.4375 16.875 18.4375C16.6264 18.4375 16.3879 18.3387 16.2121 18.1629C16.0363 17.987 15.9375 17.7486 15.9375 17.5V16.5625H17.8125V17.5ZM17.8125 15.9375H15.9375V5.31245H17.8125V15.9375ZM16.0584 4.68745L16.875 2.23808L17.6916 4.68745H16.0584Z" fill="#58595B"/>
<path d="M3.75 7.8125H12.5C12.5829 7.8125 12.6624 7.77958 12.721 7.72097C12.7796 7.66237 12.8125 7.58288 12.8125 7.5C12.8125 7.41712 12.7796 7.33763 12.721 7.27903C12.6624 7.22042 12.5829 7.1875 12.5 7.1875H3.75C3.66712 7.1875 3.58763 7.22042 3.52903 7.27903C3.47042 7.33763 3.4375 7.41712 3.4375 7.5C3.4375 7.58288 3.47042 7.66237 3.52903 7.72097C3.58763 7.77958 3.66712 7.8125 3.75 7.8125Z" fill="#58595B"/>
<path d="M3.75 9.0625H12.5C12.5829 9.0625 12.6624 9.02958 12.721 8.97097C12.7796 8.91237 12.8125 8.83288 12.8125 8.75C12.8125 8.66712 12.7796 8.58763 12.721 8.52903C12.6624 8.47042 12.5829 8.4375 12.5 8.4375H3.75C3.66712 8.4375 3.58763 8.47042 3.52903 8.52903C3.47042 8.58763 3.4375 8.66712 3.4375 8.75C3.4375 8.83288 3.47042 8.91237 3.52903 8.97097C3.58763 9.02958 3.66712 9.0625 3.75 9.0625Z" fill="#58595B"/>
<path d="M3.75 10.3125H12.5C12.5829 10.3125 12.6624 10.2796 12.721 10.221C12.7796 10.1624 12.8125 10.0829 12.8125 10C12.8125 9.91712 12.7796 9.83763 12.721 9.77903C12.6624 9.72042 12.5829 9.6875 12.5 9.6875H3.75C3.66712 9.6875 3.58763 9.72042 3.52903 9.77903C3.47042 9.83763 3.4375 9.91712 3.4375 10C3.4375 10.0829 3.47042 10.1624 3.52903 10.221C3.58763 10.2796 3.66712 10.3125 3.75 10.3125Z" fill="#58595B"/>
<path d="M12.1875 2.8125H4.0625V5.9375H12.1875V2.8125Z" fill="white"/>
<path d="M3.75 6.5625H12.5C12.5829 6.5625 12.6624 6.52958 12.721 6.47097C12.7796 6.41237 12.8125 6.33288 12.8125 6.25V2.5C12.8125 2.41712 12.7796 2.33763 12.721 2.27903C12.6624 2.22042 12.5829 2.1875 12.5 2.1875H3.75C3.66712 2.1875 3.58763 2.22042 3.52903 2.27903C3.47042 2.33763 3.4375 2.41712 3.4375 2.5V6.25C3.4375 6.33288 3.47042 6.41237 3.52903 6.47097C3.58763 6.52958 3.66712 6.5625 3.75 6.5625ZM4.0625 2.8125H12.1875V5.9375H4.0625V2.8125Z" fill="#58595B"/>
<path d="M10.3244 13.8652C10.2682 13.6228 10.1723 13.3914 10.0407 13.1802C10.0093 13.13 9.99289 13.0719 9.99328 13.0127C9.99366 12.9535 10.0109 12.8957 10.0429 12.8459L10.2469 12.5287C10.1614 12.4307 10.0693 12.3386 9.97129 12.253L9.65411 12.4571C9.6043 12.4891 9.54643 12.5063 9.48724 12.5067C9.42804 12.5071 9.36995 12.4906 9.31973 12.4593C9.10856 12.3277 8.87712 12.2318 8.63473 12.1755C8.57708 12.1622 8.52441 12.1327 8.48286 12.0905C8.44132 12.0484 8.41259 11.9953 8.40004 11.9374L8.32004 11.5693C8.1903 11.5602 8.06009 11.5602 7.93036 11.5693L7.85004 11.9374C7.83749 11.9953 7.80877 12.0484 7.76722 12.0905C7.72567 12.1327 7.67301 12.1622 7.61536 12.1755C7.37297 12.2318 7.14153 12.3277 6.93036 12.4593C6.88014 12.4906 6.82205 12.5071 6.76285 12.5067C6.70365 12.5063 6.64578 12.4891 6.59598 12.4571L6.27879 12.253C6.18078 12.3386 6.08869 12.4307 6.00317 12.5287L6.20723 12.8459C6.23923 12.8957 6.25642 12.9535 6.25681 13.0127C6.2572 13.0719 6.24076 13.13 6.20942 13.1802C6.07781 13.3914 5.98194 13.6229 5.92567 13.8652C5.91228 13.9229 5.88279 13.9756 5.84063 14.0171C5.79847 14.0586 5.74539 14.0874 5.68754 14.0999L5.31942 14.1802C5.31036 14.31 5.31036 14.4402 5.31942 14.5699L5.68754 14.6499C5.74539 14.6625 5.79847 14.6912 5.84063 14.7327C5.88279 14.7743 5.91228 14.827 5.92567 14.8846C5.98195 15.127 6.07782 15.3584 6.20942 15.5696C6.24076 15.6198 6.2572 15.6779 6.25681 15.7371C6.25642 15.7963 6.23923 15.8542 6.20723 15.904L6.00317 16.2212C6.08868 16.3192 6.18077 16.4113 6.27879 16.4968L6.59598 16.2927C6.64578 16.2607 6.70365 16.2435 6.76285 16.2432C6.82205 16.2428 6.88014 16.2592 6.93036 16.2905C7.14154 16.4221 7.37298 16.518 7.61536 16.5743C7.67301 16.5877 7.72567 16.6172 7.76722 16.6593C7.80877 16.7015 7.83749 16.7546 7.85004 16.8124L7.93036 17.1805C8.06009 17.1896 8.1903 17.1896 8.32004 17.1805L8.40004 16.8124C8.41259 16.7546 8.44132 16.7015 8.48286 16.6593C8.52441 16.6172 8.57708 16.5877 8.63473 16.5743C8.87711 16.518 9.10855 16.4221 9.31973 16.2905C9.36995 16.2592 9.42804 16.2428 9.48724 16.2432C9.54643 16.2435 9.6043 16.2607 9.65411 16.2927L9.97129 16.4968C10.0693 16.4113 10.1614 16.3192 10.2469 16.2212L10.0429 15.904C10.0109 15.8542 9.99366 15.7963 9.99328 15.7371C9.99289 15.6779 10.0093 15.6198 10.0407 15.5696C10.1723 15.3584 10.2681 15.127 10.3244 14.8846C10.3378 14.827 10.3673 14.7743 10.4095 14.7327C10.4516 14.6912 10.5047 14.6625 10.5625 14.6499L10.9307 14.5696C10.9397 14.4399 10.9397 14.3097 10.9307 14.1799L10.5625 14.0999C10.5047 14.0874 10.4516 14.0586 10.4095 14.0171C10.3673 13.9756 10.3378 13.9229 10.3244 13.8652ZM8.12504 16.1399C7.77596 16.1399 7.43471 16.0364 7.14446 15.8425C6.85421 15.6485 6.62798 15.3729 6.4944 15.0504C6.36081 14.7278 6.32585 14.373 6.39396 14.0306C6.46206 13.6882 6.63016 13.3737 6.877 13.1269C7.12384 12.88 7.43833 12.7119 7.78071 12.6438C8.12308 12.5757 8.47797 12.6107 8.80048 12.7443C9.12299 12.8779 9.39865 13.1041 9.59259 13.3943C9.78653 13.6846 9.89004 14.0258 9.89004 14.3749C9.88979 14.843 9.70376 15.2917 9.37281 15.6227C9.04186 15.9536 8.59307 16.1397 8.12504 16.1399Z" fill="#F58220"/>
<path d="M11.2834 13.6171L10.8809 13.5296C10.8272 13.3547 10.757 13.1853 10.6712 13.0237L10.8943 12.6774C10.9287 12.6239 10.9459 12.5612 10.9436 12.4977C10.9414 12.4341 10.9199 12.3728 10.8818 12.3218C10.6827 12.0543 10.4456 11.8172 10.1781 11.6181C10.1271 11.5801 10.0658 11.5585 10.0022 11.5563C9.93868 11.554 9.87597 11.5712 9.82246 11.6056L9.4759 11.8284C9.31433 11.7428 9.14504 11.6727 8.97027 11.619L8.88277 11.2165C8.86927 11.1544 8.83715 11.0979 8.7907 11.0545C8.74424 11.0111 8.68566 10.9829 8.62277 10.9737C8.29267 10.9253 7.95726 10.9253 7.62715 10.9737C7.56426 10.9829 7.50568 11.0111 7.45923 11.0545C7.41277 11.0979 7.38065 11.1544 7.36715 11.2165L7.27965 11.619C7.10475 11.6727 6.93534 11.743 6.77371 11.8287L6.42746 11.6056C6.37395 11.5712 6.31124 11.554 6.2477 11.5563C6.18415 11.5585 6.1228 11.5801 6.07184 11.6181C5.80428 11.8172 5.5672 12.0543 5.36809 12.3218C5.33007 12.3728 5.30851 12.4341 5.30628 12.4977C5.30404 12.5612 5.32124 12.6239 5.35559 12.6774L5.5784 13.024C5.49284 13.1856 5.42273 13.3549 5.36902 13.5296L4.96652 13.6171C4.90441 13.6306 4.84789 13.6628 4.80451 13.7092C4.76113 13.7557 4.73294 13.8142 4.72371 13.8771C4.67527 14.2072 4.67527 14.5427 4.72371 14.8728C4.73294 14.9356 4.76113 14.9942 4.80451 15.0407C4.84789 15.0871 4.90441 15.1193 4.96652 15.1328L5.36902 15.2203C5.42277 15.3952 5.49298 15.5646 5.57871 15.7262L5.35559 16.0724C5.32124 16.126 5.30404 16.1887 5.30628 16.2522C5.30851 16.3158 5.33007 16.3771 5.36809 16.4281C5.5672 16.6956 5.80428 16.9327 6.07184 17.1318C6.1228 17.1698 6.18415 17.1914 6.2477 17.1936C6.31124 17.1959 6.37395 17.1787 6.42746 17.1443L6.77402 16.9215C6.9356 17.0071 7.10489 17.0772 7.27965 17.1309L7.36715 17.5334C7.38065 17.5955 7.41277 17.652 7.45923 17.6954C7.50568 17.7388 7.56426 17.767 7.62715 17.7762C7.95726 17.8246 8.29267 17.8246 8.62277 17.7762C8.68566 17.767 8.74424 17.7388 8.7907 17.6954C8.83715 17.652 8.86927 17.5955 8.88277 17.5334L8.97027 17.1309C9.14517 17.0771 9.31458 17.0069 9.47621 16.9212L9.82246 17.1443C9.87597 17.1787 9.93868 17.1959 10.0022 17.1936C10.0658 17.1914 10.1271 17.1698 10.1781 17.1318C10.4456 16.9327 10.6827 16.6956 10.8818 16.4281C10.9199 16.3771 10.9414 16.3158 10.9436 16.2522C10.9459 16.1887 10.9287 16.126 10.8943 16.0724L10.6715 15.7259C10.7571 15.5643 10.8272 15.395 10.8809 15.2203L11.2834 15.1328C11.3455 15.1193 11.402 15.0871 11.4454 15.0407C11.4888 14.9942 11.517 14.9356 11.5262 14.8728C11.5746 14.5427 11.5746 14.2072 11.5262 13.8771C11.517 13.8142 11.4888 13.7557 11.4454 13.7092C11.402 13.6628 11.3455 13.6306 11.2834 13.6171ZM10.9306 14.5696L10.5625 14.6499C10.5046 14.6625 10.4515 14.6912 10.4094 14.7328C10.3672 14.7743 10.3377 14.827 10.3243 14.8846C10.2681 15.127 10.1722 15.3585 10.0406 15.5696C10.0092 15.6199 9.99281 15.6779 9.9932 15.7371C9.99358 15.7963 10.0108 15.8542 10.0428 15.904L10.2468 16.2212C10.1613 16.3192 10.0692 16.4113 9.97121 16.4968L9.65402 16.2928C9.60422 16.2608 9.54635 16.2436 9.48715 16.2432C9.42796 16.2428 9.36987 16.2592 9.31965 16.2906C9.10847 16.4222 8.87703 16.518 8.63465 16.5743C8.577 16.5877 8.52433 16.6172 8.48278 16.6594C8.44123 16.7015 8.41251 16.7546 8.39996 16.8124L8.31996 17.1806C8.19022 17.1896 8.06001 17.1896 7.93027 17.1806L7.84996 16.8124C7.83741 16.7546 7.80869 16.7015 7.76714 16.6594C7.72559 16.6172 7.67293 16.5877 7.61527 16.5743C7.37289 16.518 7.14146 16.4222 6.93027 16.2906C6.88006 16.2592 6.82197 16.2428 6.76277 16.2432C6.70357 16.2436 6.6457 16.2608 6.5959 16.2928L6.27871 16.4968C6.18069 16.4113 6.0886 16.3192 6.00309 16.2212L6.20715 15.904C6.23915 15.8542 6.25634 15.7963 6.25673 15.7371C6.25712 15.6779 6.24068 15.6199 6.20934 15.5696C6.07774 15.3585 5.98187 15.127 5.92559 14.8846C5.91219 14.827 5.8827 14.7743 5.84055 14.7328C5.79839 14.6912 5.7453 14.6625 5.68746 14.6499L5.31934 14.5699C5.31028 14.4402 5.31028 14.31 5.31934 14.1803L5.68746 14.0999C5.7453 14.0874 5.79839 14.0587 5.84055 14.0171C5.8827 13.9756 5.91219 13.9229 5.92559 13.8653C5.98186 13.6229 6.07773 13.3914 6.20934 13.1803C6.24068 13.13 6.25712 13.072 6.25673 13.0128C6.25634 12.9536 6.23915 12.8957 6.20715 12.8459L6.00309 12.5287C6.08861 12.4307 6.1807 12.3386 6.27871 12.2531L6.5959 12.4571C6.6457 12.4891 6.70357 12.5063 6.76277 12.5067C6.82197 12.5071 6.88006 12.4907 6.93027 12.4593C7.14145 12.3277 7.37289 12.2318 7.61527 12.1756C7.67293 12.1622 7.72559 12.1327 7.76714 12.0905C7.80869 12.0484 7.83741 11.9953 7.84996 11.9374L7.92996 11.5693C8.0597 11.5603 8.18991 11.5603 8.31965 11.5693L8.39996 11.9374C8.41251 11.9953 8.44123 12.0484 8.48278 12.0905C8.52433 12.1327 8.577 12.1622 8.63465 12.1756C8.87703 12.2318 9.10848 12.3277 9.31965 12.4593C9.36987 12.4907 9.42796 12.5071 9.48715 12.5067C9.54635 12.5063 9.60422 12.4891 9.65402 12.4571L9.97121 12.2531C10.0692 12.3386 10.1613 12.4307 10.2468 12.5287L10.0428 12.8459C10.0108 12.8957 9.99358 12.9536 9.9932 13.0128C9.99281 13.072 10.0092 13.13 10.0406 13.1803C10.1722 13.3914 10.2681 13.6229 10.3243 13.8653C10.3377 13.9229 10.3672 13.9756 10.4094 14.0171C10.4515 14.0587 10.5046 14.0874 10.5625 14.0999L10.9306 14.1799C10.9396 14.3097 10.9396 14.4399 10.9306 14.5696Z" fill="#58595B"/>
<path d="M8.12499 12.61C7.7759 12.61 7.43466 12.7135 7.1444 12.9074C6.85415 13.1014 6.62793 13.377 6.49434 13.6995C6.36075 14.0221 6.3258 14.3769 6.3939 14.7193C6.462 15.0617 6.6301 15.3762 6.87694 15.623C7.12378 15.8699 7.43828 16.038 7.78065 16.1061C8.12303 16.1742 8.47791 16.1392 8.80042 16.0056C9.12293 15.872 9.39859 15.6458 9.59253 15.3556C9.78647 15.0653 9.88999 14.7241 9.88999 14.375C9.88974 13.907 9.7037 13.4582 9.37275 13.1272C9.04181 12.7963 8.59302 12.6102 8.12499 12.61ZM8.12499 15.5162C7.89957 15.5162 7.67921 15.4494 7.49177 15.3242C7.30432 15.199 7.1582 15.021 7.07188 14.8128C6.98556 14.6045 6.96291 14.3754 7.0068 14.1543C7.05069 13.9332 7.15914 13.7301 7.31844 13.5706C7.47775 13.4111 7.68076 13.3024 7.90182 13.2583C8.12287 13.2142 8.35205 13.2366 8.56038 13.3227C8.76871 13.4087 8.94684 13.5547 9.07225 13.742C9.19767 13.9293 9.26474 14.1496 9.26499 14.375C9.2649 14.6773 9.14477 14.9672 8.931 15.181C8.71722 15.3948 8.42731 15.5149 8.12499 15.515V15.5162Z" fill="#58595B"/>
</svg>
