<svg width="20" height="20" viewBox="0 0 20 20" fill="none" xmlns="http://www.w3.org/2000/svg">
<g clip-path="url(#clip0_35_34)">
<path d="M15.4707 2.65438C13.7589 0.942617 11.4832 0 9.0625 0C6.6418 0 4.36605 0.942617 2.65434 2.65434C0.942617 4.36598 0 6.6418 0 9.0625C0 11.4832 0.942617 13.7589 2.65434 15.4707C4.36598 17.1823 6.6418 18.125 9.0625 18.125C9.82973 18.125 10.5919 18.0289 11.328 17.8395L11.1722 17.2342C10.487 17.4106 9.77723 17.5 9.0625 17.5C4.41004 17.5 0.625 13.715 0.625 9.0625C0.625 4.41004 4.41004 0.625 9.0625 0.625C13.715 0.625 17.5 4.41004 17.5 9.0625C17.5 9.82387 17.3986 10.5785 17.1987 11.3054L17.8013 11.4711C18.0161 10.6902 18.1249 9.87992 18.1249 9.0625C18.125 6.6418 17.1823 4.36606 15.4707 2.65438Z" fill="#F58220"/>
<path d="M9.0625 0.937561C4.58238 0.937561 0.9375 4.5824 0.9375 9.06252C0.9375 13.5427 4.58238 17.1875 9.0625 17.1875C9.72184 17.1875 10.3778 17.1083 11.0122 16.9521L10.8627 16.3452C10.2771 16.4895 9.67148 16.5626 9.06246 16.5626C4.92695 16.5626 1.56246 13.1981 1.56246 9.06256C1.56246 4.92701 4.92695 1.56256 9.06246 1.56256C13.198 1.56256 16.5625 4.92705 16.5625 9.06256C16.5625 9.67158 16.4893 10.2772 16.3451 10.8627L16.952 11.0122C17.1083 10.3778 17.1875 9.72186 17.1875 9.06252C17.1875 4.5824 13.5426 0.937561 9.0625 0.937561Z" fill="#F58220"/>
<path d="M15.625 11.25C13.2126 11.25 11.25 13.2126 11.25 15.625C11.25 18.0374 13.2126 20 15.625 20C18.0374 20 20 18.0374 20 15.625C20 13.2126 18.0374 11.25 15.625 11.25ZM15.625 19.375C13.5572 19.375 11.875 17.6928 11.875 15.625C11.875 13.5572 13.5572 11.875 15.625 11.875C17.6928 11.875 19.375 13.5572 19.375 15.625C19.375 17.6928 17.6928 19.375 15.625 19.375Z" fill="#58595B"/>
<path d="M15.625 12.1875C13.7295 12.1875 12.1875 13.7295 12.1875 15.625C12.1875 17.5205 13.7295 19.0625 15.625 19.0625C17.5205 19.0625 19.0625 17.5205 19.0625 15.625C19.0625 13.7295 17.5205 12.1875 15.625 12.1875ZM15.625 18.4375C14.0742 18.4375 12.8125 17.1758 12.8125 15.625C12.8125 14.0742 14.0742 12.8125 15.625 12.8125C17.1758 12.8125 18.4375 14.0742 18.4375 15.625C18.4375 17.1758 17.1758 18.4375 15.625 18.4375Z" fill="#58595B"/>
<path d="M9.38371 2.19421H8.76746V3.42667H9.38371V2.19421Z" fill="#F58220"/>
<path d="M4.42226 3.98015L3.98035 4.42206L4.86422 5.30593L5.30613 4.86402L4.42226 3.98015Z" fill="#F58220"/>
<path d="M3.42667 8.7674H2.19421V9.38365H3.42667V8.7674Z" fill="#F58220"/>
<path d="M4.86373 12.8196L3.97986 13.7034L4.42177 14.1453L5.30564 13.2615L4.86373 12.8196Z" fill="#F58220"/>
<path d="M9.38371 14.6833H8.76746V15.9568H9.38371V14.6833Z" fill="#F58220"/>
<path d="M15.9568 8.7674H14.6832V9.38365H15.9568V8.7674Z" fill="#F58220"/>
<path d="M13.7029 3.98029L12.8191 4.86414L13.2611 5.3061L14.1449 4.42225L13.7029 3.98029Z" fill="#F58220"/>
<path d="M9.95213 8.76754C9.82823 8.39469 9.47635 8.125 9.06245 8.125C8.54549 8.125 8.12495 8.54551 8.12495 9.06246C8.12495 9.20703 8.15788 9.34398 8.21655 9.46641L5.09143 12.5915L5.53338 13.0335L8.6585 9.90836C8.78088 9.96703 8.91784 9.99996 9.06241 9.99996C9.46655 9.99996 9.81174 9.74289 9.94319 9.38371H12.506V8.76746H9.95213V8.76754ZM9.06245 9.375C8.89014 9.375 8.74995 9.2348 8.74995 9.0625C8.74995 8.8902 8.89014 8.75004 9.06245 8.75004C9.23475 8.75004 9.37495 8.8902 9.37495 9.0625C9.37495 9.2348 9.23479 9.375 9.06245 9.375Z" fill="#F58220"/>
<path d="M10.3285 5.93274H7.82251V6.54899H10.3285V5.93274Z" fill="#F58220"/>
<path d="M8.43876 6.87762H7.82251V7.49387H8.43876V6.87762Z" fill="#F58220"/>
<path d="M9.38371 6.87762H8.76746V7.49387H9.38371V6.87762Z" fill="#F58220"/>
<path d="M10.3286 6.87762H9.67126V7.49387H10.3286V6.87762Z" fill="#F58220"/>
<path d="M16.6377 16.3986C16.5394 16.4501 16.3196 16.5202 16.1044 16.5202C15.8705 16.5202 15.6507 16.4501 15.5011 16.2817C15.431 16.2021 15.3795 16.0947 15.3468 15.9542H16.5208V15.622H15.2813C15.2813 15.5942 15.2813 15.5755 15.2813 15.5474C15.2813 15.5005 15.2813 15.449 15.2859 15.4022H16.5208V15.0701H15.3559C15.3886 14.9485 15.4401 14.8411 15.5056 14.7661C15.6507 14.5882 15.8564 14.5135 16.0811 14.5135C16.2868 14.5135 16.4788 14.5745 16.6003 14.6259L16.7313 14.0926C16.5629 14.0176 16.315 13.9521 16.0296 13.9521C15.5897 13.9521 15.2156 14.13 14.949 14.4294C14.7993 14.6023 14.687 14.8175 14.626 15.07H14.3125V15.4022H14.5746C14.5746 15.449 14.57 15.4959 14.57 15.5427C14.57 15.5705 14.57 15.5987 14.57 15.6219H14.3125V15.9541H14.6168C14.6588 16.202 14.7525 16.4032 14.8785 16.5624C15.1406 16.9086 15.5615 17.0956 16.0201 17.0956C16.3195 17.0956 16.5907 17.0069 16.7499 16.9178L16.6377 16.3986Z" fill="#58595B"/>
</g>
<defs>
<clipPath id="clip0_35_34">
<rect width="20" height="20" fill="white"/>
</clipPath>
</defs>
</svg>
