<svg width="80" height="80" viewBox="0 0 80 80" fill="none" xmlns="http://www.w3.org/2000/svg">
<path d="M40.079 30.7387C44.8246 30.7387 48.6515 26.9116 48.6515 22.1662C48.6515 17.4209 44.855 13.5938 40.079 13.5938C35.3334 13.5938 31.5065 17.4209 31.5065 22.1662C31.5368 26.9425 35.364 30.7387 40.079 30.7387ZM20.1784 55.5687H4.7784C-0.211916 55.5687 -0.487541 47.9453 4.87027 47.9453H18.2187L25.8728 36.6784C28.1384 33.5862 30.7103 32.1166 34.3534 32.1166H45.7734C49.4168 32.1166 51.9884 33.4637 54.254 36.6784L61.9387 47.9453H75.3793C80.7678 47.9453 80.4309 55.5687 75.5631 55.5687H60.1631C58.9384 55.5687 57.4687 55.14 56.6115 53.8237L50.7331 45.435L50.7025 66.4378H29.6387L29.6081 45.435L23.7296 53.8237C22.8725 55.1094 21.4031 55.5687 20.1784 55.5687Z" fill="#F58220"/>
<path d="M10.1562 24.5391C4.89875 24.5391 0.625 28.805 0.625 34.0547C0.625 39.3122 4.89875 43.5859 10.1562 43.5859C15.4137 43.5859 19.6875 39.3125 19.6875 34.0547C19.6722 28.805 15.3984 24.5391 10.1562 24.5391ZM10.1562 41.7028C5.93625 41.7028 2.50813 38.2747 2.50813 34.0547C2.50813 29.8347 5.93625 26.4069 10.1562 26.4069C14.3763 26.4069 17.8044 29.835 17.8044 34.055C17.7581 38.2747 14.33 41.7028 10.1562 41.7028ZM14.9066 32.1947C14.7297 31.9025 14.3609 31.7028 13.9381 31.9181L10.5638 33.4247V29.4353C10.5638 29.22 10.4869 29.0278 10.3484 28.8819L10.3406 28.8741C10.2022 28.7509 10.0409 28.6972 9.84875 28.6972C9.47969 28.6972 9.09562 28.9737 9.09562 29.435V34.6541C9.09562 34.9384 9.25719 35.2075 9.51062 35.3459C9.64125 35.4075 9.75656 35.4381 9.86406 35.4381C9.97937 35.4381 10.11 35.3997 10.2331 35.3459L14.5913 33.2628C14.7834 33.1628 14.9219 33.0016 14.9831 32.8094C15.0294 32.6097 15.0066 32.3869 14.9066 32.1947Z" fill="#F58220"/>
<path d="M75.5303 25.3856C75.1263 25.3856 74.7972 25.7147 74.7972 26.1187V28.4225C74.7972 28.8266 75.1263 29.1556 75.5303 29.1556C75.9344 29.1556 76.2634 28.8266 76.2634 28.4225V26.1187C76.2634 25.7147 75.9341 25.3856 75.5303 25.3856ZM79.375 27.51V31.3847V42.7394H62.5V31.3697V27.51H64.7891V28.4375C64.7891 29.2903 65.4772 29.9934 66.345 29.9934C67.1978 29.9934 67.9009 29.2903 67.9009 28.4375V27.51H73.9747V28.4375C73.9747 29.2903 74.6778 29.9934 75.5306 29.9934C76.3834 29.9934 77.0866 29.2903 77.0866 28.4375V27.51H79.375ZM78.4625 31.3847H63.4125V41.7969H75.1113L78.4622 38.4906L78.4625 31.3847ZM66.3447 25.3856C65.9409 25.3856 65.6116 25.7147 65.6116 26.1187V28.4225C65.6116 28.8266 65.9406 29.1556 66.3447 29.1556C66.7487 29.1556 67.0778 28.8266 67.0778 28.4225V26.1187C67.0778 25.7147 66.7487 25.3856 66.3447 25.3856ZM75.5303 25.3856C75.1263 25.3856 74.7972 25.7147 74.7972 26.1187V28.4225C74.7972 28.8266 75.1263 29.1556 75.5303 29.1556C75.9344 29.1556 76.2634 28.8266 76.2634 28.4225V26.1187C76.2634 25.7147 75.9341 25.3856 75.5303 25.3856ZM70.1041 40.3625L66.5006 36.7591L67.9388 35.3209L70.1062 37.4884L74.1459 33.4603L75.5819 34.9003L70.1041 40.3625Z" fill="#F58220"/>
</svg>
