<svg width="80" height="80" viewBox="0 0 80 80" fill="none" xmlns="http://www.w3.org/2000/svg">
<path d="M74.0086 13.7931H5.99141C2.68234 13.7931 0 16.4755 0 19.7845V60.2156C0 63.5245 2.68234 66.207 5.99141 66.207H74.0086C77.3175 66.207 80 63.5247 80 60.2156V19.7845C80 16.4755 77.3177 13.7931 74.0086 13.7931Z" fill="#41479B"/>
<path d="M79.917 18.7941C79.4448 15.9567 76.98 13.793 74.0086 13.793H72.4497L46.8966 30.5347V13.7931H33.1034V30.5348L7.55031 13.7931H5.99141C3.02 13.7931 0.555156 15.9567 0.0829688 18.7942L21.9233 33.1036H0V46.8967H21.9233L0.0829688 61.2058C0.555156 64.0431 3.02 66.2069 5.99141 66.2069H7.55031L33.1034 49.4652V66.2069H46.8966V49.4652L72.4497 66.2069H74.0086C76.98 66.2069 79.4448 64.0433 79.917 61.2058L58.0767 46.8964H80V33.1033H58.0767L79.917 18.7941Z" fill="#F5F5F5"/>
<path d="M44.138 13.7931H35.862V35.862H0V44.138H35.862V66.2069H44.138V44.138H80V35.862H44.138V13.7931Z" fill="#FF4B55"/>
<path d="M3.87406 65.8206L33.0277 46.8965H27.9608L1.44141 64.1109C2.09031 64.8683 2.92422 65.4617 3.87406 65.8206Z" fill="#FF4B55"/>
<path d="M54.123 46.8965H49.0562L77.293 65.2255C78.0832 64.7065 78.7426 64.0056 79.2129 63.1825L54.123 46.8965Z" fill="#FF4B55"/>
<path d="M0.632812 17.1055L25.2781 33.1034H30.345L2.41813 14.9753C1.66828 15.5334 1.05469 16.2631 0.632812 17.1055Z" fill="#FF4B55"/>
<path d="M51.9634 33.1034L78.5313 15.8573C77.8752 15.1025 77.0348 14.5125 76.0784 14.1605L46.8965 33.1034H51.9634Z" fill="#FF4B55"/>
</svg>
