<svg width="26" height="26" viewBox="0 0 26 26" fill="none" xmlns="http://www.w3.org/2000/svg">
<path opacity="0.26" d="M14.9656 6.14142L19.8448 11.0175L11.016 19.8467L6.14008 14.9673L14.9656 6.14142ZM11.7093 21.2474L21.2422 11.7141C21.422 11.5375 21.5347 11.2927 21.5347 11.0208C21.5347 10.7488 21.4231 10.504 21.2433 10.3274L15.6578 4.74175C15.478 4.57058 15.2332 4.4655 14.9645 4.4655C14.6959 4.4655 14.4511 4.57058 14.2712 4.74283L4.7383 14.2762C4.55848 14.4528 4.44581 14.6976 4.44581 14.9695C4.44581 15.2414 4.55739 15.4863 4.73722 15.6628L10.3227 21.2485C10.5025 21.4197 10.7473 21.5248 11.016 21.5248C11.2846 21.5248 11.5294 21.4197 11.7093 21.2474ZM25.4269 11.4183L11.433 25.4291C11.0734 25.7823 10.5805 26 10.0367 26C9.49285 26 8.99996 25.7823 8.64031 25.4291L6.69689 23.4867C7.21362 22.9537 7.53102 22.2257 7.53102 21.4229C7.53102 19.7838 6.20183 18.4546 4.56281 18.4546C3.76118 18.4546 3.03321 18.7731 2.49915 19.2898L2.50023 19.2888L0.570893 17.3453C0.217741 16.9856 0 16.4927 0 15.9488C0 15.405 0.217741 14.9121 0.570893 14.5524L14.5659 0.570917C14.9255 0.21775 15.4184 0 15.9623 0C16.5061 0 16.999 0.21775 17.3586 0.570917L19.2879 2.50033C18.7301 3.04092 18.3834 3.79708 18.3834 4.63342C18.3834 6.2725 19.7126 7.60175 21.3516 7.60175C22.189 7.60175 22.9451 7.25508 23.4846 6.69717L23.4857 6.69608L25.4291 8.6255C25.7823 8.98517 26 9.47808 26 10.0219C26 10.5658 25.7823 11.0587 25.4291 11.4183H25.4269Z" fill="#F58220"/>
</svg>
