<svg width="20" height="20" viewBox="0 0 20 20" fill="none" xmlns="http://www.w3.org/2000/svg">
<path d="M17.9674 8.94882L16.834 7.63214C16.6174 7.38214 16.4424 6.91547 16.4424 6.58214V5.16547C16.4424 4.28214 15.7174 3.55714 14.834 3.55714H13.4174C13.0924 3.55714 12.6174 3.38214 12.3674 3.16547L11.0507 2.03214C10.4757 1.54047 9.53404 1.54047 8.95071 2.03214L7.64234 3.17381C7.39234 3.38214 6.91734 3.55714 6.59234 3.55714H5.15068C4.26734 3.55714 3.54234 4.28214 3.54234 5.16547V6.59047C3.54234 6.91547 3.36734 7.38214 3.15901 7.63214L2.03401 8.95715C1.55068 9.53215 1.55068 10.4655 2.03401 11.0405L3.15901 12.3655C3.36734 12.6155 3.54234 13.0821 3.54234 13.4071V14.8321C3.54234 15.7155 4.26734 16.4405 5.15068 16.4405H6.59234C6.91734 16.4405 7.39234 16.6155 7.64234 16.8321L8.95904 17.9655C9.53404 18.4571 10.4757 18.4571 11.059 17.9655L12.3757 16.8321C12.6257 16.6155 13.0924 16.4405 13.4257 16.4405H14.8424C15.7257 16.4405 16.4507 15.7155 16.4507 14.8321V13.4155C16.4507 13.0905 16.6257 12.6155 16.8424 12.3655L17.9757 11.0488C18.459 10.4738 18.459 9.52382 17.9674 8.94882ZM13.4674 8.42382L9.44238 12.4488C9.32571 12.5655 9.16738 12.6321 9.00071 12.6321C8.83404 12.6321 8.67571 12.5655 8.55904 12.4488L6.54234 10.4321C6.30068 10.1905 6.30068 9.79048 6.54234 9.54882C6.78401 9.30715 7.18401 9.30715 7.42568 9.54882L9.00071 11.1238L12.584 7.54047C12.8257 7.29881 13.2257 7.29881 13.4674 7.54047C13.709 7.78214 13.709 8.18214 13.4674 8.42382Z" fill="#F58220"/>
</svg>
