<svg width="18" height="18" viewBox="0 0 18 18" fill="none" xmlns="http://www.w3.org/2000/svg">
<path d="M9.00036 0.00012207C13.9707 0.00012207 18.0001 4.02974 18.0001 9.00012C18.0001 13.9705 13.9707 18.0001 9.00036 18.0001C4.03002 18.0001 0.00012207 13.9704 0.00012207 9.00007C0.00012207 4.02974 4.02997 0.00012207 9.00036 0.00012207Z" fill="white"/>
<path d="M0.421077 9.81741C0.421077 4.84708 4.45098 0.817468 9.42131 0.817468C12.7458 0.817468 15.6489 2.62042 17.2072 5.30158C15.7964 2.1757 12.6524 0 9.00024 0C4.0299 0 0 4.02962 0 9C0 10.6458 0.442197 12.1882 1.21373 13.5155C0.704566 12.3874 0.421077 11.1356 0.421077 9.81741Z" fill="#58595B"/>
<path d="M9.00026 2.38953C12.6512 2.38953 15.6105 5.34895 15.6105 9.00004C15.6105 12.5975 12.7369 15.5236 9.1597 15.6084C9.1069 15.6099 9.05363 15.6105 9.00026 15.6105C5.34935 15.6105 2.38953 12.651 2.38953 9.00004C2.38953 5.34895 5.34935 2.38953 9.00026 2.38953ZM14.7343 9.5574V8.7613H13.9382V9.5574H14.7343ZM9.55751 14.7747V13.938H8.76136V14.7747H9.55751ZM9.3986 3.98234V3.18567H8.60192V3.98234H9.3986ZM3.9823 9.5574V8.7613H3.1862V9.5574H3.9823Z" fill="#F58220" fill-opacity="0.3"/>
<path d="M3.01683 9.67607C3.01683 6.02502 5.97666 3.06555 9.62756 3.06555C11.3762 3.06555 12.9659 3.7448 14.1481 4.85342C12.9364 3.35094 11.0809 2.38953 9.00026 2.38953C5.34935 2.38953 2.38953 5.34895 2.38953 9.00004C2.38953 10.9022 3.19326 12.6163 4.47923 13.8224C3.56467 12.6884 3.01683 11.2463 3.01683 9.67607Z" fill="#F58220" fill-opacity="0.3"/>
<path d="M14.7343 8.76135H13.9382V9.55745H14.7343V8.76135Z" fill="#F58220"/>
<path d="M9.55745 13.938H8.76135V14.7747H9.55745V13.938Z" fill="#F58220"/>
<path d="M9.3986 3.18567H8.60193V3.98234H9.3986V3.18567Z" fill="#F58220"/>
<path d="M3.98238 8.76135H3.18628V9.55745H3.98238V8.76135Z" fill="#F58220"/>
<path d="M9.00028 2.12952C5.211 2.12952 2.12817 5.21161 2.12817 9.00004C2.12817 12.7885 5.21095 15.8705 9.00028 15.8705C9.05622 15.8705 9.1122 15.8699 9.16594 15.8683C10.9668 15.8257 12.653 15.0921 13.9139 13.8028C15.1765 12.5117 15.8719 10.8061 15.8719 9.00004C15.8719 5.21161 12.7893 2.12952 9.00028 2.12952ZM9.15188 15.3485C9.1017 15.35 9.05094 15.3504 9.00028 15.3504C5.49925 15.3504 2.65093 12.5016 2.65093 8.99999C2.65093 5.4983 5.49925 2.64948 9.00028 2.64948C12.5011 2.64948 15.3491 5.4983 15.3491 8.99999C15.3491 12.4196 12.5698 15.2676 9.15188 15.3485Z" fill="#F58220"/>
<path d="M9.15969 16.9854C9.01536 16.9854 8.89832 16.869 8.89832 16.7254V15.6001C8.89832 15.4565 9.01536 15.3401 9.15969 15.3401C9.30408 15.3401 9.42107 15.4565 9.42107 15.6001V16.7254C9.42107 16.869 9.30408 16.9854 9.15969 16.9854Z" fill="#F58220"/>
<path d="M9.00027 2.65999C8.85594 2.65999 8.73889 2.54356 8.73889 2.39998V1.19458C8.73889 1.051 8.85594 0.93457 9.00027 0.93457C9.14465 0.93457 9.26164 1.051 9.26164 1.19458V2.39998C9.26164 2.54356 9.1446 2.65999 9.00027 2.65999Z" fill="#F58220"/>
<path d="M2.40004 9.26001H1.19509C1.05071 9.26001 0.933716 9.14363 0.933716 9C0.933716 8.85637 1.05071 8.73999 1.19509 8.73999H2.40004C2.54437 8.73999 2.66141 8.85637 2.66141 9C2.66141 9.14363 2.54437 9.26001 2.40004 9.26001Z" fill="#F58220"/>
<path d="M16.7255 9.26001H15.6C15.4556 9.26001 15.3386 9.14363 15.3386 9C15.3386 8.85637 15.4556 8.73999 15.6 8.73999H16.7255C16.8699 8.73999 16.9869 8.85637 16.9869 9C16.9869 9.14363 16.8699 9.26001 16.7255 9.26001Z" fill="#F58220"/>
<path d="M8.76139 9.81735C8.73023 9.81735 8.69907 9.81189 8.66917 9.80071L5.48299 8.60618C5.34791 8.55558 5.27964 8.4056 5.33061 8.27123C5.38153 8.13686 5.53219 8.069 5.66732 8.11959L8.73488 9.26961L12.6082 6.94529C12.7319 6.87103 12.8924 6.91066 12.967 7.03354C13.0416 7.15652 13.0018 7.31632 12.8782 7.39053L8.89636 9.77996C8.85512 9.80476 8.80843 9.81735 8.76139 9.81735Z" fill="#F58220"/>
</svg>
