<svg width="80" height="80" viewBox="0 0 80 80" fill="none" xmlns="http://www.w3.org/2000/svg">
<path d="M40.079 30.7387C44.8246 30.7387 48.6515 26.9116 48.6515 22.1662C48.6515 17.4209 44.855 13.5938 40.079 13.5938C35.3334 13.5938 31.5065 17.4209 31.5065 22.1662C31.5368 26.9425 35.364 30.7387 40.079 30.7387ZM20.1784 55.5687H4.7784C-0.211916 55.5687 -0.487541 47.9453 4.87027 47.9453H18.2187L25.8728 36.6784C28.1384 33.5862 30.7103 32.1166 34.3534 32.1166H45.7734C49.4168 32.1166 51.9884 33.4637 54.254 36.6784L61.9387 47.9453H75.3793C80.7678 47.9453 80.4309 55.5687 75.5631 55.5687H60.1631C58.9384 55.5687 57.4687 55.14 56.6115 53.8237L50.7331 45.435L50.7025 66.4378H29.6387L29.6081 45.435L23.7296 53.8237C22.8725 55.1094 21.4031 55.5687 20.1784 55.5687Z" fill="#F58220"/>
</svg>
