<svg width="18" height="18" viewBox="0 0 18 18" fill="none" xmlns="http://www.w3.org/2000/svg">
<g clip-path="url(#clip0_275_4189)">
<path d="M8.28284 9.95605C8.11409 9.95605 7.97346 9.81543 7.97346 9.64668C7.97346 9.47793 8.11409 9.33731 8.28284 9.33731H9.71721C9.88596 9.33731 10.0266 9.47793 10.0266 9.64668C10.0266 9.81543 9.88596 9.95605 9.71721 9.95605H8.28284ZM3.27659 6.35605C3.02346 6.35605 2.79846 6.13105 2.79846 5.87793C2.79846 5.6248 3.02346 5.39981 3.27659 5.39981H3.71252C3.86721 5.39981 3.99377 5.2873 3.99377 5.13262C4.12034 3.38887 5.17502 1.7998 6.75002 1.0123C6.82034 0.970117 6.90471 0.956055 6.96096 0.956055C7.21409 0.956055 7.43909 1.18105 7.43909 1.43418V2.41855C7.43909 2.57324 7.56565 2.6998 7.72034 2.6998C7.87502 2.6998 8.00159 2.57324 8.00159 2.41855V0.970117C8.00159 0.731055 8.1844 0.520117 8.4094 0.491992C8.59221 0.463867 8.78909 0.463867 8.9719 0.463867C9.18284 0.463867 9.40784 0.47793 9.59065 0.491992C9.82971 0.520117 9.99846 0.716992 9.99846 0.970117V2.40449C9.99846 2.55918 10.125 2.68574 10.2797 2.68574C10.4344 2.68574 10.561 2.55918 10.561 2.40449V1.43418C10.561 1.18105 10.786 0.956055 11.0391 0.956055C11.0953 0.956055 11.1797 0.970117 11.2641 1.0123C12.8672 1.84199 13.8938 3.3748 14.0203 5.13262C14.0344 5.2873 14.1469 5.39981 14.3016 5.39981H14.7375C14.9907 5.39981 15.2157 5.6248 15.2157 5.87793C15.2157 6.13105 14.9907 6.35605 14.7375 6.35605H3.27659ZM13.2469 5.5123C13.2047 5.39981 13.1906 5.30137 13.1766 5.18887C13.0922 3.96543 12.4453 2.82637 11.4469 2.09512V2.40449C11.4469 3.02324 10.9406 3.52949 10.3219 3.52949C9.70315 3.52949 9.1969 3.02324 9.1969 2.40449V1.30762H8.8594V2.39043C8.8594 3.00918 8.35315 3.51543 7.7344 3.51543C7.11565 3.51543 6.6094 3.00918 6.6094 2.39043V2.06699C5.56877 2.79824 4.9219 3.95137 4.82346 5.18887C4.8094 5.30137 4.79534 5.39981 4.75315 5.5123H13.2469Z" fill="#F58220"/>
<path d="M1.4625 17.9721C1.09688 17.9721 0.759378 17.8174 0.534378 17.5502C0.337503 17.3111 0.253128 17.0018 0.32344 16.7064C0.88594 13.8236 3.51563 11.4611 6.93281 10.7861C5.625 9.94238 4.82344 8.39551 4.82344 6.66582V6.56738H13.2047V6.66582C13.2047 8.38145 12.4031 9.94238 11.0813 10.7861C14.4984 11.4752 17.1281 13.8377 17.6906 16.7064C17.7469 17.0018 17.6766 17.3111 17.4797 17.5502C17.2547 17.8174 16.9172 17.9721 16.5516 17.9721H1.4625ZM9 11.4189C7.07344 11.4189 5.21719 11.9814 3.76875 13.0221C2.37657 14.0205 1.44844 15.3846 1.15313 16.8611C1.13907 16.9314 1.16719 16.9877 1.19532 17.0018C1.26563 17.0861 1.35 17.1283 1.4625 17.1283H16.5656C16.6781 17.1283 16.7766 17.0861 16.8328 17.0158C16.8469 17.0018 16.8891 16.9455 16.8609 16.8752C16.5797 15.3846 15.6516 14.0205 14.2453 13.0221C12.7828 11.9814 10.9266 11.4189 9 11.4189ZM5.70938 7.41113C6.01875 9.23926 7.38282 10.5611 8.98594 10.5611C10.5891 10.5611 11.9531 9.23926 12.2625 7.41113H5.70938Z" fill="#F58220"/>
</g>
<defs>
<clipPath id="clip0_275_4189">
<rect width="18" height="18" fill="white"/>
</clipPath>
</defs>
</svg>
