<svg width="60" height="60" viewBox="0 0 60 60" fill="none" xmlns="http://www.w3.org/2000/svg">
<path d="M27.6094 33.1875C27.0469 33.1875 26.5781 32.7187 26.5781 32.1562C26.5781 31.5937 27.0469 31.125 27.6094 31.125H32.3906C32.9531 31.125 33.4219 31.5937 33.4219 32.1562C33.4219 32.7187 32.9531 33.1875 32.3906 33.1875H27.6094ZM10.9219 21.1875C10.0781 21.1875 9.32812 20.4375 9.32812 19.5938C9.32812 18.75 10.0781 18 10.9219 18H12.375C12.8906 18 13.3125 17.625 13.3125 17.1094C13.7344 11.2969 17.25 6 22.5 3.375C22.7344 3.23437 23.0156 3.1875 23.2031 3.1875C24.0469 3.1875 24.7969 3.9375 24.7969 4.78125V8.0625C24.7969 8.57813 25.2187 9 25.7344 9C26.25 9 26.6719 8.57813 26.6719 8.0625V3.23438C26.6719 2.4375 27.2812 1.73438 28.0312 1.64063C28.6406 1.54688 29.2969 1.54688 29.9062 1.54688C30.6094 1.54688 31.3594 1.59375 31.9687 1.64063C32.7656 1.73438 33.3281 2.39063 33.3281 3.23438V8.01562C33.3281 8.53125 33.75 8.95312 34.2656 8.95312C34.7812 8.95312 35.2031 8.53125 35.2031 8.01562V4.78125C35.2031 3.9375 35.9531 3.1875 36.7969 3.1875C36.9844 3.1875 37.2656 3.23437 37.5469 3.375C42.8906 6.14062 46.3125 11.25 46.7344 17.1094C46.7812 17.625 47.1562 18 47.6719 18H49.125C49.9688 18 50.7187 18.75 50.7187 19.5938C50.7187 20.4375 49.9688 21.1875 49.125 21.1875H10.9219ZM44.1562 18.375C44.0156 18 43.9687 17.6719 43.9219 17.2969C43.6406 13.2188 41.4844 9.42187 38.1562 6.98437V8.01562C38.1562 10.0781 36.4687 11.7656 34.4062 11.7656C32.3437 11.7656 30.6562 10.0781 30.6562 8.01562V4.35938H29.5312V7.96875C29.5312 10.0312 27.8437 11.7188 25.7812 11.7188C23.7187 11.7188 22.0312 10.0312 22.0312 7.96875V6.89062C18.5625 9.32812 16.4062 13.1719 16.0781 17.2969C16.0312 17.6719 15.9844 18 15.8437 18.375H44.1562Z" fill="#58595B"/>
<path d="M4.87509 59.9063C3.65634 59.9063 2.53134 59.3906 1.78134 58.5C1.12509 57.7031 0.84384 56.6719 1.07822 55.6875C2.95322 46.0781 11.7188 38.2031 23.1095 35.9531C18.7501 33.1406 16.0782 27.9844 16.0782 22.2188V21.8906H44.0157V22.2188C44.0157 27.9375 41.3438 33.1406 36.9376 35.9531C48.3282 38.25 57.0938 46.125 58.9688 55.6875C59.1563 56.6719 58.922 57.7031 58.2657 58.5C57.5157 59.3906 56.3907 59.9063 55.172 59.9063H4.87509ZM30.0001 38.0625C23.5782 38.0625 17.3907 39.9375 12.5626 43.4062C7.92197 46.7344 4.82822 51.2812 3.84384 56.2031C3.79697 56.4375 3.89072 56.625 3.98447 56.6719C4.21884 56.9531 4.50009 57.0938 4.87509 57.0938H55.2188C55.5938 57.0938 55.922 56.9531 56.1095 56.7188C56.1563 56.6719 56.297 56.4844 56.2032 56.25C55.2657 51.2813 52.172 46.7344 47.4845 43.4062C42.6095 39.9375 36.422 38.0625 30.0001 38.0625ZM19.0313 24.7031C20.0626 30.7969 24.6095 35.2031 29.9532 35.2031C35.297 35.2031 39.8438 30.7969 40.8751 24.7031H19.0313Z" fill="#58595B"/>
</svg>
